999
FreeCAD v1.0 39285 (Git)
  0
SECTION
  2
HEADER
  9
$ACADVER
  1
AC1014
  9
$ACADMAINTVER
 70
     9
  9
$DWGCODEPAGE
  3
ANSI_1252
  9
$TEXTSTYLE
  7
STANDARD
  9
$DIMSTYLE
  2
STANDARD
  9
$DIMTXSTY
  7
STANDARD
  9
$CMLSTYLE
  2
STANDARD
  9
$LUNITS
 70
2
  9
$INSUNITS
 70
4
  9
$PEXTMAX
 10
50
 20
50
 30
50
  9
$PEXTMIN
 10
0
 20
0
 30
0
  9
$HANDSEED
  5
FFFF
  0
ENDSEC
  0
SECTION
  2
CLASSES
  0
CLASS
  1
ACDBDICTIONARYWDFLT
  2
AcDbDictionaryWithDefault
  3
ObjectDBX Classes
 90
        0
280
     0
281
     0
  0
CLASS
  1
XRECORD
  2
AcDbXrecord
  3
ObjectDBX Classes
 90
        0
280
     0
281
     0
  0
CLASS
  1
LWPOLYLINE
  2
AcDbPolyline
  3
ObjectDBX Classes
 90
        0
280
     0
281
     1
  0
ENDSEC
  0
SECTION
  2
TABLES
  0
TABLE
  2
VPORT
  5
20
330
0
100
AcDbSymbolTable
 70
     1
  0
VPORT
  5
21
330
20
100
AcDbSymbolTableRecord
100
AcDbViewportTableRecord
  2
*ACTIVE
 70
     0
  0
ENDTAB
  0
TABLE
  2
LTYPE
  5
22
330
0
100
AcDbSymbolTable
 70
     1
  0
LTYPE
  5
23
330
21
100
AcDbSymbolTableRecord
100
AcDbLinetypeTableRecord
  2
BYBLOCK
 70
     0
  3

 72
    65
 73
     0
 40
0.0
  0
LTYPE
  5
24
330
21
100
AcDbSymbolTableRecord
100
AcDbLinetypeTableRecord
  2
BYLAYER
 70
     0
  3

 72
    65
 73
     0
 40
0.0
  0
LTYPE
  5
25
330
21
100
AcDbSymbolTableRecord
100
AcDbLinetypeTableRecord
  2
CONTINUOUS
 70
     0
  3
Solid line
 72
    65
 73
     0
 40
0.0
  0
ENDTAB
  0
TABLE
  2
LAYER
  5
B4E
330
0
100
AcDbSymbolTable
 70
3
  0
LAYER
  5
B4F
330
B4E
100
AcDbSymbolTableRecord
100
AcDbLayerTableRecord
  2
0
 70
   0
 62
   7
  6
CONTINUOUS
  0
LAYER
  5
B50
330
B4E
100
AcDbSymbolTableRecord
100
AcDbLayerTableRecord
  2
none
 70
    0
 62
    7
  6
CONTINUOUS
  0
LAYER
  5
B51
330
B4E
100
AcDbSymbolTableRecord
100
AcDbLayerTableRecord
  2
refine001
 70
    0
 62
    7
  6
CONTINUOUS
  0
ENDTAB
  0
TABLE
  2
STYLE
  5
70
330
0
100
AcDbSymbolTable
 70
     2
  0
STYLE
  5
71
330
70
100
AcDbSymbolTableRecord
100
AcDbTextStyleTableRecord
  2
STANDARD
 70
     0
 40
0.0
 41
1.0
 50
0.0
 71
     0
 42
2.5
  3
arial.ttf
  4

  0
STYLE
  5
72
330
70
100
AcDbSymbolTableRecord
100
AcDbTextStyleTableRecord
  2
ANNOTATIVE
 70
     0
 40
0.0
 41
1.0
 50
0.0
 71
     0
 42
2.5
  3
arial.ttf
  4

  0
ENDTAB
  0
TABLE
  2
VIEW
  5
73
330
0
100
AcDbSymbolTable
 70
     0
  0
ENDTAB
  0
TABLE
  2
UCS
  5
74
330
0
100
AcDbSymbolTable
 70
     0
  0
ENDTAB
  0
TABLE
  2
APPID
  5
75
330
0
100
AcDbSymbolTable
 70
     2
  0
APPID
  5
76
330
75
100
AcDbSymbolTableRecord
100
AcDbRegAppTableRecord
  2
ACAD
 70
     0
  0
APPID
  5
77
330
75
100
AcDbSymbolTableRecord
100
AcDbRegAppTableRecord
  2
ACADANNOTATIVE
 70
     0
  0
ENDTAB
  0
TABLE
  2
DIMSTYLE
  5
78
330
0
100
AcDbSymbolTable
 70
     2
  0
DIMSTYLE
105
79
330
78
100
AcDbSymbolTableRecord
100
AcDbDimStyleTableRecord
  2
STANDARD
 70
     0
  3

  4

  5

  6

  7

 40
0.0
 41
2.5
 42
0.625
 43
3.75
 44
1.25
 45
0.0
 46
0.0
 47
0.0
 48
0.0
140
2.5
141
2.5
142
0.0
143
0.03937007874016
144
1.0
145
0.0
146
1.0
147
0.625
 71
     0
 72
     0
 73
     0
 74
     0
 75
     0
 76
     0
 77
     1
 78
     8
170
     0
171
     3
172
     1
173
     0
174
     0
175
     0
176
     0
177
     0
178
     0
270
     2
271
     2
272
     2
273
     2
274
     3
340
71
275
     0
280
     0
281
     0
282
     0
283
     0
284
     8
285
     0
286
     0
287
     3
288
     0
  0
ENDTAB
  0
TABLE
  2
BLOCK_RECORD
  5
A01
330
0
100
AcDbSymbolTable
  70
5
  0
BLOCK_RECORD
  5
A02
330
A01
100
AcDbSymbolTableRecord
100
AcDbBlockTableRecord
  2
*MODEL_SPACE
  0
BLOCK_RECORD
  5
A03
330
A01
100
AcDbSymbolTableRecord
100
AcDbBlockTableRecord
  2
*PAPER_SPACE
  0
ENDTAB
  0
ENDSEC
  0
SECTION
  2
BLOCKS
  0
BLOCK
  5
A04
330
A02
100
AcDbEntity
  8
0
100
AcDbBlockBegin
  2
*MODEL_SPACE
 70
   0
 10
0
 20
0
 30
0
  3
*MODEL_SPACE
  1
 
  0
ENDBLK
  5
A05
330
A02
100
AcDbEntity
  8
0
100
AcDbBlockEnd
  0
BLOCK
  5
A06
330
A03
100
AcDbEntity
 67
1
  8
0
100
AcDbBlockBegin
  2
*PAPER_SPACE
 70
   0
 10
0
 20
0
 30
0
  3
*PAPER_SPACE
  1
 
  0
ENDBLK
  5
A07
330
A03
100
AcDbEntity
 67
    1
  8
0
100
AcDbBlockEnd
  0
ENDSEC
  0
SECTION
  2
ENTITIES
  0
SPLINE
  5
A08
330
A02
100
AcDbEntity
  8
refine001
100
AcDbSpline
210
0
220
0
230
1
 70
8
 71
1
 72
4
 73
2
 74
0
 40
0.304130941
 40
0.304130941
 40
2.136705964
 40
2.136705964
 10
2.725370029
 20
-0.377799987
 30
6.332575021
 10
2.725370164
 20
-0.377799987
 30
4.500000000
  0
SPLINE
  5
A09
330
A02
100
AcDbEntity
  8
refine001
100
AcDbSpline
210
0
220
0
230
1
 70
8
 71
1
 72
4
 73
2
 74
0
 40
0.691289789
 40
0.691289789
 40
15.309504053
 40
15.309504053
 10
2.725370164
 20
-0.377799987
 30
4.500000000
 10
8.089295889
 20
-0.377799987
 30
4.500000000
  0
SPLINE
  5
A0A
330
A02
100
AcDbEntity
  8
refine001
100
AcDbSpline
210
0
220
0
230
1
 70
8
 71
2
 72
6
 73
3
 74
0
 40
0.000000000
 40
0.000000000
 40
0.000000000
 40
1.966874155
 40
1.966874155
 40
1.966874155
 10
7.375025146
 20
-0.377799987
 30
6.332575021
 10
7.727063417
 20
-0.377799987
 30
5.414289012
 10
8.089295889
 20
-0.377799987
 30
4.500000000
  0
SPLINE
  5
A0B
330
A02
100
AcDbEntity
  8
refine001
100
AcDbSpline
210
0
220
0
230
1
 70
8
 71
1
 72
4
 73
2
 74
0
 40
11.839398790
 40
11.839398790
 40
16.600000000
 40
16.600000000
 10
2.725370029
 20
-0.377799987
 30
6.332575021
 10
7.375025146
 20
-0.377799987
 30
6.332575021
  0
SPLINE
  5
A0C
330
A02
100
AcDbEntity
  8
refine001
100
AcDbSpline
210
0
220
0
230
1
 70
9
 71
3
 72
53
 73
49
 74
0
 40
0.000000000
 40
0.000000000
 40
0.000000000
 40
0.000000000
 40
1.079922475
 40
1.079922475
 40
1.079922475
 40
2.159844950
 40
2.159844950
 40
2.159844950
 40
3.239767424
 40
3.239767424
 40
3.239767424
 40
4.319689899
 40
4.319689899
 40
4.319689899
 40
5.399612374
 40
5.399612374
 40
5.399612374
 40
6.479534848
 40
6.479534848
 40
6.479534848
 40
7.559457323
 40
7.559457323
 40
7.559457323
 40
8.639379797
 40
8.639379797
 40
8.639379797
 40
9.719302272
 40
9.719302272
 40
9.719302272
 40
10.799224747
 40
10.799224747
 40
10.799224747
 40
11.879147221
 40
11.879147221
 40
11.879147221
 40
12.959069696
 40
12.959069696
 40
12.959069696
 40
14.038992171
 40
14.038992171
 40
14.038992171
 40
15.118914646
 40
15.118914646
 40
15.118914646
 40
16.198837120
 40
16.198837120
 40
16.198837120
 40
17.278759595
 40
17.278759595
 40
17.278759595
 40
17.278759595
 10
2.750978341
 20
-0.003384416
 30
1.000000000
 10
2.751370036
 20
0.320315609
 30
1.000000000
 10
2.692376906
 20
0.670015006
 30
1.000000000
 10
2.557896169
 20
1.008876035
 30
1.000000000
 10
2.424552803
 20
1.347524710
 30
1.000000000
 10
2.214660952
 20
1.672914378
 30
1.000000000
 10
1.945521989
 20
1.941159232
 30
1.000000000
 10
1.677277135
 20
2.210298195
 30
1.000000000
 10
1.351887467
 20
2.420190046
 30
1.000000000
 10
1.013238792
 20
2.553533412
 30
1.000000000
 10
0.674377763
 20
2.688014149
 30
1.000000000
 10
0.324678366
 20
2.747007279
 30
1.000000000
 10
0.000978341
 20
2.746615584
 30
1.000000000
 10
-0.322721684
 20
2.747007279
 30
1.000000000
 10
-0.672421081
 20
2.688014149
 30
1.000000000
 10
-1.011282110
 20
2.553533412
 30
1.000000000
 10
-1.349930785
 20
2.420190046
 30
1.000000000
 10
-1.675320453
 20
2.210298195
 30
1.000000000
 10
-1.943565307
 20
1.941159232
 30
1.000000000
 10
-2.212704270
 20
1.672914378
 30
1.000000000
 10
-2.422596121
 20
1.347524710
 30
1.000000000
 10
-2.555939487
 20
1.008876035
 30
1.000000000
 10
-2.690420224
 20
0.670015006
 30
1.000000000
 10
-2.749413354
 20
0.320315609
 30
1.000000000
 10
-2.749021659
 20
-0.003384416
 30
1.000000000
 10
-2.749413354
 20
-0.327084441
 30
1.000000000
 10
-2.690420224
 20
-0.676783838
 30
1.000000000
 10
-2.555939487
 20
-1.015644867
 30
1.000000000
 10
-2.422596121
 20
-1.354293542
 30
1.000000000
 10
-2.212704270
 20
-1.679683210
 30
1.000000000
 10
-1.943565307
 20
-1.947928064
 30
1.000000000
 10
-1.675320453
 20
-2.217067027
 30
1.000000000
 10
-1.349930785
 20
-2.426958878
 30
1.000000000
 10
-1.011282110
 20
-2.560302244
 30
1.000000000
 10
-0.672421081
 20
-2.694782981
 30
1.000000000
 10
-0.322721684
 20
-2.753776111
 30
1.000000000
 10
0.000978341
 20
-2.753384416
 30
1.000000000
 10
0.324678366
 20
-2.753776111
 30
1.000000000
 10
0.674377763
 20
-2.694782981
 30
1.000000000
 10
1.013238792
 20
-2.560302244
 30
1.000000000
 10
1.351887467
 20
-2.426958878
 30
1.000000000
 10
1.677277135
 20
-2.217067027
 30
1.000000000
 10
1.945521989
 20
-1.947928064
 30
1.000000000
 10
2.214660952
 20
-1.679683210
 30
1.000000000
 10
2.424552803
 20
-1.354293542
 30
1.000000000
 10
2.557896169
 20
-1.015644867
 30
1.000000000
 10
2.692376906
 20
-0.676783838
 30
1.000000000
 10
2.751370036
 20
-0.327084441
 30
1.000000000
 10
2.750978341
 20
-0.003384416
 30
1.000000000
  0
LINE
  5
A0D
330
A02
100
AcDbEntity
  8
refine001
100
AcDbLine
 10
0.800978341
 20
-0.803968844
 30
1.000000000
 11
0.800978341
 21
-2.303968844
 31
1.000000000
  0
LINE
  5
A0E
330
A02
100
AcDbEntity
  8
refine001
100
AcDbLine
 10
2.300978341
 20
-0.803968844
 30
1.000000000
 11
0.800978341
 21
-0.803968844
 31
1.000000000
  0
LINE
  5
A0F
330
A02
100
AcDbEntity
  8
refine001
100
AcDbLine
 10
2.300978341
 20
0.796031156
 30
1.000000000
 11
2.300978341
 21
-0.803968844
 31
1.000000000
  0
LINE
  5
A10
330
A02
100
AcDbEntity
  8
refine001
100
AcDbLine
 10
0.800978341
 20
0.796031156
 30
1.000000000
 11
2.300978341
 21
0.796031156
 31
1.000000000
  0
LINE
  5
A11
330
A02
100
AcDbEntity
  8
refine001
100
AcDbLine
 10
0.800978341
 20
2.296031156
 30
1.000000000
 11
0.800978341
 21
0.796031156
 31
1.000000000
  0
LINE
  5
A12
330
A02
100
AcDbEntity
  8
refine001
100
AcDbLine
 10
-0.799021659
 20
2.296031156
 30
1.000000000
 11
0.800978341
 21
2.296031156
 31
1.000000000
  0
LINE
  5
A13
330
A02
100
AcDbEntity
  8
refine001
100
AcDbLine
 10
-0.799021659
 20
0.796031156
 30
1.000000000
 11
-0.799021659
 21
2.296031156
 31
1.000000000
  0
LINE
  5
A14
330
A02
100
AcDbEntity
  8
refine001
100
AcDbLine
 10
-2.299021659
 20
0.796031156
 30
1.000000000
 11
-0.799021659
 21
0.796031156
 31
1.000000000
  0
LINE
  5
A15
330
A02
100
AcDbEntity
  8
refine001
100
AcDbLine
 10
-2.299021659
 20
-0.803968844
 30
1.000000000
 11
-2.299021659
 21
0.796031156
 31
1.000000000
  0
LINE
  5
A16
330
A02
100
AcDbEntity
  8
refine001
100
AcDbLine
 10
-0.799021659
 20
-0.803968844
 30
1.000000000
 11
-2.299021659
 21
-0.803968844
 31
1.000000000
  0
LINE
  5
A17
330
A02
100
AcDbEntity
  8
refine001
100
AcDbLine
 10
-0.799021659
 20
-2.303968844
 30
1.000000000
 11
-0.799021659
 21
-0.803968844
 31
1.000000000
  0
LINE
  5
A18
330
A02
100
AcDbEntity
  8
refine001
100
AcDbLine
 10
0.800978341
 20
-2.303968844
 30
1.000000000
 11
-0.799021659
 21
-2.303968844
 31
1.000000000
  0
SPLINE
  5
A19
330
A02
100
AcDbEntity
  8
refine001
100
AcDbSpline
210
0
220
0
230
1
 70
8
 71
1
 72
4
 73
2
 74
0
 40
0.000000000
 40
0.000000000
 40
1.000000000
 40
1.000000000
 10
-0.499021659
 20
1.996031156
 30
1.300000000
 10
0.500978341
 20
1.996031156
 30
1.300000000
  0
SPLINE
  5
A1A
330
A02
100
AcDbEntity
  8
refine001
100
AcDbSpline
210
0
220
0
230
1
 70
8
 71
1
 72
4
 73
2
 74
0
 40
0.000000000
 40
0.000000000
 40
0.519615242
 40
0.519615242
 10
0.500978341
 20
1.996031156
 30
1.300000000
 10
0.800978341
 20
2.296031156
 30
1.000000000
  0
LINE
  5
A1B
330
A02
100
AcDbEntity
  8
refine001
100
AcDbLine
 10
-0.799021659
 20
2.296031156
 30
1.000000000
 11
0.800978341
 21
2.296031156
 31
1.000000000
  0
SPLINE
  5
A1C
330
A02
100
AcDbEntity
  8
refine001
100
AcDbSpline
210
0
220
0
230
1
 70
8
 71
1
 72
4
 73
2
 74
0
 40
-0.519615242
 40
-0.519615242
 40
0.000000000
 40
0.000000000
 10
-0.799021659
 20
2.296031156
 30
1.000000000
 10
-0.499021659
 20
1.996031156
 30
1.300000000
  0
SPLINE
  5
A1D
330
A02
100
AcDbEntity
  8
refine001
100
AcDbSpline
210
0
220
0
230
1
 70
8
 71
1
 72
4
 73
2
 74
0
 40
0.000000000
 40
0.000000000
 40
1.500000000
 40
1.500000000
 10
0.500978341
 20
1.996031156
 30
1.300000000
 10
0.500978341
 20
0.496031156
 30
1.300000000
  0
SPLINE
  5
A1E
330
A02
100
AcDbEntity
  8
refine001
100
AcDbSpline
210
0
220
0
230
1
 70
8
 71
1
 72
4
 73
2
 74
0
 40
-0.519615242
 40
-0.519615242
 40
0.000000000
 40
0.000000000
 10
0.800978341
 20
0.796031156
 30
1.000000000
 10
0.500978341
 20
0.496031156
 30
1.300000000
  0
LINE
  5
A1F
330
A02
100
AcDbEntity
  8
refine001
100
AcDbLine
 10
0.800978341
 20
2.296031156
 30
1.000000000
 11
0.800978341
 21
0.796031156
 31
1.000000000
  0
SPLINE
  5
A20
330
A02
100
AcDbEntity
  8
refine001
100
AcDbSpline
210
0
220
0
230
1
 70
8
 71
1
 72
4
 73
2
 74
0
 40
0.000000000
 40
0.000000000
 40
0.519615242
 40
0.519615242
 10
0.500978341
 20
1.996031156
 30
1.300000000
 10
0.800978341
 20
2.296031156
 30
1.000000000
  0
SPLINE
  5
A21
330
A02
100
AcDbEntity
  8
refine001
100
AcDbSpline
210
0
220
0
230
1
 70
8
 71
1
 72
4
 73
2
 74
0
 40
0.000000000
 40
0.000000000
 40
1.500000000
 40
1.500000000
 10
0.500978341
 20
0.496031156
 30
1.300000000
 10
2.000978341
 20
0.496031156
 30
1.300000000
  0
SPLINE
  5
A22
330
A02
100
AcDbEntity
  8
refine001
100
AcDbSpline
210
0
220
0
230
1
 70
8
 71
1
 72
4
 73
2
 74
0
 40
0.000000000
 40
0.000000000
 40
0.519615242
 40
0.519615242
 10
2.000978341
 20
0.496031156
 30
1.300000000
 10
2.300978341
 20
0.796031156
 30
1.000000000
  0
LINE
  5
A23
330
A02
100
AcDbEntity
  8
refine001
100
AcDbLine
 10
0.800978341
 20
0.796031156
 30
1.000000000
 11
2.300978341
 21
0.796031156
 31
1.000000000
  0
SPLINE
  5
A24
330
A02
100
AcDbEntity
  8
refine001
100
AcDbSpline
210
0
220
0
230
1
 70
8
 71
1
 72
4
 73
2
 74
0
 40
-0.519615242
 40
-0.519615242
 40
0.000000000
 40
0.000000000
 10
0.800978341
 20
0.796031156
 30
1.000000000
 10
0.500978341
 20
0.496031156
 30
1.300000000
  0
SPLINE
  5
A25
330
A02
100
AcDbEntity
  8
refine001
100
AcDbSpline
210
0
220
0
230
1
 70
8
 71
1
 72
4
 73
2
 74
0
 40
0.000000000
 40
0.000000000
 40
1.000000000
 40
1.000000000
 10
2.000978341
 20
0.496031156
 30
1.300000000
 10
2.000978341
 20
-0.503968844
 30
1.300000000
  0
SPLINE
  5
A26
330
A02
100
AcDbEntity
  8
refine001
100
AcDbSpline
210
0
220
0
230
1
 70
8
 71
1
 72
4
 73
2
 74
0
 40
0.000000000
 40
0.000000000
 40
0.519615242
 40
0.519615242
 10
2.000978341
 20
-0.503968844
 30
1.300000000
 10
2.300978341
 20
-0.803968844
 30
1.000000000
  0
LINE
  5
A27
330
A02
100
AcDbEntity
  8
refine001
100
AcDbLine
 10
2.300978341
 20
0.796031156
 30
1.000000000
 11
2.300978341
 21
-0.803968844
 31
1.000000000
  0
SPLINE
  5
A28
330
A02
100
AcDbEntity
  8
refine001
100
AcDbSpline
210
0
220
0
230
1
 70
8
 71
1
 72
4
 73
2
 74
0
 40
0.000000000
 40
0.000000000
 40
0.519615242
 40
0.519615242
 10
2.000978341
 20
0.496031156
 30
1.300000000
 10
2.300978341
 20
0.796031156
 30
1.000000000
  0
SPLINE
  5
A29
330
A02
100
AcDbEntity
  8
refine001
100
AcDbSpline
210
0
220
0
230
1
 70
8
 71
1
 72
4
 73
2
 74
0
 40
0.000000000
 40
0.000000000
 40
1.500000000
 40
1.500000000
 10
2.000978341
 20
-0.503968844
 30
1.300000000
 10
0.500978341
 20
-0.503968844
 30
1.300000000
  0
SPLINE
  5
A2A
330
A02
100
AcDbEntity
  8
refine001
100
AcDbSpline
210
0
220
0
230
1
 70
8
 71
1
 72
4
 73
2
 74
0
 40
-0.519615242
 40
-0.519615242
 40
0.000000000
 40
0.000000000
 10
0.800978341
 20
-0.803968844
 30
1.000000000
 10
0.500978341
 20
-0.503968844
 30
1.300000000
  0
LINE
  5
A2B
330
A02
100
AcDbEntity
  8
refine001
100
AcDbLine
 10
2.300978341
 20
-0.803968844
 30
1.000000000
 11
0.800978341
 21
-0.803968844
 31
1.000000000
  0
SPLINE
  5
A2C
330
A02
100
AcDbEntity
  8
refine001
100
AcDbSpline
210
0
220
0
230
1
 70
8
 71
1
 72
4
 73
2
 74
0
 40
0.000000000
 40
0.000000000
 40
0.519615242
 40
0.519615242
 10
2.000978341
 20
-0.503968844
 30
1.300000000
 10
2.300978341
 20
-0.803968844
 30
1.000000000
  0
SPLINE
  5
A2D
330
A02
100
AcDbEntity
  8
refine001
100
AcDbSpline
210
0
220
0
230
1
 70
8
 71
1
 72
4
 73
2
 74
0
 40
0.000000000
 40
0.000000000
 40
1.500000000
 40
1.500000000
 10
0.500978341
 20
-0.503968844
 30
1.300000000
 10
0.500978341
 20
-2.003968844
 30
1.300000000
  0
SPLINE
  5
A2E
330
A02
100
AcDbEntity
  8
refine001
100
AcDbSpline
210
0
220
0
230
1
 70
8
 71
1
 72
4
 73
2
 74
0
 40
0.000000000
 40
0.000000000
 40
0.519615242
 40
0.519615242
 10
0.500978341
 20
-2.003968844
 30
1.300000000
 10
0.800978341
 20
-2.303968844
 30
1.000000000
  0
LINE
  5
A2F
330
A02
100
AcDbEntity
  8
refine001
100
AcDbLine
 10
0.800978341
 20
-0.803968844
 30
1.000000000
 11
0.800978341
 21
-2.303968844
 31
1.000000000
  0
SPLINE
  5
A30
330
A02
100
AcDbEntity
  8
refine001
100
AcDbSpline
210
0
220
0
230
1
 70
8
 71
1
 72
4
 73
2
 74
0
 40
-0.519615242
 40
-0.519615242
 40
0.000000000
 40
0.000000000
 10
0.800978341
 20
-0.803968844
 30
1.000000000
 10
0.500978341
 20
-0.503968844
 30
1.300000000
  0
SPLINE
  5
A31
330
A02
100
AcDbEntity
  8
refine001
100
AcDbSpline
210
0
220
0
230
1
 70
8
 71
1
 72
4
 73
2
 74
0
 40
0.000000000
 40
0.000000000
 40
1.000000000
 40
1.000000000
 10
0.500978341
 20
-2.003968844
 30
1.300000000
 10
-0.499021659
 20
-2.003968844
 30
1.300000000
  0
SPLINE
  5
A32
330
A02
100
AcDbEntity
  8
refine001
100
AcDbSpline
210
0
220
0
230
1
 70
8
 71
1
 72
4
 73
2
 74
0
 40
-0.519615242
 40
-0.519615242
 40
0.000000000
 40
0.000000000
 10
-0.799021659
 20
-2.303968844
 30
1.000000000
 10
-0.499021659
 20
-2.003968844
 30
1.300000000
  0
LINE
  5
A33
330
A02
100
AcDbEntity
  8
refine001
100
AcDbLine
 10
0.800978341
 20
-2.303968844
 30
1.000000000
 11
-0.799021659
 21
-2.303968844
 31
1.000000000
  0
SPLINE
  5
A34
330
A02
100
AcDbEntity
  8
refine001
100
AcDbSpline
210
0
220
0
230
1
 70
8
 71
1
 72
4
 73
2
 74
0
 40
0.000000000
 40
0.000000000
 40
0.519615242
 40
0.519615242
 10
0.500978341
 20
-2.003968844
 30
1.300000000
 10
0.800978341
 20
-2.303968844
 30
1.000000000
  0
SPLINE
  5
A35
330
A02
100
AcDbEntity
  8
refine001
100
AcDbSpline
210
0
220
0
230
1
 70
8
 71
1
 72
4
 73
2
 74
0
 40
0.000000000
 40
0.000000000
 40
1.500000000
 40
1.500000000
 10
-0.499021659
 20
-2.003968844
 30
1.300000000
 10
-0.499021659
 20
-0.503968844
 30
1.300000000
  0
SPLINE
  5
A36
330
A02
100
AcDbEntity
  8
refine001
100
AcDbSpline
210
0
220
0
230
1
 70
8
 71
1
 72
4
 73
2
 74
0
 40
0.000000000
 40
0.000000000
 40
0.519615242
 40
0.519615242
 10
-0.499021659
 20
-0.503968844
 30
1.300000000
 10
-0.799021659
 20
-0.803968844
 30
1.000000000
  0
LINE
  5
A37
330
A02
100
AcDbEntity
  8
refine001
100
AcDbLine
 10
-0.799021659
 20
-2.303968844
 30
1.000000000
 11
-0.799021659
 21
-0.803968844
 31
1.000000000
  0
SPLINE
  5
A38
330
A02
100
AcDbEntity
  8
refine001
100
AcDbSpline
210
0
220
0
230
1
 70
8
 71
1
 72
4
 73
2
 74
0
 40
-0.519615242
 40
-0.519615242
 40
0.000000000
 40
0.000000000
 10
-0.799021659
 20
-2.303968844
 30
1.000000000
 10
-0.499021659
 20
-2.003968844
 30
1.300000000
  0
SPLINE
  5
A39
330
A02
100
AcDbEntity
  8
refine001
100
AcDbSpline
210
0
220
0
230
1
 70
8
 71
1
 72
4
 73
2
 74
0
 40
0.000000000
 40
0.000000000
 40
1.500000000
 40
1.500000000
 10
-0.499021659
 20
-0.503968844
 30
1.300000000
 10
-1.999021659
 20
-0.503968844
 30
1.300000000
  0
SPLINE
  5
A3A
330
A02
100
AcDbEntity
  8
refine001
100
AcDbSpline
210
0
220
0
230
1
 70
8
 71
1
 72
4
 73
2
 74
0
 40
0.000000000
 40
0.000000000
 40
0.519615242
 40
0.519615242
 10
-1.999021659
 20
-0.503968844
 30
1.300000000
 10
-2.299021659
 20
-0.803968844
 30
1.000000000
  0
LINE
  5
A3B
330
A02
100
AcDbEntity
  8
refine001
100
AcDbLine
 10
-0.799021659
 20
-0.803968844
 30
1.000000000
 11
-2.299021659
 21
-0.803968844
 31
1.000000000
  0
SPLINE
  5
A3C
330
A02
100
AcDbEntity
  8
refine001
100
AcDbSpline
210
0
220
0
230
1
 70
8
 71
1
 72
4
 73
2
 74
0
 40
0.000000000
 40
0.000000000
 40
0.519615242
 40
0.519615242
 10
-0.499021659
 20
-0.503968844
 30
1.300000000
 10
-0.799021659
 20
-0.803968844
 30
1.000000000
  0
SPLINE
  5
A3D
330
A02
100
AcDbEntity
  8
refine001
100
AcDbSpline
210
0
220
0
230
1
 70
8
 71
1
 72
4
 73
2
 74
0
 40
0.000000000
 40
0.000000000
 40
1.000000000
 40
1.000000000
 10
-1.999021659
 20
-0.503968844
 30
1.300000000
 10
-1.999021659
 20
0.496031156
 30
1.300000000
  0
SPLINE
  5
A3E
330
A02
100
AcDbEntity
  8
refine001
100
AcDbSpline
210
0
220
0
230
1
 70
8
 71
1
 72
4
 73
2
 74
0
 40
-0.519615242
 40
-0.519615242
 40
0.000000000
 40
0.000000000
 10
-2.299021659
 20
0.796031156
 30
1.000000000
 10
-1.999021659
 20
0.496031156
 30
1.300000000
  0
LINE
  5
A3F
330
A02
100
AcDbEntity
  8
refine001
100
AcDbLine
 10
-2.299021659
 20
-0.803968844
 30
1.000000000
 11
-2.299021659
 21
0.796031156
 31
1.000000000
  0
SPLINE
  5
A40
330
A02
100
AcDbEntity
  8
refine001
100
AcDbSpline
210
0
220
0
230
1
 70
8
 71
1
 72
4
 73
2
 74
0
 40
0.000000000
 40
0.000000000
 40
0.519615242
 40
0.519615242
 10
-1.999021659
 20
-0.503968844
 30
1.300000000
 10
-2.299021659
 20
-0.803968844
 30
1.000000000
  0
SPLINE
  5
A41
330
A02
100
AcDbEntity
  8
refine001
100
AcDbSpline
210
0
220
0
230
1
 70
8
 71
1
 72
4
 73
2
 74
0
 40
0.000000000
 40
0.000000000
 40
1.500000000
 40
1.500000000
 10
-1.999021659
 20
0.496031156
 30
1.300000000
 10
-0.499021659
 20
0.496031156
 30
1.300000000
  0
SPLINE
  5
A42
330
A02
100
AcDbEntity
  8
refine001
100
AcDbSpline
210
0
220
0
230
1
 70
8
 71
1
 72
4
 73
2
 74
0
 40
0.000000000
 40
0.000000000
 40
0.519615242
 40
0.519615242
 10
-0.499021659
 20
0.496031156
 30
1.300000000
 10
-0.799021659
 20
0.796031156
 30
1.000000000
  0
LINE
  5
A43
330
A02
100
AcDbEntity
  8
refine001
100
AcDbLine
 10
-2.299021659
 20
0.796031156
 30
1.000000000
 11
-0.799021659
 21
0.796031156
 31
1.000000000
  0
SPLINE
  5
A44
330
A02
100
AcDbEntity
  8
refine001
100
AcDbSpline
210
0
220
0
230
1
 70
8
 71
1
 72
4
 73
2
 74
0
 40
-0.519615242
 40
-0.519615242
 40
0.000000000
 40
0.000000000
 10
-2.299021659
 20
0.796031156
 30
1.000000000
 10
-1.999021659
 20
0.496031156
 30
1.300000000
  0
SPLINE
  5
A45
330
A02
100
AcDbEntity
  8
refine001
100
AcDbSpline
210
0
220
0
230
1
 70
8
 71
1
 72
4
 73
2
 74
0
 40
0.000000000
 40
0.000000000
 40
1.500000000
 40
1.500000000
 10
-0.499021659
 20
0.496031156
 30
1.300000000
 10
-0.499021659
 20
1.996031156
 30
1.300000000
  0
SPLINE
  5
A46
330
A02
100
AcDbEntity
  8
refine001
100
AcDbSpline
210
0
220
0
230
1
 70
8
 71
1
 72
4
 73
2
 74
0
 40
-0.519615242
 40
-0.519615242
 40
0.000000000
 40
0.000000000
 10
-0.799021659
 20
2.296031156
 30
1.000000000
 10
-0.499021659
 20
1.996031156
 30
1.300000000
  0
LINE
  5
A47
330
A02
100
AcDbEntity
  8
refine001
100
AcDbLine
 10
-0.799021659
 20
0.796031156
 30
1.000000000
 11
-0.799021659
 21
2.296031156
 31
1.000000000
  0
SPLINE
  5
A48
330
A02
100
AcDbEntity
  8
refine001
100
AcDbSpline
210
0
220
0
230
1
 70
8
 71
1
 72
4
 73
2
 74
0
 40
0.000000000
 40
0.000000000
 40
0.519615242
 40
0.519615242
 10
-0.499021659
 20
0.496031156
 30
1.300000000
 10
-0.799021659
 20
0.796031156
 30
1.000000000
  0
SPLINE
  5
A49
330
A02
100
AcDbEntity
  8
refine001
100
AcDbSpline
210
0
220
0
230
1
 70
8
 71
1
 72
4
 73
2
 74
0
 40
-71.821256750
 40
-71.821256750
 40
-71.078743243
 40
-71.078743243
 10
-0.374021659
 20
7.388617105
 30
4.500000000
 10
0.375978341
 20
7.388617105
 30
4.500000000
  0
SPLINE
  5
A4A
330
A02
100
AcDbEntity
  8
refine001
100
AcDbSpline
210
0
220
0
230
1
 70
8
 71
1
 72
4
 73
2
 74
0
 40
0.000000000
 40
0.000000000
 40
0.309823042
 40
0.309823042
 10
0.375978341
 20
7.377745678
 30
4.809632249
 10
0.375978341
 20
7.388617105
 30
4.500000000
  0
SPLINE
  5
A4B
330
A02
100
AcDbEntity
  8
refine001
100
AcDbSpline
210
0
220
0
230
1
 70
8
 71
1
 72
4
 73
2
 74
0
 40
-38.870857789
 40
-38.870857789
 40
-31.700000000
 40
-31.700000000
 10
0.375978341
 20
7.377745678
 30
4.809632249
 10
7.468493033
 20
7.377745678
 30
4.809632249
  0
SPLINE
  5
A4C
330
A02
100
AcDbEntity
  8
refine001
100
AcDbSpline
210
0
220
0
230
1
 70
8
 71
1
 72
4
 73
2
 74
0
 40
0.000000000
 40
0.000000000
 40
1.000000000
 40
1.000000000
 10
7.468493033
 20
7.377745678
 30
4.809632249
 10
9.932228346
 20
7.546615570
 30
0.000000000
  0
SPLINE
  5
A4D
330
A02
100
AcDbEntity
  8
refine001
100
AcDbSpline
210
0
220
0
230
1
 70
8
 71
1
 72
4
 73
2
 74
0
 40
63.900000000
 40
63.900000000
 40
79.000000000
 40
79.000000000
 10
9.932228346
 20
7.546615570
 30
0.000000000
 10
-9.930271654
 20
7.546615570
 30
0.000000000
  0
SPLINE
  5
A4E
330
A02
100
AcDbEntity
  8
refine001
100
AcDbSpline
210
0
220
0
230
1
 70
8
 71
1
 72
4
 73
2
 74
0
 40
-1.000000000
 40
-1.000000000
 40
0.000000000
 40
0.000000000
 10
-9.930271654
 20
7.546615570
 30
0.000000000
 10
-7.466536359
 20
7.377745678
 30
4.809632249
  0
SPLINE
  5
A4F
330
A02
100
AcDbEntity
  8
refine001
100
AcDbSpline
210
0
220
0
230
1
 70
8
 71
1
 72
4
 73
2
 74
0
 40
-46.800000000
 40
-46.800000000
 40
-39.629142203
 40
-39.629142203
 10
-7.466536359
 20
7.377745678
 30
4.809632249
 10
-0.374021659
 20
7.377745678
 30
4.809632249
  0
SPLINE
  5
A50
330
A02
100
AcDbEntity
  8
refine001
100
AcDbSpline
210
0
220
0
230
1
 70
8
 71
1
 72
4
 73
2
 74
0
 40
0.000000000
 40
0.000000000
 40
0.309823042
 40
0.309823042
 10
-0.374021659
 20
7.388617105
 30
4.500000000
 10
-0.374021659
 20
7.377745678
 30
4.809632249
  0
SPLINE
  5
A51
330
A02
100
AcDbEntity
  8
refine001
100
AcDbSpline
210
0
220
0
230
1
 70
8
 71
1
 72
4
 73
2
 74
0
 40
109.162337279
 40
109.162337279
 40
127.783531054
 40
127.783531054
 10
-11.430271654
 20
-8.536112507
 30
0.000000000
 10
-11.430271654
 20
8.592790477
 30
0.000000000
  0
SPLINE
  5
A52
330
A02
100
AcDbEntity
  8
refine001
100
AcDbSpline
210
0
220
0
230
1
 70
8
 71
3
 72
14
 73
10
 74
0
 40
-0.845039034
 40
-0.845039034
 40
-0.845039034
 40
-0.845039034
 40
-0.623168970
 40
-0.623168970
 40
-0.623168970
 40
-0.442732288
 40
-0.442732288
 40
-0.442732288
 40
0.000000000
 40
0.000000000
 40
0.000000000
 40
0.000000000
 10
-11.430271654
 20
8.592790477
 30
-0.000000000
 10
-11.430864352
 20
8.666321769
 30
0.000000008
 10
-11.428095089
 20
8.742144733
 30
-0.000000002
 10
-11.399108565
 20
8.810930081
 30
0.000000000
 10
-11.375175908
 20
8.867699682
 30
-0.000000000
 10
-11.338453421
 20
8.914456424
 30
-0.000000000
 10
-11.288941107
 20
8.951200307
 30
0.000000000
 10
-11.167627304
 20
9.041269441
 30
-0.000000000
 10
-11.009943951
 20
9.048062975
 30
0.000000000
 10
-10.864768934
 20
9.046615570
 30
-0.000000000
  0
SPLINE
  5
A53
330
A02
100
AcDbEntity
  8
refine001
100
AcDbSpline
210
0
220
0
230
1
 70
8
 71
1
 72
4
 73
2
 74
0
 40
56.285592088
 40
56.285592088
 40
71.991301851
 40
71.991301851
 10
-10.864768934
 20
9.046615570
 30
0.000000000
 10
10.866725625
 20
9.046615570
 30
0.000000000
  0
SPLINE
  5
A54
330
A02
100
AcDbEntity
  8
refine001
100
AcDbSpline
210
0
220
0
230
1
 70
8
 71
3
 72
14
 73
10
 74
0
 40
0.000000000
 40
0.000000000
 40
0.000000000
 40
0.000000000
 40
0.442732288
 40
0.442732288
 40
0.442732288
 40
0.623168970
 40
0.623168970
 40
0.623168970
 40
0.845039034
 40
0.845039034
 40
0.845039034
 40
0.845039034
 10
10.866725625
 20
9.046615570
 30
-0.000000000
 10
11.011900642
 20
9.048062975
 30
0.000000000
 10
11.169583995
 20
9.041269441
 30
-0.000000000
 10
11.290897798
 20
8.951200307
 30
0.000000000
 10
11.340410112
 20
8.914456424
 30
-0.000000000
 10
11.377132599
 20
8.867699682
 30
-0.000000000
 10
11.401065256
 20
8.810930081
 30
0.000000000
 10
11.430051781
 20
8.742144733
 30
-0.000000002
 10
11.432821042
 20
8.666321769
 30
0.000000008
 10
11.432228346
 20
8.592790477
 30
0.000000000
  0
SPLINE
  5
A55
330
A02
100
AcDbEntity
  8
refine001
100
AcDbSpline
210
0
220
0
230
1
 70
8
 71
1
 72
4
 73
2
 74
0
 40
72.893362885
 40
72.893362885
 40
91.514556660
 40
91.514556660
 10
11.432228346
 20
8.592790477
 30
0.000000000
 10
11.432228346
 20
-8.536112507
 30
0.000000000
  0
SPLINE
  5
A56
330
A02
100
AcDbEntity
  8
refine001
100
AcDbSpline
210
0
220
0
230
1
 70
8
 71
3
 72
14
 73
10
 74
0
 40
0.000000000
 40
0.000000000
 40
0.000000000
 40
0.000000000
 40
0.409093589
 40
0.409093589
 40
0.409093589
 40
0.639130377
 40
0.639130377
 40
0.639130377
 40
0.846718661
 40
0.846718661
 40
0.846718661
 40
0.846718661
 10
11.432228346
 20
-8.536112507
 30
0.000000000
 10
11.433225610
 20
-8.669679479
 30
-0.000000004
 10
11.428986076
 20
-8.817572588
 30
-0.000000008
 10
11.339164883
 20
-8.925564225
 30
-0.000000014
 10
11.290106420
 20
-8.985280036
 30
-0.000000018
 10
11.218072046
 20
-9.022330386
 30
-0.000000018
 10
11.143290212
 20
-9.038123418
 30
-0.000000025
 10
11.075049614
 20
-9.050719753
 30
-0.000000045
 10
11.006175830
 20
-9.055806755
 30
-0.000000030
 10
10.936668860
 20
-9.053384422
 30
0.000000019
  0
SPLINE
  5
A57
330
A02
100
AcDbEntity
  8
refine001
100
AcDbSpline
210
0
220
0
230
1
 70
8
 71
1
 72
4
 73
2
 74
0
 40
92.435043026
 40
92.435043026
 40
108.241850918
 40
108.241850918
 10
10.936668860
 20
-9.053384422
 30
0.000000019
 10
-10.934712173
 20
-9.053384422
 30
0.000000018
  0
SPLINE
  5
A58
330
A02
100
AcDbEntity
  8
refine001
100
AcDbSpline
210
0
220
0
230
1
 70
8
 71
3
 72
14
 73
10
 74
0
 40
0.000000127
 40
0.000000127
 40
0.000000127
 40
0.000000127
 40
0.207588408
 40
0.207588408
 40
0.207588408
 40
0.437625199
 40
0.437625199
 40
0.437625199
 40
0.846718788
 40
0.846718788
 40
0.846718788
 40
0.846718788
 10
-10.934712173
 20
-9.053384422
 30
0.000000018
 10
-11.004219142
 20
-9.055806756
 30
-0.000000030
 10
-11.073092925
 20
-9.050719753
 30
-0.000000043
 10
-11.141333521
 20
-9.038123415
 30
-0.000000022
 10
-11.216115359
 20
-9.022330389
 30
-0.000000019
 10
-11.288149730
 20
-8.985280037
 30
-0.000000016
 10
-11.337208195
 20
-8.925564225
 30
-0.000000013
 10
-11.427029385
 20
-8.817572588
 30
-0.000000006
 10
-11.431268926
 20
-8.669679480
 30
-0.000000007
 10
-11.430271654
 20
-8.536112507
 30
0.000000000
  0
SPLINE
  5
A59
330
A02
100
AcDbEntity
  8
refine001
100
AcDbSpline
210
0
220
0
230
1
 70
8
 71
1
 72
4
 73
2
 74
0
 40
62.900000000
 40
62.900000000
 40
63.900000000
 40
63.900000000
 10
9.932228346
 20
-7.553384430
 30
0.000000000
 10
9.932228346
 20
7.546615570
 30
0.000000000
  0
SPLINE
  5
A5A
330
A02
100
AcDbEntity
  8
refine001
100
AcDbSpline
210
0
220
0
230
1
 70
8
 71
1
 72
4
 73
2
 74
0
 40
63.900000000
 40
63.900000000
 40
79.000000000
 40
79.000000000
 10
9.932228346
 20
7.546615570
 30
0.000000000
 10
-9.930271654
 20
7.546615570
 30
0.000000000
  0
SPLINE
  5
A5B
330
A02
100
AcDbEntity
  8
refine001
100
AcDbSpline
210
0
220
0
230
1
 70
8
 71
1
 72
4
 73
2
 74
0
 40
79.000000000
 40
79.000000000
 40
80.000000000
 40
80.000000000
 10
-9.930271654
 20
7.546615570
 30
0.000000000
 10
-9.930271654
 20
-7.553384430
 30
0.000000000
  0
SPLINE
  5
A5C
330
A02
100
AcDbEntity
  8
refine001
100
AcDbSpline
210
0
220
0
230
1
 70
8
 71
1
 72
4
 73
2
 74
0
 40
47.800000000
 40
47.800000000
 40
62.900000000
 40
62.900000000
 10
-9.930271654
 20
-7.553384430
 30
0.000000000
 10
9.932228346
 20
-7.553384430
 30
0.000000000
  0
SPLINE
  5
A5D
330
A02
100
AcDbEntity
  8
refine001
100
AcDbSpline
210
0
220
0
230
1
 70
8
 71
2
 72
6
 73
3
 74
0
 40
-0.123088814
 40
-0.123088814
 40
-0.123088814
 40
10.345542194
 40
10.345542194
 40
10.345542194
 10
8.516441855
 20
-3.419512251
 30
8.130821649
 10
8.528118127
 20
1.718332974
 30
7.131901364
 10
8.546464345
 20
6.857279086
 30
6.141062550
  0
SPLINE
  5
A5E
330
A02
100
AcDbEntity
  8
refine001
100
AcDbSpline
210
0
220
0
230
1
 70
8
 71
3
 72
8
 73
4
 74
0
 40
0.017066019
 40
0.017066019
 40
0.017066019
 40
0.017066019
 40
7.285202345
 40
7.285202345
 40
7.285202345
 40
7.285202345
 10
11.432228346
 20
8.592790477
 30
0.000000000
 10
10.419725146
 20
8.009732345
 30
2.049215392
 10
9.446844241
 20
7.428842756
 30
4.100293519
 10
8.546464345
 20
6.857279086
 30
6.141062550
  0
SPLINE
  5
A5F
330
A02
100
AcDbEntity
  8
refine001
100
AcDbSpline
210
0
220
0
230
1
 70
8
 71
1
 72
4
 73
2
 74
0
 40
72.893362885
 40
72.893362885
 40
91.514556660
 40
91.514556660
 10
11.432228346
 20
8.592790477
 30
0.000000000
 10
11.432228346
 20
-8.536112507
 30
0.000000000
  0
SPLINE
  5
A60
330
A02
100
AcDbEntity
  8
refine001
100
AcDbSpline
210
0
220
0
230
1
 70
8
 71
3
 72
8
 73
4
 74
0
 40
0.199020366
 40
0.199020366
 40
0.199020366
 40
0.199020366
 40
10.328759919
 40
10.328759919
 40
10.328759919
 40
10.328759919
 10
11.432228346
 20
-8.536112507
 30
-0.000000000
 10
10.493733048
 20
-6.834803878
 30
2.709787935
 10
9.530271369
 20
-5.129603134
 30
5.418846604
 10
8.516441855
 20
-3.419512251
 30
8.130821649
  0
SPLINE
  5
A61
330
A02
100
AcDbEntity
  8
refine001
100
AcDbSpline
210
0
220
0
230
1
 70
8
 71
2
 72
6
 73
3
 74
0
 40
-0.150205559
 40
-0.150205559
 40
-0.150205559
 40
10.318425464
 40
10.318425464
 40
10.318425464
 10
-8.544507632
 20
6.857279084
 30
6.141062516
 10
-8.526158168
 20
1.718333140
 30
7.131899203
 10
-8.514485160
 20
-3.419512247
 30
8.130821661
  0
SPLINE
  5
A62
330
A02
100
AcDbEntity
  8
refine001
100
AcDbSpline
210
0
220
0
230
1
 70
8
 71
3
 72
8
 73
4
 74
0
 40
0.199020366
 40
0.199020366
 40
0.199020366
 40
0.199020366
 40
10.328759934
 40
10.328759934
 40
10.328759934
 40
10.328759934
 10
-11.430271654
 20
-8.536112507
 30
0.000000000
 10
-10.491776355
 20
-6.834803876
 30
2.709787939
 10
-9.528314675
 20
-5.129603131
 30
5.418846612
 10
-8.514485160
 20
-3.419512247
 30
8.130821661
  0
SPLINE
  5
A63
330
A02
100
AcDbEntity
  8
refine001
100
AcDbSpline
210
0
220
0
230
1
 70
8
 71
1
 72
4
 73
2
 74
0
 40
109.162337279
 40
109.162337279
 40
127.783531054
 40
127.783531054
 10
-11.430271654
 20
-8.536112507
 30
0.000000000
 10
-11.430271654
 20
8.592790477
 30
0.000000000
  0
SPLINE
  5
A64
330
A02
100
AcDbEntity
  8
refine001
100
AcDbSpline
210
0
220
0
230
1
 70
8
 71
3
 72
8
 73
4
 74
0
 40
-0.153590000
 40
-0.153590000
 40
-0.153590000
 40
-0.153590000
 40
7.114546302
 40
7.114546302
 40
7.114546302
 40
7.114546302
 10
-8.544507632
 20
6.857279084
 30
6.141062516
 10
-9.444887534
 20
7.428842754
 30
4.100293496
 10
-10.417768448
 20
8.009732344
 30
2.049215381
 10
-11.430271654
 20
8.592790477
 30
0.000000000
  0
SPLINE
  5
A65
330
A02
100
AcDbEntity
  8
refine001
100
AcDbSpline
210
0
220
0
230
1
 70
8
 71
3
 72
23
 73
19
 74
0
 40
0.217797582
 40
0.217797582
 40
0.217797582
 40
0.217797582
 40
1.028447985
 40
1.028447985
 40
1.028447985
 40
1.362329101
 40
1.362329101
 40
1.362329101
 40
1.667412675
 40
1.667412675
 40
1.667412675
 40
1.965486584
 40
1.965486584
 40
1.965486584
 40
2.280579775
 40
2.280579775
 40
2.280579775
 40
3.026606956
 40
3.026606956
 40
3.026606956
 40
3.026606956
 10
6.437540264
 20
8.855210745
 30
5.481116946
 10
6.705961777
 20
8.852917635
 30
5.508731213
 10
6.999169784
 20
8.857270105
 30
5.547768636
 10
7.318616666
 20
8.789662730
 30
5.611136035
 10
7.450825587
 20
8.763141537
 30
5.637234937
 10
7.584519862
 20
8.717919575
 30
5.667577553
 10
7.719699491
 20
8.653996843
 30
5.702163881
 10
7.844924456
 20
8.594015941
 30
5.734416912
 10
7.961819132
 20
8.513534069
 30
5.768386668
 10
8.070383518
 20
8.412551229
 30
5.804073147
 10
8.175167591
 20
8.311110156
 30
5.838904705
 10
8.261481195
 20
8.197850313
 30
5.871838512
 10
8.329324330
 20
8.072771700
 30
5.902874569
 10
8.398223195
 20
7.941853350
 30
5.934856757
 10
8.447512155
 20
7.811305054
 30
5.963419093
 10
8.477191212
 20
7.681126810
 30
5.988561578
 10
8.550072480
 20
7.376105580
 30
6.048358283
 10
8.546004405
 20
7.100974557
 30
6.093725132
 10
8.546464345
 20
6.857279086
 30
6.141062550
  0
SPLINE
  5
A66
330
A02
100
AcDbEntity
  8
refine001
100
AcDbSpline
210
0
220
0
230
1
 70
8
 71
3
 72
8
 73
4
 74
0
 40
0.017066019
 40
0.017066019
 40
0.017066019
 40
0.017066019
 40
7.285202345
 40
7.285202345
 40
7.285202345
 40
7.285202345
 10
11.432228346
 20
8.592790477
 30
0.000000000
 10
10.419725146
 20
8.009732345
 30
2.049215392
 10
9.446844241
 20
7.428842756
 30
4.100293519
 10
8.546464345
 20
6.857279086
 30
6.141062550
  0
SPLINE
  5
A67
330
A02
100
AcDbEntity
  8
refine001
100
AcDbSpline
210
0
220
0
230
1
 70
8
 71
3
 72
14
 73
10
 74
0
 40
0.000000000
 40
0.000000000
 40
0.000000000
 40
0.000000000
 40
0.442732288
 40
0.442732288
 40
0.442732288
 40
0.623168970
 40
0.623168970
 40
0.623168970
 40
0.845039034
 40
0.845039034
 40
0.845039034
 40
0.845039034
 10
10.866725625
 20
9.046615570
 30
-0.000000000
 10
11.011900642
 20
9.048062975
 30
0.000000000
 10
11.169583995
 20
9.041269441
 30
-0.000000000
 10
11.290897798
 20
8.951200307
 30
0.000000000
 10
11.340410112
 20
8.914456424
 30
-0.000000000
 10
11.377132599
 20
8.867699682
 30
-0.000000000
 10
11.401065256
 20
8.810930081
 30
0.000000000
 10
11.430051781
 20
8.742144733
 30
-0.000000002
 10
11.432821042
 20
8.666321769
 30
0.000000008
 10
11.432228346
 20
8.592790477
 30
0.000000000
  0
SPLINE
  5
A68
330
A02
100
AcDbEntity
  8
refine001
100
AcDbSpline
210
0
220
0
230
1
 70
8
 71
2
 72
6
 73
3
 74
0
 40
0.265279001
 40
0.265279001
 40
0.265279001
 40
7.522205738
 40
7.522205738
 40
7.522205738
 10
10.866725625
 20
9.046615570
 30
0.000000000
 10
8.634393092
 20
8.950672039
 30
2.747463205
 10
6.437540264
 20
8.855210745
 30
5.481116946
  0
SPLINE
  5
A69
330
A02
100
AcDbEntity
  8
refine001
100
AcDbSpline
210
0
220
0
230
1
 70
8
 71
3
 72
23
 73
19
 74
0
 40
0.150203477
 40
0.150203477
 40
0.150203477
 40
0.150203477
 40
0.896230791
 40
0.896230791
 40
0.896230791
 40
1.211324020
 40
1.211324020
 40
1.211324020
 40
1.509397945
 40
1.509397945
 40
1.509397945
 40
1.814481509
 40
1.814481509
 40
1.814481509
 40
2.148362588
 40
2.148362588
 40
2.148362588
 40
2.959012856
 40
2.959012856
 40
2.959012856
 40
2.959012856
 10
-8.544507632
 20
6.857279084
 30
6.141062516
 10
-8.544047765
 20
7.100974612
 30
6.093725161
 10
-8.548115800
 20
7.376105682
 30
6.048358266
 10
-8.475234499
 20
7.681126977
 30
5.988561554
 10
-8.445555425
 20
7.811305241
 30
5.963419063
 10
-8.396266438
 20
7.941853554
 30
5.934856719
 10
-8.327367540
 20
8.072771915
 30
5.902874523
 10
-8.259524374
 20
8.197850528
 30
5.871838460
 10
-8.173210741
 20
8.311110363
 30
5.838904648
 10
-8.068426642
 20
8.412551419
 30
5.804073087
 10
-7.959862241
 20
8.513534231
 30
5.768386609
 10
-7.842967558
 20
8.594016075
 30
5.734416856
 10
-7.717742594
 20
8.653996949
 30
5.702163829
 10
-7.582562977
 20
8.717919649
 30
5.667577509
 10
-7.448868717
 20
8.763141589
 30
5.637234900
 10
-7.316659815
 20
8.789662767
 30
5.611136004
 10
-6.997212991
 20
8.857270104
 30
5.547768622
 10
-6.704005037
 20
8.852917636
 30
5.508731210
 10
-6.435583567
 20
8.855210745
 30
5.481116945
  0
SPLINE
  5
A6A
330
A02
100
AcDbEntity
  8
refine001
100
AcDbSpline
210
0
220
0
230
1
 70
8
 71
2
 72
6
 73
3
 74
0
 40
-0.390593526
 40
-0.390593526
 40
-0.390593526
 40
6.866333321
 40
6.866333321
 40
6.866333321
 10
-6.435583567
 20
8.855210745
 30
5.481116945
 10
-8.632436398
 20
8.950672038
 30
2.747463204
 10
-10.864768934
 20
9.046615570
 30
0.000000000
  0
SPLINE
  5
A6B
330
A02
100
AcDbEntity
  8
refine001
100
AcDbSpline
210
0
220
0
230
1
 70
8
 71
3
 72
14
 73
10
 74
0
 40
-0.845039034
 40
-0.845039034
 40
-0.845039034
 40
-0.845039034
 40
-0.623168970
 40
-0.623168970
 40
-0.623168970
 40
-0.442732288
 40
-0.442732288
 40
-0.442732288
 40
0.000000000
 40
0.000000000
 40
0.000000000
 40
0.000000000
 10
-11.430271654
 20
8.592790477
 30
-0.000000000
 10
-11.430864352
 20
8.666321769
 30
0.000000008
 10
-11.428095089
 20
8.742144733
 30
-0.000000002
 10
-11.399108565
 20
8.810930081
 30
0.000000000
 10
-11.375175908
 20
8.867699682
 30
-0.000000000
 10
-11.338453421
 20
8.914456424
 30
-0.000000000
 10
-11.288941107
 20
8.951200307
 30
0.000000000
 10
-11.167627304
 20
9.041269441
 30
-0.000000000
 10
-11.009943951
 20
9.048062975
 30
0.000000000
 10
-10.864768934
 20
9.046615570
 30
-0.000000000
  0
SPLINE
  5
A6C
330
A02
100
AcDbEntity
  8
refine001
100
AcDbSpline
210
0
220
0
230
1
 70
8
 71
3
 72
8
 73
4
 74
0
 40
-0.153590000
 40
-0.153590000
 40
-0.153590000
 40
-0.153590000
 40
7.114546302
 40
7.114546302
 40
7.114546302
 40
7.114546302
 10
-8.544507632
 20
6.857279084
 30
6.141062516
 10
-9.444887534
 20
7.428842754
 30
4.100293496
 10
-10.417768448
 20
8.009732344
 30
2.049215381
 10
-11.430271654
 20
8.592790477
 30
0.000000000
  0
SPLINE
  5
A6D
330
A02
100
AcDbEntity
  8
refine001
100
AcDbSpline
210
0
220
0
230
1
 70
8
 71
3
 72
17
 73
13
 74
0
 40
0.123095338
 40
0.123095338
 40
0.123095338
 40
0.123095338
 40
0.850560682
 40
0.850560682
 40
0.850560682
 40
1.458671481
 40
1.458671481
 40
1.458671481
 40
2.068033644
 40
2.068033644
 40
2.068033644
 40
2.800397358
 40
2.800397358
 40
2.800397358
 40
2.800397358
 10
8.516441855
 20
-3.419512251
 30
8.130821649
 10
8.514334723
 20
-3.656402759
 30
8.176432320
 10
8.517513879
 20
-3.926284233
 30
8.235577717
 10
8.444884544
 20
-4.219346740
 30
8.291140227
 10
8.386904614
 20
-4.462925464
 30
8.337755934
 10
8.263265898
 20
-4.729206368
 30
8.381082305
 10
8.058238304
 20
-4.941208906
 30
8.397417062
 10
7.854307024
 20
-5.155162839
 30
8.414450474
 10
7.589367727
 20
-5.293101417
 30
8.402952368
 10
7.343787401
 20
-5.362494549
 30
8.381938683
 10
7.046280018
 20
-5.448447991
 30
8.356831392
 10
6.771576649
 20
-5.458162760
 30
8.322866732
 10
6.529473836
 20
-5.469044018
 30
8.300203452
  0
SPLINE
  5
A6E
330
A02
100
AcDbEntity
  8
refine001
100
AcDbSpline
210
0
220
0
230
1
 70
8
 71
2
 72
6
 73
3
 74
0
 40
0.152572196
 40
0.152572196
 40
0.152572196
 40
10.331094296
 40
10.331094296
 40
10.331094296
 10
10.936668860
 20
-9.053384422
 30
0.000000019
 10
8.737384638
 20
-7.264183226
 30
4.143226449
 10
6.529473836
 20
-5.469044018
 30
8.300203452
  0
SPLINE
  5
A6F
330
A02
100
AcDbEntity
  8
refine001
100
AcDbSpline
210
0
220
0
230
1
 70
8
 71
3
 72
14
 73
10
 74
0
 40
0.000000000
 40
0.000000000
 40
0.000000000
 40
0.000000000
 40
0.409093589
 40
0.409093589
 40
0.409093589
 40
0.639130377
 40
0.639130377
 40
0.639130377
 40
0.846718661
 40
0.846718661
 40
0.846718661
 40
0.846718661
 10
11.432228346
 20
-8.536112507
 30
0.000000000
 10
11.433225610
 20
-8.669679479
 30
-0.000000004
 10
11.428986076
 20
-8.817572588
 30
-0.000000008
 10
11.339164883
 20
-8.925564225
 30
-0.000000014
 10
11.290106420
 20
-8.985280036
 30
-0.000000018
 10
11.218072046
 20
-9.022330386
 30
-0.000000018
 10
11.143290212
 20
-9.038123418
 30
-0.000000025
 10
11.075049614
 20
-9.050719753
 30
-0.000000045
 10
11.006175830
 20
-9.055806755
 30
-0.000000030
 10
10.936668860
 20
-9.053384422
 30
0.000000019
  0
SPLINE
  5
A70
330
A02
100
AcDbEntity
  8
refine001
100
AcDbSpline
210
0
220
0
230
1
 70
8
 71
3
 72
8
 73
4
 74
0
 40
0.199020366
 40
0.199020366
 40
0.199020366
 40
0.199020366
 40
10.328759919
 40
10.328759919
 40
10.328759919
 40
10.328759919
 10
11.432228346
 20
-8.536112507
 30
-0.000000000
 10
10.493733048
 20
-6.834803878
 30
2.709787935
 10
9.530271369
 20
-5.129603134
 30
5.418846604
 10
8.516441855
 20
-3.419512251
 30
8.130821649
  0
SPLINE
  5
A71
330
A02
100
AcDbEntity
  8
refine001
100
AcDbSpline
210
0
220
0
230
1
 70
8
 71
3
 72
17
 73
13
 74
0
 40
0.123968568
 40
0.123968568
 40
0.123968568
 40
0.123968568
 40
0.856332179
 40
0.856332179
 40
0.856332179
 40
1.465694292
 40
1.465694292
 40
1.465694292
 40
2.073805136
 40
2.073805136
 40
2.073805136
 40
2.801270595
 40
2.801270595
 40
2.801270595
 40
2.801270595
 10
-6.527517139
 20
-5.469044018
 30
8.300203451
 10
-6.769619437
 20
-5.458162351
 30
8.322866521
 10
-7.044314519
 20
-5.448440524
 30
8.356827579
 10
-7.341842841
 20
-5.362505091
 30
8.381944016
 10
-7.587333273
 20
-5.293035009
 30
8.402918540
 10
-7.852382319
 20
-5.155190500
 30
8.414464487
 10
-8.056323403
 20
-4.941244999
 30
8.397435354
 10
-8.261066266
 20
-4.728998559
 30
8.380976512
 10
-8.385002158
 20
-4.462972124
 30
8.337779621
 10
-8.443083669
 20
-4.219480362
 30
8.291208168
 10
-8.514752208
 20
-3.925589519
 30
8.235229727
 10
-8.512989952
 20
-3.656941765
 30
8.176691241
 10
-8.514485160
 20
-3.419512247
 30
8.130821661
  0
SPLINE
  5
A72
330
A02
100
AcDbEntity
  8
refine001
100
AcDbSpline
210
0
220
0
230
1
 70
8
 71
3
 72
8
 73
4
 74
0
 40
0.199020366
 40
0.199020366
 40
0.199020366
 40
0.199020366
 40
10.328759934
 40
10.328759934
 40
10.328759934
 40
10.328759934
 10
-11.430271654
 20
-8.536112507
 30
0.000000000
 10
-10.491776355
 20
-6.834803876
 30
2.709787939
 10
-9.528314675
 20
-5.129603131
 30
5.418846612
 10
-8.514485160
 20
-3.419512247
 30
8.130821661
  0
SPLINE
  5
A73
330
A02
100
AcDbEntity
  8
refine001
100
AcDbSpline
210
0
220
0
230
1
 70
8
 71
3
 72
14
 73
10
 74
0
 40
0.000000127
 40
0.000000127
 40
0.000000127
 40
0.000000127
 40
0.207588408
 40
0.207588408
 40
0.207588408
 40
0.437625199
 40
0.437625199
 40
0.437625199
 40
0.846718788
 40
0.846718788
 40
0.846718788
 40
0.846718788
 10
-10.934712173
 20
-9.053384422
 30
0.000000018
 10
-11.004219142
 20
-9.055806756
 30
-0.000000030
 10
-11.073092925
 20
-9.050719753
 30
-0.000000043
 10
-11.141333521
 20
-9.038123415
 30
-0.000000022
 10
-11.216115359
 20
-9.022330389
 30
-0.000000019
 10
-11.288149730
 20
-8.985280037
 30
-0.000000016
 10
-11.337208195
 20
-8.925564225
 30
-0.000000013
 10
-11.427029385
 20
-8.817572588
 30
-0.000000006
 10
-11.431268926
 20
-8.669679480
 30
-0.000000007
 10
-11.430271654
 20
-8.536112507
 30
0.000000000
  0
SPLINE
  5
A74
330
A02
100
AcDbEntity
  8
refine001
100
AcDbSpline
210
0
220
0
230
1
 70
8
 71
2
 72
6
 73
3
 74
0
 40
0.152572194
 40
0.152572194
 40
0.152572194
 40
10.331094371
 40
10.331094371
 40
10.331094371
 10
-10.934712173
 20
-9.053384422
 30
0.000000018
 10
-8.735427946
 20
-7.264183228
 30
4.143226449
 10
-6.527517139
 20
-5.469044018
 30
8.300203451
  0
SPLINE
  5
A75
330
A02
100
AcDbEntity
  8
refine001
100
AcDbSpline
210
0
220
0
230
1
 70
8
 71
2
 72
6
 73
3
 74
0
 40
-0.390593526
 40
-0.390593526
 40
-0.390593526
 40
6.866333321
 40
6.866333321
 40
6.866333321
 10
-6.435583567
 20
8.855210745
 30
5.481116945
 10
-8.632436398
 20
8.950672038
 30
2.747463204
 10
-10.864768934
 20
9.046615570
 30
0.000000000
  0
SPLINE
  5
A76
330
A02
100
AcDbEntity
  8
refine001
100
AcDbSpline
210
0
220
0
230
1
 70
8
 71
1
 72
4
 73
2
 74
0
 40
56.285592088
 40
56.285592088
 40
71.991301851
 40
71.991301851
 10
-10.864768934
 20
9.046615570
 30
0.000000000
 10
10.866725625
 20
9.046615570
 30
0.000000000
  0
SPLINE
  5
A77
330
A02
100
AcDbEntity
  8
refine001
100
AcDbSpline
210
0
220
0
230
1
 70
8
 71
2
 72
6
 73
3
 74
0
 40
0.265279001
 40
0.265279001
 40
0.265279001
 40
7.522205738
 40
7.522205738
 40
7.522205738
 10
10.866725625
 20
9.046615570
 30
0.000000000
 10
8.634393092
 20
8.950672039
 30
2.747463205
 10
6.437540264
 20
8.855210745
 30
5.481116946
  0
SPLINE
  5
A78
330
A02
100
AcDbEntity
  8
refine001
100
AcDbSpline
210
0
220
0
230
1
 70
8
 71
3
 72
8
 73
4
 74
0
 40
-0.217948331
 40
-0.217948331
 40
-0.217948331
 40
-0.217948331
 40
12.677761966
 40
12.677761966
 40
12.677761966
 40
12.677761966
 10
-6.435583567
 20
8.855210745
 30
5.481116945
 10
-2.159538743
 20
8.870498160
 30
5.043342947
 10
2.161495440
 20
8.870498160
 30
5.043342948
 10
6.437540264
 20
8.855210745
 30
5.481116946
  0
SPLINE
  5
A79
330
A02
100
AcDbEntity
  8
refine001
100
AcDbSpline
210
0
220
0
230
1
 70
8
 71
3
 72
8
 73
4
 74
0
 40
-0.217948331
 40
-0.217948331
 40
-0.217948331
 40
-0.217948331
 40
12.677761966
 40
12.677761966
 40
12.677761966
 40
12.677761966
 10
-6.393800571
 20
8.514478221
 30
5.878333314
 10
-2.145473893
 20
8.529971699
 30
5.443660962
 10
2.147430588
 20
8.529971699
 30
5.443660962
 10
6.395757266
 20
8.514478221
 30
5.878333315
  0
SPLINE
  5
A7A
330
A02
100
AcDbEntity
  8
refine001
100
AcDbSpline
210
0
220
0
230
1
 70
8
 71
3
 72
17
 73
13
 74
0
 40
0.217797582
 40
0.217797582
 40
0.217797582
 40
0.217797582
 40
1.028447985
 40
1.028447985
 40
1.028447985
 40
1.667412675
 40
1.667412675
 40
1.667412675
 40
2.280579775
 40
2.280579775
 40
2.280579775
 40
3.026606956
 40
3.026606956
 40
3.026606956
 40
3.026606956
 10
6.395757266
 20
8.514478221
 30
5.878333315
 10
6.661986590
 20
8.513230217
 30
5.905589238
 10
6.931604219
 20
8.505589770
 30
5.936236819
 10
7.188099676
 20
8.438413584
 30
5.978741729
 10
7.389446468
 20
8.386219129
 30
6.011975458
 10
7.581267048
 20
8.291760932
 30
6.053507582
 10
7.728797831
 20
8.145545443
 30
6.100376041
 10
7.871290137
 20
8.006160888
 30
6.145280644
 10
7.966566616
 20
7.824322216
 30
6.193133690
 10
8.017582992
 20
7.632340373
 30
6.237334614
 10
8.080844375
 20
7.397893647
 30
6.291455672
 10
8.086477201
 20
7.151367688
 30
6.340619919
 10
8.086145129
 20
6.908004989
 30
6.388358005
  0
SPLINE
  5
A7B
330
A02
100
AcDbEntity
  8
refine001
100
AcDbSpline
210
0
220
0
230
1
 70
8
 71
1
 72
4
 73
2
 74
0
 40
-0.123088814
 40
-0.123088814
 40
10.345542194
 40
10.345542194
 10
8.071290811
 20
-3.364746312
 30
8.403686552
 10
8.086145129
 20
6.908004989
 30
6.388358005
  0
SPLINE
  5
A7C
330
A02
100
AcDbEntity
  8
refine001
100
AcDbSpline
210
0
220
0
230
1
 70
8
 71
3
 72
17
 73
13
 74
0
 40
0.123095338
 40
0.123095338
 40
0.123095338
 40
0.123095338
 40
0.850560682
 40
0.850560682
 40
0.850560682
 40
1.458671481
 40
1.458671481
 40
1.458671481
 40
2.068033644
 40
2.068033644
 40
2.068033644
 40
2.800397358
 40
2.800397358
 40
2.800397358
 40
2.800397358
 10
8.071290811
 20
-3.364746312
 30
8.403686552
 10
8.071161518
 20
-3.601511053
 30
8.450177171
 10
8.065029051
 20
-3.843498942
 30
8.496864228
 10
8.002935668
 20
-4.074441421
 30
8.534305305
 10
7.951895111
 20
-4.267568376
 30
8.565735431
 10
7.857734463
 20
-4.452628975
 30
8.590092139
 10
7.717228742
 20
-4.597990864
 30
8.601377225
 10
7.577290510
 20
-4.744762585
 30
8.613004171
 10
7.395588531
 20
-4.847163356
 30
8.611340807
 10
7.203469075
 20
-4.906541750
 30
8.601021144
 10
6.971757323
 20
-4.979212584
 30
8.588753339
 10
6.728040288
 20
-4.995413441
 30
8.565383746
 10
6.487458692
 20
-5.005221877
 30
8.542544606
  0
SPLINE
  5
A7D
330
A02
100
AcDbEntity
  8
refine001
100
AcDbSpline
210
0
220
0
230
1
 70
8
 71
3
 72
8
 73
4
 74
0
 40
-0.123992553
 40
-0.123992553
 40
-0.123992553
 40
-0.123992553
 40
12.956202163
 40
12.956202163
 40
12.956202163
 40
12.956202163
 10
6.487458692
 20
-5.005221877
 30
8.542544606
 10
2.178448288
 20
-5.182321762
 30
8.133192560
 10
-2.176491591
 20
-5.182321762
 30
8.133192560
 10
-6.485501995
 20
-5.005221878
 30
8.542544605
  0
SPLINE
  5
A7E
330
A02
100
AcDbEntity
  8
refine001
100
AcDbSpline
210
0
220
0
230
1
 70
8
 71
3
 72
17
 73
13
 74
0
 40
0.123968568
 40
0.123968568
 40
0.123968568
 40
0.123968568
 40
0.856332179
 40
0.856332179
 40
0.856332179
 40
1.465694292
 40
1.465694292
 40
1.465694292
 40
2.073805136
 40
2.073805136
 40
2.073805136
 40
2.801270595
 40
2.801270595
 40
2.801270595
 40
2.801270595
 10
-6.485501995
 20
-5.005221878
 30
8.542544605
 10
-6.726083615
 20
-4.995413033
 30
8.565383674
 10
-6.969801596
 20
-4.979205135
 30
8.588752094
 10
-7.201510821
 20
-4.906552264
 30
8.601022877
 10
-7.393640960
 20
-4.847097076
 30
8.611329796
 10
-7.575329872
 20
-4.744790156
 30
8.613008734
 10
-7.715266949
 20
-4.598026832
 30
8.601383183
 10
-7.855806595
 20
-4.452421547
 30
8.590057713
 10
-7.949931911
 20
-4.267614899
 30
8.565743149
 10
-8.000960400
 20
-4.074574736
 30
8.534327427
 10
-8.063171940
 20
-3.842806119
 30
8.496749655
 10
-8.069121461
 20
-3.602047697
 30
8.450265125
 10
-8.069334115
 20
-3.364746318
 30
8.403686553
  0
SPLINE
  5
A7F
330
A02
100
AcDbEntity
  8
refine001
100
AcDbSpline
210
0
220
0
230
1
 70
8
 71
1
 72
4
 73
2
 74
0
 40
-0.150205559
 40
-0.150205559
 40
10.318425464
 40
10.318425464
 10
-8.084188410
 20
6.908004984
 30
6.388358002
 10
-8.069334115
 20
-3.364746318
 30
8.403686553
  0
SPLINE
  5
A80
330
A02
100
AcDbEntity
  8
refine001
100
AcDbSpline
210
0
220
0
230
1
 70
8
 71
3
 72
17
 73
13
 74
0
 40
0.150203477
 40
0.150203477
 40
0.150203477
 40
0.150203477
 40
0.896230791
 40
0.896230791
 40
0.896230791
 40
1.509397945
 40
1.509397945
 40
1.509397945
 40
2.148362588
 40
2.148362588
 40
2.148362588
 40
2.959012856
 40
2.959012856
 40
2.959012856
 40
2.959012856
 10
-8.084188410
 20
6.908004984
 30
6.388358002
 10
-8.084520529
 20
7.151367734
 30
6.340619913
 10
-8.078887676
 20
7.397893733
 30
6.291455655
 10
-8.015626267
 20
7.632340497
 30
6.237334586
 10
-7.964609870
 20
7.824322353
 30
6.193133656
 10
-7.869333354
 20
8.006161029
 30
6.145280604
 10
-7.726841010
 20
8.145545570
 30
6.100375999
 10
-7.579310212
 20
8.291761022
 30
6.053507546
 10
-7.387489635
 20
8.386219184
 30
6.011975429
 10
-7.186142852
 20
8.438413619
 30
5.978741706
 10
-6.929647433
 20
8.505589773
 30
5.936236808
 10
-6.660029850
 20
8.513230218
 30
5.905589234
 10
-6.393800571
 20
8.514478221
 30
5.878333314
  0
SPLINE
  5
A81
330
A02
100
AcDbEntity
  8
refine001
100
AcDbSpline
210
0
220
0
230
1
 70
8
 71
2
 72
6
 73
3
 74
0
 40
0.152572196
 40
0.152572196
 40
0.152572196
 40
10.331094296
 40
10.331094296
 40
10.331094296
 10
10.936668860
 20
-9.053384422
 30
0.000000019
 10
8.737384638
 20
-7.264183226
 30
4.143226449
 10
6.529473836
 20
-5.469044018
 30
8.300203452
  0
SPLINE
  5
A82
330
A02
100
AcDbEntity
  8
refine001
100
AcDbSpline
210
0
220
0
230
1
 70
8
 71
1
 72
4
 73
2
 74
0
 40
92.435043026
 40
92.435043026
 40
108.241850918
 40
108.241850918
 10
10.936668860
 20
-9.053384422
 30
0.000000019
 10
-10.934712173
 20
-9.053384422
 30
0.000000018
  0
SPLINE
  5
A83
330
A02
100
AcDbEntity
  8
refine001
100
AcDbSpline
210
0
220
0
230
1
 70
8
 71
2
 72
6
 73
3
 74
0
 40
0.152572194
 40
0.152572194
 40
0.152572194
 40
10.331094371
 40
10.331094371
 40
10.331094371
 10
-10.934712173
 20
-9.053384422
 30
0.000000018
 10
-8.735427946
 20
-7.264183228
 30
4.143226449
 10
-6.527517139
 20
-5.469044018
 30
8.300203451
  0
SPLINE
  5
A84
330
A02
100
AcDbEntity
  8
refine001
100
AcDbSpline
210
0
220
0
230
1
 70
8
 71
3
 72
8
 73
4
 74
0
 40
-0.123992553
 40
-0.123992553
 40
-0.123992553
 40
-0.123992553
 40
12.956202163
 40
12.956202163
 40
12.956202163
 40
12.956202163
 10
6.529473836
 20
-5.469044018
 30
8.300203452
 10
2.192590580
 20
-5.647109777
 30
7.887859241
 10
-2.190633883
 20
-5.647109777
 30
7.887859241
 10
-6.527517139
 20
-5.469044018
 30
8.300203451
  0
SPLINE
  5
A85
330
A02
100
AcDbEntity
  8
refine001
100
AcDbSpline
210
0
220
0
230
1
 70
8
 71
2
 72
6
 73
3
 74
0
 40
-0.150205559
 40
-0.150205559
 40
-0.150205559
 40
10.318425464
 40
10.318425464
 40
10.318425464
 10
-8.544507632
 20
6.857279084
 30
6.141062516
 10
-8.526158168
 20
1.718333140
 30
7.131899203
 10
-8.514485160
 20
-3.419512247
 30
8.130821661
  0
SPLINE
  5
A86
330
A02
100
AcDbEntity
  8
refine001
100
AcDbSpline
210
0
220
0
230
1
 70
8
 71
3
 72
11
 73
7
 74
0
 40
0.000000000
 40
0.000000000
 40
0.000000000
 40
0.000000000
 40
0.319843438
 40
0.319843438
 40
0.319843438
 40
0.639686876
 40
0.639686876
 40
0.639686876
 40
0.639686876
 10
-8.514485160
 20
-3.419512247
 30
8.130821661
 10
-8.483698043
 20
-3.400547275
 30
8.227130182
 10
-8.438541292
 20
-3.382041249
 30
8.320885577
 10
-8.356691255
 20
-3.372362155
 30
8.369063936
 10
-8.276692581
 20
-3.362116149
 30
8.420162053
 10
-8.171068698
 20
-3.362079380
 30
8.418793159
 10
-8.069334115
 20
-3.364746318
 30
8.403686553
  0
SPLINE
  5
A87
330
A02
100
AcDbEntity
  8
refine001
100
AcDbSpline
210
0
220
0
230
1
 70
8
 71
1
 72
4
 73
2
 74
0
 40
-0.150205559
 40
-0.150205559
 40
10.318425464
 40
10.318425464
 10
-8.084188410
 20
6.908004984
 30
6.388358002
 10
-8.069334115
 20
-3.364746318
 30
8.403686553
  0
SPLINE
  5
A88
330
A02
100
AcDbEntity
  8
refine001
100
AcDbSpline
210
0
220
0
230
1
 70
8
 71
3
 72
11
 73
7
 74
0
 40
0.000000000
 40
0.000000000
 40
0.000000000
 40
0.000000000
 40
0.319843438
 40
0.319843438
 40
0.319843438
 40
0.639686876
 40
0.639686876
 40
0.639686876
 40
0.639686876
 10
-8.084188410
 20
6.908004984
 30
6.388358002
 10
-8.186456690
 20
6.910353968
 30
6.402998609
 10
-8.289270165
 20
6.910643339
 30
6.407129923
 10
-8.368881528
 20
6.901504372
 30
6.362490390
 10
-8.450047345
 20
6.892906154
 30
6.320653805
 10
-8.501996904
 20
6.875573641
 30
6.233437511
 10
-8.544507632
 20
6.857279084
 30
6.141062516
  0
SPLINE
  5
A89
330
A02
100
AcDbEntity
  8
refine001
100
AcDbSpline
210
0
220
0
230
1
 70
8
 71
2
 72
6
 73
3
 74
0
 40
-0.123088814
 40
-0.123088814
 40
-0.123088814
 40
10.345542194
 40
10.345542194
 40
10.345542194
 10
8.516441855
 20
-3.419512251
 30
8.130821649
 10
8.528118127
 20
1.718332974
 30
7.131901364
 10
8.546464345
 20
6.857279086
 30
6.141062550
  0
SPLINE
  5
A8A
330
A02
100
AcDbEntity
  8
refine001
100
AcDbSpline
210
0
220
0
230
1
 70
8
 71
3
 72
11
 73
7
 74
0
 40
0.000000000
 40
0.000000000
 40
0.000000000
 40
0.000000000
 40
0.319843438
 40
0.319843438
 40
0.319843438
 40
0.639686876
 40
0.639686876
 40
0.639686876
 40
0.639686876
 10
8.546464345
 20
6.857279086
 30
6.141062550
 10
8.503953605
 20
6.875573643
 30
6.233437536
 10
8.452004041
 20
6.892906156
 30
6.320653820
 10
8.370838229
 20
6.901504373
 30
6.362490398
 10
8.291226872
 20
6.910643340
 30
6.407129925
 10
8.188413406
 20
6.910353971
 30
6.402998610
 10
8.086145129
 20
6.908004989
 30
6.388358005
  0
SPLINE
  5
A8B
330
A02
100
AcDbEntity
  8
refine001
100
AcDbSpline
210
0
220
0
230
1
 70
8
 71
1
 72
4
 73
2
 74
0
 40
-0.123088814
 40
-0.123088814
 40
10.345542194
 40
10.345542194
 10
8.071290811
 20
-3.364746312
 30
8.403686552
 10
8.086145129
 20
6.908004989
 30
6.388358005
  0
SPLINE
  5
A8C
330
A02
100
AcDbEntity
  8
refine001
100
AcDbSpline
210
0
220
0
230
1
 70
8
 71
3
 72
11
 73
7
 74
0
 40
0.000000000
 40
0.000000000
 40
0.000000000
 40
0.000000000
 40
0.319843438
 40
0.319843438
 40
0.319843438
 40
0.639686876
 40
0.639686876
 40
0.639686876
 40
0.639686876
 10
8.071290811
 20
-3.364746312
 30
8.403686552
 10
8.173025394
 20
-3.362079376
 30
8.418793159
 10
8.278649277
 20
-3.362116146
 30
8.420162054
 10
8.358647952
 20
-3.372362154
 30
8.369063936
 10
8.440497990
 20
-3.382041250
 30
8.320885575
 10
8.485654741
 20
-3.400547278
 30
8.227130176
 10
8.516441855
 20
-3.419512251
 30
8.130821649
  0
SPLINE
  5
A8D
330
A02
100
AcDbEntity
  8
refine001
100
AcDbSpline
210
0
220
0
230
1
 70
8
 71
3
 72
8
 73
4
 74
0
 40
-0.217948331
 40
-0.217948331
 40
-0.217948331
 40
-0.217948331
 40
12.677761966
 40
12.677761966
 40
12.677761966
 40
12.677761966
 10
-6.393800571
 20
8.514478221
 30
5.878333314
 10
-2.145473893
 20
8.529971699
 30
5.443660962
 10
2.147430588
 20
8.529971699
 30
5.443660962
 10
6.395757266
 20
8.514478221
 30
5.878333315
  0
SPLINE
  5
A8E
330
A02
100
AcDbEntity
  8
refine001
100
AcDbSpline
210
0
220
0
230
1
 70
8
 71
3
 72
11
 73
7
 74
0
 40
0.000000000
 40
0.000000000
 40
0.000000000
 40
0.000000000
 40
0.316632922
 40
0.316632922
 40
0.316632922
 40
0.633265844
 40
0.633265844
 40
0.633265844
 40
0.633265844
 10
6.395757266
 20
8.514478221
 30
5.878333315
 10
6.397886185
 20
8.615971052
 30
5.860999270
 10
6.401396888
 20
8.716295234
 30
5.830099667
 10
6.409032630
 20
8.776368515
 30
5.757433544
 10
6.416450768
 20
8.839056767
 30
5.686987666
 10
6.427069868
 20
8.853958521
 30
5.583560161
 10
6.437540264
 20
8.855210745
 30
5.481116946
  0
SPLINE
  5
A8F
330
A02
100
AcDbEntity
  8
refine001
100
AcDbSpline
210
0
220
0
230
1
 70
8
 71
3
 72
8
 73
4
 74
0
 40
-0.217948331
 40
-0.217948331
 40
-0.217948331
 40
-0.217948331
 40
12.677761966
 40
12.677761966
 40
12.677761966
 40
12.677761966
 10
-6.435583567
 20
8.855210745
 30
5.481116945
 10
-2.159538743
 20
8.870498160
 30
5.043342947
 10
2.161495440
 20
8.870498160
 30
5.043342948
 10
6.437540264
 20
8.855210745
 30
5.481116946
  0
SPLINE
  5
A90
330
A02
100
AcDbEntity
  8
refine001
100
AcDbSpline
210
0
220
0
230
1
 70
8
 71
3
 72
11
 73
7
 74
0
 40
0.000000000
 40
0.000000000
 40
0.000000000
 40
0.000000000
 40
0.316450638
 40
0.316450638
 40
0.316450638
 40
0.632901276
 40
0.632901276
 40
0.632901276
 40
0.632901276
 10
-6.435583567
 20
8.855210745
 30
5.481116945
 10
-6.425113171
 20
8.853958521
 30
5.583560159
 10
-6.414494071
 20
8.839056767
 30
5.686987665
 10
-6.407075933
 20
8.776368515
 30
5.757433542
 10
-6.399440192
 20
8.716295234
 30
5.830099666
 10
-6.395929489
 20
8.615971052
 30
5.860999269
 10
-6.393800571
 20
8.514478221
 30
5.878333314
  0
SPLINE
  5
A91
330
A02
100
AcDbEntity
  8
refine001
100
AcDbSpline
210
0
220
0
230
1
 70
8
 71
3
 72
8
 73
4
 74
0
 40
-0.123992553
 40
-0.123992553
 40
-0.123992553
 40
-0.123992553
 40
12.956202163
 40
12.956202163
 40
12.956202163
 40
12.956202163
 10
6.487458692
 20
-5.005221877
 30
8.542544606
 10
2.178448288
 20
-5.182321762
 30
8.133192560
 10
-2.176491591
 20
-5.182321762
 30
8.133192560
 10
-6.485501995
 20
-5.005221878
 30
8.542544605
  0
SPLINE
  5
A92
330
A02
100
AcDbEntity
  8
refine001
100
AcDbSpline
210
0
220
0
230
1
 70
8
 71
3
 72
11
 73
7
 74
0
 40
0.000000000
 40
0.000000000
 40
0.000000000
 40
0.000000000
 40
0.317788587
 40
0.317788587
 40
0.317788587
 40
0.635577173
 40
0.635577173
 40
0.635577173
 40
0.635577173
 10
-6.485501995
 20
-5.005221878
 30
8.542544605
 10
-6.487492800
 20
-5.105662865
 30
8.564939437
 10
-6.490943156
 20
-5.210617506
 30
8.573907657
 10
-6.498664445
 20
-5.293809040
 30
8.528487886
 10
-6.506161587
 20
-5.378619890
 30
8.486128516
 10
-6.516934062
 20
-5.430676856
 30
8.395123756
 10
-6.527517139
 20
-5.469044018
 30
8.300203451
  0
SPLINE
  5
A93
330
A02
100
AcDbEntity
  8
refine001
100
AcDbSpline
210
0
220
0
230
1
 70
8
 71
3
 72
8
 73
4
 74
0
 40
-0.123992553
 40
-0.123992553
 40
-0.123992553
 40
-0.123992553
 40
12.956202163
 40
12.956202163
 40
12.956202163
 40
12.956202163
 10
6.529473836
 20
-5.469044018
 30
8.300203452
 10
2.192590580
 20
-5.647109777
 30
7.887859241
 10
-2.190633883
 20
-5.647109777
 30
7.887859241
 10
-6.527517139
 20
-5.469044018
 30
8.300203451
  0
SPLINE
  5
A94
330
A02
100
AcDbEntity
  8
refine001
100
AcDbSpline
210
0
220
0
230
1
 70
8
 71
3
 72
11
 73
7
 74
0
 40
0.000000000
 40
0.000000000
 40
0.000000000
 40
0.000000000
 40
0.317788587
 40
0.317788587
 40
0.317788587
 40
0.635577173
 40
0.635577173
 40
0.635577173
 40
0.635577173
 10
6.529473836
 20
-5.469044018
 30
8.300203452
 10
6.518890759
 20
-5.430676855
 30
8.395123757
 10
6.508118284
 20
-5.378619890
 30
8.486128517
 10
6.500621142
 20
-5.293809040
 30
8.528487887
 10
6.492899853
 20
-5.210617505
 30
8.573907658
 10
6.489449496
 20
-5.105662864
 30
8.564939438
 10
6.487458692
 20
-5.005221877
 30
8.542544606
  0
SPLINE
  5
A95
330
A02
100
AcDbEntity
  8
refine001
100
AcDbSpline
210
0
220
0
230
1
 70
8
 71
3
 72
23
 73
19
 74
0
 40
0.217797582
 40
0.217797582
 40
0.217797582
 40
0.217797582
 40
1.028447985
 40
1.028447985
 40
1.028447985
 40
1.362329101
 40
1.362329101
 40
1.362329101
 40
1.667412675
 40
1.667412675
 40
1.667412675
 40
1.965486584
 40
1.965486584
 40
1.965486584
 40
2.280579775
 40
2.280579775
 40
2.280579775
 40
3.026606956
 40
3.026606956
 40
3.026606956
 40
3.026606956
 10
6.437540264
 20
8.855210745
 30
5.481116946
 10
6.705961777
 20
8.852917635
 30
5.508731213
 10
6.999169784
 20
8.857270105
 30
5.547768636
 10
7.318616666
 20
8.789662730
 30
5.611136035
 10
7.450825587
 20
8.763141537
 30
5.637234937
 10
7.584519862
 20
8.717919575
 30
5.667577553
 10
7.719699491
 20
8.653996843
 30
5.702163881
 10
7.844924456
 20
8.594015941
 30
5.734416912
 10
7.961819132
 20
8.513534069
 30
5.768386668
 10
8.070383518
 20
8.412551229
 30
5.804073147
 10
8.175167591
 20
8.311110156
 30
5.838904705
 10
8.261481195
 20
8.197850313
 30
5.871838512
 10
8.329324330
 20
8.072771700
 30
5.902874569
 10
8.398223195
 20
7.941853350
 30
5.934856757
 10
8.447512155
 20
7.811305054
 30
5.963419093
 10
8.477191212
 20
7.681126810
 30
5.988561578
 10
8.550072480
 20
7.376105580
 30
6.048358283
 10
8.546004405
 20
7.100974557
 30
6.093725132
 10
8.546464345
 20
6.857279086
 30
6.141062550
  0
SPLINE
  5
A96
330
A02
100
AcDbEntity
  8
refine001
100
AcDbSpline
210
0
220
0
230
1
 70
8
 71
3
 72
11
 73
7
 74
0
 40
0.000000000
 40
0.000000000
 40
0.000000000
 40
0.000000000
 40
0.319843438
 40
0.319843438
 40
0.319843438
 40
0.639686876
 40
0.639686876
 40
0.639686876
 40
0.639686876
 10
8.546464345
 20
6.857279086
 30
6.141062550
 10
8.503953605
 20
6.875573643
 30
6.233437536
 10
8.452004041
 20
6.892906156
 30
6.320653820
 10
8.370838229
 20
6.901504373
 30
6.362490398
 10
8.291226872
 20
6.910643340
 30
6.407129925
 10
8.188413406
 20
6.910353971
 30
6.402998610
 10
8.086145129
 20
6.908004989
 30
6.388358005
  0
SPLINE
  5
A97
330
A02
100
AcDbEntity
  8
refine001
100
AcDbSpline
210
0
220
0
230
1
 70
8
 71
3
 72
17
 73
13
 74
0
 40
0.217797582
 40
0.217797582
 40
0.217797582
 40
0.217797582
 40
1.028447985
 40
1.028447985
 40
1.028447985
 40
1.667412675
 40
1.667412675
 40
1.667412675
 40
2.280579775
 40
2.280579775
 40
2.280579775
 40
3.026606956
 40
3.026606956
 40
3.026606956
 40
3.026606956
 10
6.395757266
 20
8.514478221
 30
5.878333315
 10
6.661986590
 20
8.513230217
 30
5.905589238
 10
6.931604219
 20
8.505589770
 30
5.936236819
 10
7.188099676
 20
8.438413584
 30
5.978741729
 10
7.389446468
 20
8.386219129
 30
6.011975458
 10
7.581267048
 20
8.291760932
 30
6.053507582
 10
7.728797831
 20
8.145545443
 30
6.100376041
 10
7.871290137
 20
8.006160888
 30
6.145280644
 10
7.966566616
 20
7.824322216
 30
6.193133690
 10
8.017582992
 20
7.632340373
 30
6.237334614
 10
8.080844375
 20
7.397893647
 30
6.291455672
 10
8.086477201
 20
7.151367688
 30
6.340619919
 10
8.086145129
 20
6.908004989
 30
6.388358005
  0
SPLINE
  5
A98
330
A02
100
AcDbEntity
  8
refine001
100
AcDbSpline
210
0
220
0
230
1
 70
8
 71
3
 72
11
 73
7
 74
0
 40
0.000000000
 40
0.000000000
 40
0.000000000
 40
0.000000000
 40
0.316632922
 40
0.316632922
 40
0.316632922
 40
0.633265844
 40
0.633265844
 40
0.633265844
 40
0.633265844
 10
6.395757266
 20
8.514478221
 30
5.878333315
 10
6.397886185
 20
8.615971052
 30
5.860999270
 10
6.401396888
 20
8.716295234
 30
5.830099667
 10
6.409032630
 20
8.776368515
 30
5.757433544
 10
6.416450768
 20
8.839056767
 30
5.686987666
 10
6.427069868
 20
8.853958521
 30
5.583560161
 10
6.437540264
 20
8.855210745
 30
5.481116946
  0
SPLINE
  5
A99
330
A02
100
AcDbEntity
  8
refine001
100
AcDbSpline
210
0
220
0
230
1
 70
8
 71
3
 72
23
 73
19
 74
0
 40
0.150203477
 40
0.150203477
 40
0.150203477
 40
0.150203477
 40
0.896230791
 40
0.896230791
 40
0.896230791
 40
1.211324020
 40
1.211324020
 40
1.211324020
 40
1.509397945
 40
1.509397945
 40
1.509397945
 40
1.814481509
 40
1.814481509
 40
1.814481509
 40
2.148362588
 40
2.148362588
 40
2.148362588
 40
2.959012856
 40
2.959012856
 40
2.959012856
 40
2.959012856
 10
-8.544507632
 20
6.857279084
 30
6.141062516
 10
-8.544047765
 20
7.100974612
 30
6.093725161
 10
-8.548115800
 20
7.376105682
 30
6.048358266
 10
-8.475234499
 20
7.681126977
 30
5.988561554
 10
-8.445555425
 20
7.811305241
 30
5.963419063
 10
-8.396266438
 20
7.941853554
 30
5.934856719
 10
-8.327367540
 20
8.072771915
 30
5.902874523
 10
-8.259524374
 20
8.197850528
 30
5.871838460
 10
-8.173210741
 20
8.311110363
 30
5.838904648
 10
-8.068426642
 20
8.412551419
 30
5.804073087
 10
-7.959862241
 20
8.513534231
 30
5.768386609
 10
-7.842967558
 20
8.594016075
 30
5.734416856
 10
-7.717742594
 20
8.653996949
 30
5.702163829
 10
-7.582562977
 20
8.717919649
 30
5.667577509
 10
-7.448868717
 20
8.763141589
 30
5.637234900
 10
-7.316659815
 20
8.789662767
 30
5.611136004
 10
-6.997212991
 20
8.857270104
 30
5.547768622
 10
-6.704005037
 20
8.852917636
 30
5.508731210
 10
-6.435583567
 20
8.855210745
 30
5.481116945
  0
SPLINE
  5
A9A
330
A02
100
AcDbEntity
  8
refine001
100
AcDbSpline
210
0
220
0
230
1
 70
8
 71
3
 72
11
 73
7
 74
0
 40
0.000000000
 40
0.000000000
 40
0.000000000
 40
0.000000000
 40
0.316450638
 40
0.316450638
 40
0.316450638
 40
0.632901276
 40
0.632901276
 40
0.632901276
 40
0.632901276
 10
-6.435583567
 20
8.855210745
 30
5.481116945
 10
-6.425113171
 20
8.853958521
 30
5.583560159
 10
-6.414494071
 20
8.839056767
 30
5.686987665
 10
-6.407075933
 20
8.776368515
 30
5.757433542
 10
-6.399440192
 20
8.716295234
 30
5.830099666
 10
-6.395929489
 20
8.615971052
 30
5.860999269
 10
-6.393800571
 20
8.514478221
 30
5.878333314
  0
SPLINE
  5
A9B
330
A02
100
AcDbEntity
  8
refine001
100
AcDbSpline
210
0
220
0
230
1
 70
8
 71
3
 72
17
 73
13
 74
0
 40
0.150203477
 40
0.150203477
 40
0.150203477
 40
0.150203477
 40
0.896230791
 40
0.896230791
 40
0.896230791
 40
1.509397945
 40
1.509397945
 40
1.509397945
 40
2.148362588
 40
2.148362588
 40
2.148362588
 40
2.959012856
 40
2.959012856
 40
2.959012856
 40
2.959012856
 10
-8.084188410
 20
6.908004984
 30
6.388358002
 10
-8.084520529
 20
7.151367734
 30
6.340619913
 10
-8.078887676
 20
7.397893733
 30
6.291455655
 10
-8.015626267
 20
7.632340497
 30
6.237334586
 10
-7.964609870
 20
7.824322353
 30
6.193133656
 10
-7.869333354
 20
8.006161029
 30
6.145280604
 10
-7.726841010
 20
8.145545570
 30
6.100375999
 10
-7.579310212
 20
8.291761022
 30
6.053507546
 10
-7.387489635
 20
8.386219184
 30
6.011975429
 10
-7.186142852
 20
8.438413619
 30
5.978741706
 10
-6.929647433
 20
8.505589773
 30
5.936236808
 10
-6.660029850
 20
8.513230218
 30
5.905589234
 10
-6.393800571
 20
8.514478221
 30
5.878333314
  0
SPLINE
  5
A9C
330
A02
100
AcDbEntity
  8
refine001
100
AcDbSpline
210
0
220
0
230
1
 70
8
 71
3
 72
11
 73
7
 74
0
 40
0.000000000
 40
0.000000000
 40
0.000000000
 40
0.000000000
 40
0.319843438
 40
0.319843438
 40
0.319843438
 40
0.639686876
 40
0.639686876
 40
0.639686876
 40
0.639686876
 10
-8.084188410
 20
6.908004984
 30
6.388358002
 10
-8.186456690
 20
6.910353968
 30
6.402998609
 10
-8.289270165
 20
6.910643339
 30
6.407129923
 10
-8.368881528
 20
6.901504372
 30
6.362490390
 10
-8.450047345
 20
6.892906154
 30
6.320653805
 10
-8.501996904
 20
6.875573641
 30
6.233437511
 10
-8.544507632
 20
6.857279084
 30
6.141062516
  0
SPLINE
  5
A9D
330
A02
100
AcDbEntity
  8
refine001
100
AcDbSpline
210
0
220
0
230
1
 70
8
 71
3
 72
17
 73
13
 74
0
 40
0.123095338
 40
0.123095338
 40
0.123095338
 40
0.123095338
 40
0.850560682
 40
0.850560682
 40
0.850560682
 40
1.458671481
 40
1.458671481
 40
1.458671481
 40
2.068033644
 40
2.068033644
 40
2.068033644
 40
2.800397358
 40
2.800397358
 40
2.800397358
 40
2.800397358
 10
8.516441855
 20
-3.419512251
 30
8.130821649
 10
8.514334723
 20
-3.656402759
 30
8.176432320
 10
8.517513879
 20
-3.926284233
 30
8.235577717
 10
8.444884544
 20
-4.219346740
 30
8.291140227
 10
8.386904614
 20
-4.462925464
 30
8.337755934
 10
8.263265898
 20
-4.729206368
 30
8.381082305
 10
8.058238304
 20
-4.941208906
 30
8.397417062
 10
7.854307024
 20
-5.155162839
 30
8.414450474
 10
7.589367727
 20
-5.293101417
 30
8.402952368
 10
7.343787401
 20
-5.362494549
 30
8.381938683
 10
7.046280018
 20
-5.448447991
 30
8.356831392
 10
6.771576649
 20
-5.458162760
 30
8.322866732
 10
6.529473836
 20
-5.469044018
 30
8.300203452
  0
SPLINE
  5
A9E
330
A02
100
AcDbEntity
  8
refine001
100
AcDbSpline
210
0
220
0
230
1
 70
8
 71
3
 72
11
 73
7
 74
0
 40
0.000000000
 40
0.000000000
 40
0.000000000
 40
0.000000000
 40
0.317788587
 40
0.317788587
 40
0.317788587
 40
0.635577173
 40
0.635577173
 40
0.635577173
 40
0.635577173
 10
6.529473836
 20
-5.469044018
 30
8.300203452
 10
6.518890759
 20
-5.430676855
 30
8.395123757
 10
6.508118284
 20
-5.378619890
 30
8.486128517
 10
6.500621142
 20
-5.293809040
 30
8.528487887
 10
6.492899853
 20
-5.210617505
 30
8.573907658
 10
6.489449496
 20
-5.105662864
 30
8.564939438
 10
6.487458692
 20
-5.005221877
 30
8.542544606
  0
SPLINE
  5
A9F
330
A02
100
AcDbEntity
  8
refine001
100
AcDbSpline
210
0
220
0
230
1
 70
8
 71
3
 72
17
 73
13
 74
0
 40
0.123095338
 40
0.123095338
 40
0.123095338
 40
0.123095338
 40
0.850560682
 40
0.850560682
 40
0.850560682
 40
1.458671481
 40
1.458671481
 40
1.458671481
 40
2.068033644
 40
2.068033644
 40
2.068033644
 40
2.800397358
 40
2.800397358
 40
2.800397358
 40
2.800397358
 10
8.071290811
 20
-3.364746312
 30
8.403686552
 10
8.071161518
 20
-3.601511053
 30
8.450177171
 10
8.065029051
 20
-3.843498942
 30
8.496864228
 10
8.002935668
 20
-4.074441421
 30
8.534305305
 10
7.951895111
 20
-4.267568376
 30
8.565735431
 10
7.857734463
 20
-4.452628975
 30
8.590092139
 10
7.717228742
 20
-4.597990864
 30
8.601377225
 10
7.577290510
 20
-4.744762585
 30
8.613004171
 10
7.395588531
 20
-4.847163356
 30
8.611340807
 10
7.203469075
 20
-4.906541750
 30
8.601021144
 10
6.971757323
 20
-4.979212584
 30
8.588753339
 10
6.728040288
 20
-4.995413441
 30
8.565383746
 10
6.487458692
 20
-5.005221877
 30
8.542544606
  0
SPLINE
  5
AA0
330
A02
100
AcDbEntity
  8
refine001
100
AcDbSpline
210
0
220
0
230
1
 70
8
 71
3
 72
11
 73
7
 74
0
 40
0.000000000
 40
0.000000000
 40
0.000000000
 40
0.000000000
 40
0.319843438
 40
0.319843438
 40
0.319843438
 40
0.639686876
 40
0.639686876
 40
0.639686876
 40
0.639686876
 10
8.071290811
 20
-3.364746312
 30
8.403686552
 10
8.173025394
 20
-3.362079376
 30
8.418793159
 10
8.278649277
 20
-3.362116146
 30
8.420162054
 10
8.358647952
 20
-3.372362154
 30
8.369063936
 10
8.440497990
 20
-3.382041250
 30
8.320885575
 10
8.485654741
 20
-3.400547278
 30
8.227130176
 10
8.516441855
 20
-3.419512251
 30
8.130821649
  0
SPLINE
  5
AA1
330
A02
100
AcDbEntity
  8
refine001
100
AcDbSpline
210
0
220
0
230
1
 70
8
 71
3
 72
17
 73
13
 74
0
 40
0.123968568
 40
0.123968568
 40
0.123968568
 40
0.123968568
 40
0.856332179
 40
0.856332179
 40
0.856332179
 40
1.465694292
 40
1.465694292
 40
1.465694292
 40
2.073805136
 40
2.073805136
 40
2.073805136
 40
2.801270595
 40
2.801270595
 40
2.801270595
 40
2.801270595
 10
-6.527517139
 20
-5.469044018
 30
8.300203451
 10
-6.769619437
 20
-5.458162351
 30
8.322866521
 10
-7.044314519
 20
-5.448440524
 30
8.356827579
 10
-7.341842841
 20
-5.362505091
 30
8.381944016
 10
-7.587333273
 20
-5.293035009
 30
8.402918540
 10
-7.852382319
 20
-5.155190500
 30
8.414464487
 10
-8.056323403
 20
-4.941244999
 30
8.397435354
 10
-8.261066266
 20
-4.728998559
 30
8.380976512
 10
-8.385002158
 20
-4.462972124
 30
8.337779621
 10
-8.443083669
 20
-4.219480362
 30
8.291208168
 10
-8.514752208
 20
-3.925589519
 30
8.235229727
 10
-8.512989952
 20
-3.656941765
 30
8.176691241
 10
-8.514485160
 20
-3.419512247
 30
8.130821661
  0
SPLINE
  5
AA2
330
A02
100
AcDbEntity
  8
refine001
100
AcDbSpline
210
0
220
0
230
1
 70
8
 71
3
 72
11
 73
7
 74
0
 40
0.000000000
 40
0.000000000
 40
0.000000000
 40
0.000000000
 40
0.319843438
 40
0.319843438
 40
0.319843438
 40
0.639686876
 40
0.639686876
 40
0.639686876
 40
0.639686876
 10
-8.514485160
 20
-3.419512247
 30
8.130821661
 10
-8.483698043
 20
-3.400547275
 30
8.227130182
 10
-8.438541292
 20
-3.382041249
 30
8.320885577
 10
-8.356691255
 20
-3.372362155
 30
8.369063936
 10
-8.276692581
 20
-3.362116149
 30
8.420162053
 10
-8.171068698
 20
-3.362079380
 30
8.418793159
 10
-8.069334115
 20
-3.364746318
 30
8.403686553
  0
SPLINE
  5
AA3
330
A02
100
AcDbEntity
  8
refine001
100
AcDbSpline
210
0
220
0
230
1
 70
8
 71
3
 72
17
 73
13
 74
0
 40
0.123968568
 40
0.123968568
 40
0.123968568
 40
0.123968568
 40
0.856332179
 40
0.856332179
 40
0.856332179
 40
1.465694292
 40
1.465694292
 40
1.465694292
 40
2.073805136
 40
2.073805136
 40
2.073805136
 40
2.801270595
 40
2.801270595
 40
2.801270595
 40
2.801270595
 10
-6.485501995
 20
-5.005221878
 30
8.542544605
 10
-6.726083615
 20
-4.995413033
 30
8.565383674
 10
-6.969801596
 20
-4.979205135
 30
8.588752094
 10
-7.201510821
 20
-4.906552264
 30
8.601022877
 10
-7.393640960
 20
-4.847097076
 30
8.611329796
 10
-7.575329872
 20
-4.744790156
 30
8.613008734
 10
-7.715266949
 20
-4.598026832
 30
8.601383183
 10
-7.855806595
 20
-4.452421547
 30
8.590057713
 10
-7.949931911
 20
-4.267614899
 30
8.565743149
 10
-8.000960400
 20
-4.074574736
 30
8.534327427
 10
-8.063171940
 20
-3.842806119
 30
8.496749655
 10
-8.069121461
 20
-3.602047697
 30
8.450265125
 10
-8.069334115
 20
-3.364746318
 30
8.403686553
  0
SPLINE
  5
AA4
330
A02
100
AcDbEntity
  8
refine001
100
AcDbSpline
210
0
220
0
230
1
 70
8
 71
3
 72
11
 73
7
 74
0
 40
0.000000000
 40
0.000000000
 40
0.000000000
 40
0.000000000
 40
0.317788587
 40
0.317788587
 40
0.317788587
 40
0.635577173
 40
0.635577173
 40
0.635577173
 40
0.635577173
 10
-6.485501995
 20
-5.005221878
 30
8.542544605
 10
-6.487492800
 20
-5.105662865
 30
8.564939437
 10
-6.490943156
 20
-5.210617506
 30
8.573907657
 10
-6.498664445
 20
-5.293809040
 30
8.528487886
 10
-6.506161587
 20
-5.378619890
 30
8.486128516
 10
-6.516934062
 20
-5.430676856
 30
8.395123756
 10
-6.527517139
 20
-5.469044018
 30
8.300203451
  0
SPLINE
  5
AA5
330
A02
100
AcDbEntity
  8
refine001
100
AcDbSpline
210
0
220
0
230
1
 70
8
 71
1
 72
4
 73
2
 74
0
 40
0.300000000
 40
0.300000000
 40
8.563155504
 40
8.563155504
 10
-0.499021659
 20
1.996031156
 30
1.300000000
 10
-0.499021659
 20
1.996031147
 30
5.866430004
  0
SPLINE
  5
AA6
330
A02
100
AcDbEntity
  8
refine001
100
AcDbSpline
210
0
220
0
230
1
 70
8
 71
1
 72
4
 73
2
 74
0
 40
0.000000000
 40
0.000000000
 40
1.000000000
 40
1.000000000
 10
-0.499021659
 20
1.996031156
 30
1.300000000
 10
0.500978341
 20
1.996031156
 30
1.300000000
  0
SPLINE
  5
AA7
330
A02
100
AcDbEntity
  8
refine001
100
AcDbSpline
210
0
220
0
230
1
 70
8
 71
1
 72
4
 73
2
 74
0
 40
0.300000000
 40
0.300000000
 40
8.563155504
 40
8.563155504
 10
0.500978341
 20
1.996031156
 30
1.300000000
 10
0.500978341
 20
1.996031147
 30
5.866430004
  0
SPLINE
  5
AA8
330
A02
100
AcDbEntity
  8
refine001
100
AcDbSpline
210
0
220
0
230
1
 70
8
 71
1
 72
4
 73
2
 74
0
 40
8.540047870
 40
8.540047870
 40
9.559952130
 40
9.559952130
 10
-0.499021659
 20
1.996031147
 30
5.866430004
 10
0.500978341
 20
1.996031147
 30
5.866430004
  0
SPLINE
  5
AA9
330
A02
100
AcDbEntity
  8
refine001
100
AcDbSpline
210
0
220
0
230
1
 70
8
 71
1
 72
4
 73
2
 74
0
 40
0.300000000
 40
0.300000000
 40
8.563155504
 40
8.563155504
 10
0.500978341
 20
1.996031156
 30
1.300000000
 10
0.500978341
 20
1.996031147
 30
5.866430004
  0
SPLINE
  5
AAA
330
A02
100
AcDbEntity
  8
refine001
100
AcDbSpline
210
0
220
0
230
1
 70
8
 71
1
 72
4
 73
2
 74
0
 40
0.000000000
 40
0.000000000
 40
1.500000000
 40
1.500000000
 10
0.500978341
 20
1.996031156
 30
1.300000000
 10
0.500978341
 20
0.496031156
 30
1.300000000
  0
SPLINE
  5
AAB
330
A02
100
AcDbEntity
  8
refine001
100
AcDbSpline
210
0
220
0
230
1
 70
8
 71
1
 72
4
 73
2
 74
0
 40
0.300000000
 40
0.300000000
 40
9.127181428
 40
9.127181428
 10
0.500978341
 20
0.496031156
 30
1.300000000
 10
0.500978341
 20
0.496031147
 30
6.160982348
  0
SPLINE
  5
AAC
330
A02
100
AcDbEntity
  8
refine001
100
AcDbSpline
210
0
220
0
230
1
 70
8
 71
1
 72
4
 73
2
 74
0
 40
0.000000004
 40
0.000000004
 40
1.528646824
 40
1.528646824
 10
0.500978341
 20
1.996031147
 30
5.866430004
 10
0.500978341
 20
0.496031147
 30
6.160982348
  0
SPLINE
  5
AAD
330
A02
100
AcDbEntity
  8
refine001
100
AcDbSpline
210
0
220
0
230
1
 70
8
 71
1
 72
4
 73
2
 74
0
 40
0.300000000
 40
0.300000000
 40
9.127181428
 40
9.127181428
 10
0.500978341
 20
0.496031156
 30
1.300000000
 10
0.500978341
 20
0.496031147
 30
6.160982348
  0
SPLINE
  5
AAE
330
A02
100
AcDbEntity
  8
refine001
100
AcDbSpline
210
0
220
0
230
1
 70
8
 71
1
 72
4
 73
2
 74
0
 40
0.000000000
 40
0.000000000
 40
1.500000000
 40
1.500000000
 10
0.500978341
 20
0.496031156
 30
1.300000000
 10
2.000978341
 20
0.496031156
 30
1.300000000
  0
SPLINE
  5
AAF
330
A02
100
AcDbEntity
  8
refine001
100
AcDbSpline
210
0
220
0
230
1
 70
8
 71
1
 72
4
 73
2
 74
0
 40
0.300000000
 40
0.300000000
 40
9.127181428
 40
9.127181428
 10
2.000978341
 20
0.496031156
 30
1.300000000
 10
2.000978341
 20
0.496031147
 30
6.160982348
  0
SPLINE
  5
AB0
330
A02
100
AcDbEntity
  8
refine001
100
AcDbSpline
210
0
220
0
230
1
 70
8
 71
1
 72
4
 73
2
 74
0
 40
-0.750000000
 40
-0.750000000
 40
0.750000000
 40
0.750000000
 10
0.500978341
 20
0.496031147
 30
6.160982348
 10
2.000978341
 20
0.496031147
 30
6.160982348
  0
SPLINE
  5
AB1
330
A02
100
AcDbEntity
  8
refine001
100
AcDbSpline
210
0
220
0
230
1
 70
8
 71
1
 72
4
 73
2
 74
0
 40
0.300000000
 40
0.300000000
 40
9.127181428
 40
9.127181428
 10
2.000978341
 20
0.496031156
 30
1.300000000
 10
2.000978341
 20
0.496031147
 30
6.160982348
  0
SPLINE
  5
AB2
330
A02
100
AcDbEntity
  8
refine001
100
AcDbSpline
210
0
220
0
230
1
 70
8
 71
1
 72
4
 73
2
 74
0
 40
0.000000000
 40
0.000000000
 40
1.000000000
 40
1.000000000
 10
2.000978341
 20
0.496031156
 30
1.300000000
 10
2.000978341
 20
-0.503968844
 30
1.300000000
  0
SPLINE
  5
AB3
330
A02
100
AcDbEntity
  8
refine001
100
AcDbSpline
210
0
220
0
230
1
 70
8
 71
1
 72
4
 73
2
 74
0
 40
0.300000000
 40
0.300000000
 40
9.503458422
 40
9.503458422
 10
2.000978341
 20
-0.503968844
 30
1.300000000
 10
2.000978341
 20
-0.503968854
 30
6.357350578
  0
SPLINE
  5
AB4
330
A02
100
AcDbEntity
  8
refine001
100
AcDbSpline
210
0
220
0
230
1
 70
8
 71
1
 72
4
 73
2
 74
0
 40
0.000000005
 40
0.000000005
 40
1.019097886
 40
1.019097886
 10
2.000978341
 20
0.496031147
 30
6.160982348
 10
2.000978341
 20
-0.503968854
 30
6.357350578
  0
SPLINE
  5
AB5
330
A02
100
AcDbEntity
  8
refine001
100
AcDbSpline
210
0
220
0
230
1
 70
8
 71
1
 72
4
 73
2
 74
0
 40
0.300000000
 40
0.300000000
 40
9.503458422
 40
9.503458422
 10
2.000978341
 20
-0.503968844
 30
1.300000000
 10
2.000978341
 20
-0.503968854
 30
6.357350578
  0
SPLINE
  5
AB6
330
A02
100
AcDbEntity
  8
refine001
100
AcDbSpline
210
0
220
0
230
1
 70
8
 71
1
 72
4
 73
2
 74
0
 40
0.000000000
 40
0.000000000
 40
1.500000000
 40
1.500000000
 10
2.000978341
 20
-0.503968844
 30
1.300000000
 10
0.500978341
 20
-0.503968844
 30
1.300000000
  0
SPLINE
  5
AB7
330
A02
100
AcDbEntity
  8
refine001
100
AcDbSpline
210
0
220
0
230
1
 70
8
 71
1
 72
4
 73
2
 74
0
 40
0.300000000
 40
0.300000000
 40
9.503458421
 40
9.503458421
 10
0.500978341
 20
-0.503968844
 30
1.300000000
 10
0.500978341
 20
-0.503968854
 30
6.357350578
  0
SPLINE
  5
AB8
330
A02
100
AcDbEntity
  8
refine001
100
AcDbSpline
210
0
220
0
230
1
 70
8
 71
1
 72
4
 73
2
 74
0
 40
-0.750000000
 40
-0.750000000
 40
0.750000000
 40
0.750000000
 10
2.000978341
 20
-0.503968854
 30
6.357350578
 10
0.500978341
 20
-0.503968854
 30
6.357350578
  0
SPLINE
  5
AB9
330
A02
100
AcDbEntity
  8
refine001
100
AcDbSpline
210
0
220
0
230
1
 70
8
 71
1
 72
4
 73
2
 74
0
 40
0.300000000
 40
0.300000000
 40
9.503458421
 40
9.503458421
 10
0.500978341
 20
-0.503968844
 30
1.300000000
 10
0.500978341
 20
-0.503968854
 30
6.357350578
  0
SPLINE
  5
ABA
330
A02
100
AcDbEntity
  8
refine001
100
AcDbSpline
210
0
220
0
230
1
 70
8
 71
1
 72
4
 73
2
 74
0
 40
0.000000000
 40
0.000000000
 40
1.500000000
 40
1.500000000
 10
0.500978341
 20
-0.503968844
 30
1.300000000
 10
0.500978341
 20
-2.003968844
 30
1.300000000
  0
SPLINE
  5
ABB
330
A02
100
AcDbEntity
  8
refine001
100
AcDbSpline
210
0
220
0
230
1
 70
8
 71
1
 72
4
 73
2
 74
0
 40
0.300000000
 40
0.300000000
 40
10.068213067
 40
10.068213067
 10
0.500978341
 20
-2.003968844
 30
1.300000000
 10
0.500978341
 20
-2.003968854
 30
6.651902923
  0
SPLINE
  5
ABC
330
A02
100
AcDbEntity
  8
refine001
100
AcDbSpline
210
0
220
0
230
1
 70
8
 71
1
 72
4
 73
2
 74
0
 40
0.000000005
 40
0.000000005
 40
1.528646825
 40
1.528646825
 10
0.500978341
 20
-0.503968854
 30
6.357350578
 10
0.500978341
 20
-2.003968854
 30
6.651902923
  0
SPLINE
  5
ABD
330
A02
100
AcDbEntity
  8
refine001
100
AcDbSpline
210
0
220
0
230
1
 70
8
 71
1
 72
4
 73
2
 74
0
 40
0.300000000
 40
0.300000000
 40
10.068213067
 40
10.068213067
 10
0.500978341
 20
-2.003968844
 30
1.300000000
 10
0.500978341
 20
-2.003968854
 30
6.651902923
  0
SPLINE
  5
ABE
330
A02
100
AcDbEntity
  8
refine001
100
AcDbSpline
210
0
220
0
230
1
 70
8
 71
1
 72
4
 73
2
 74
0
 40
0.000000000
 40
0.000000000
 40
1.000000000
 40
1.000000000
 10
0.500978341
 20
-2.003968844
 30
1.300000000
 10
-0.499021659
 20
-2.003968844
 30
1.300000000
  0
SPLINE
  5
ABF
330
A02
100
AcDbEntity
  8
refine001
100
AcDbSpline
210
0
220
0
230
1
 70
8
 71
1
 72
4
 73
2
 74
0
 40
0.300000000
 40
0.300000000
 40
10.068213067
 40
10.068213067
 10
-0.499021659
 20
-2.003968844
 30
1.300000000
 10
-0.499021659
 20
-2.003968854
 30
6.651902923
  0
SPLINE
  5
AC0
330
A02
100
AcDbEntity
  8
refine001
100
AcDbSpline
210
0
220
0
230
1
 70
8
 71
1
 72
4
 73
2
 74
0
 40
-0.500000000
 40
-0.500000000
 40
0.500000000
 40
0.500000000
 10
0.500978341
 20
-2.003968854
 30
6.651902923
 10
-0.499021659
 20
-2.003968854
 30
6.651902923
  0
SPLINE
  5
AC1
330
A02
100
AcDbEntity
  8
refine001
100
AcDbSpline
210
0
220
0
230
1
 70
8
 71
1
 72
4
 73
2
 74
0
 40
0.300000000
 40
0.300000000
 40
10.068213067
 40
10.068213067
 10
-0.499021659
 20
-2.003968844
 30
1.300000000
 10
-0.499021659
 20
-2.003968854
 30
6.651902923
  0
SPLINE
  5
AC2
330
A02
100
AcDbEntity
  8
refine001
100
AcDbSpline
210
0
220
0
230
1
 70
8
 71
1
 72
4
 73
2
 74
0
 40
0.000000000
 40
0.000000000
 40
1.500000000
 40
1.500000000
 10
-0.499021659
 20
-2.003968844
 30
1.300000000
 10
-0.499021659
 20
-0.503968844
 30
1.300000000
  0
SPLINE
  5
AC3
330
A02
100
AcDbEntity
  8
refine001
100
AcDbSpline
210
0
220
0
230
1
 70
8
 71
1
 72
4
 73
2
 74
0
 40
0.300000000
 40
0.300000000
 40
9.503458421
 40
9.503458421
 10
-0.499021659
 20
-0.503968844
 30
1.300000000
 10
-0.499021659
 20
-0.503968854
 30
6.357350578
  0
SPLINE
  5
AC4
330
A02
100
AcDbEntity
  8
refine001
100
AcDbSpline
210
0
220
0
230
1
 70
8
 71
1
 72
4
 73
2
 74
0
 40
0.000000000
 40
0.000000000
 40
1.528646820
 40
1.528646820
 10
-0.499021659
 20
-2.003968854
 30
6.651902923
 10
-0.499021659
 20
-0.503968854
 30
6.357350578
  0
SPLINE
  5
AC5
330
A02
100
AcDbEntity
  8
refine001
100
AcDbSpline
210
0
220
0
230
1
 70
8
 71
1
 72
4
 73
2
 74
0
 40
0.300000000
 40
0.300000000
 40
9.503458421
 40
9.503458421
 10
-0.499021659
 20
-0.503968844
 30
1.300000000
 10
-0.499021659
 20
-0.503968854
 30
6.357350578
  0
SPLINE
  5
AC6
330
A02
100
AcDbEntity
  8
refine001
100
AcDbSpline
210
0
220
0
230
1
 70
8
 71
1
 72
4
 73
2
 74
0
 40
0.000000000
 40
0.000000000
 40
1.500000000
 40
1.500000000
 10
-0.499021659
 20
-0.503968844
 30
1.300000000
 10
-1.999021659
 20
-0.503968844
 30
1.300000000
  0
SPLINE
  5
AC7
330
A02
100
AcDbEntity
  8
refine001
100
AcDbSpline
210
0
220
0
230
1
 70
8
 71
1
 72
4
 73
2
 74
0
 40
0.300000000
 40
0.300000000
 40
9.503458421
 40
9.503458421
 10
-1.999021659
 20
-0.503968844
 30
1.300000000
 10
-1.999021659
 20
-0.503968854
 30
6.357350578
  0
SPLINE
  5
AC8
330
A02
100
AcDbEntity
  8
refine001
100
AcDbSpline
210
0
220
0
230
1
 70
8
 71
1
 72
4
 73
2
 74
0
 40
-0.750000000
 40
-0.750000000
 40
0.750000000
 40
0.750000000
 10
-0.499021659
 20
-0.503968854
 30
6.357350578
 10
-1.999021659
 20
-0.503968854
 30
6.357350578
  0
SPLINE
  5
AC9
330
A02
100
AcDbEntity
  8
refine001
100
AcDbSpline
210
0
220
0
230
1
 70
8
 71
1
 72
4
 73
2
 74
0
 40
0.300000000
 40
0.300000000
 40
9.503458421
 40
9.503458421
 10
-1.999021659
 20
-0.503968844
 30
1.300000000
 10
-1.999021659
 20
-0.503968854
 30
6.357350578
  0
SPLINE
  5
ACA
330
A02
100
AcDbEntity
  8
refine001
100
AcDbSpline
210
0
220
0
230
1
 70
8
 71
1
 72
4
 73
2
 74
0
 40
0.000000000
 40
0.000000000
 40
1.000000000
 40
1.000000000
 10
-1.999021659
 20
-0.503968844
 30
1.300000000
 10
-1.999021659
 20
0.496031156
 30
1.300000000
  0
SPLINE
  5
ACB
330
A02
100
AcDbEntity
  8
refine001
100
AcDbSpline
210
0
220
0
230
1
 70
8
 71
1
 72
4
 73
2
 74
0
 40
0.300000000
 40
0.300000000
 40
9.127181428
 40
9.127181428
 10
-1.999021659
 20
0.496031156
 30
1.300000000
 10
-1.999021659
 20
0.496031147
 30
6.160982348
  0
SPLINE
  5
ACC
330
A02
100
AcDbEntity
  8
refine001
100
AcDbSpline
210
0
220
0
230
1
 70
8
 71
1
 72
4
 73
2
 74
0
 40
0.000000000
 40
0.000000000
 40
1.019097882
 40
1.019097882
 10
-1.999021659
 20
-0.503968854
 30
6.357350578
 10
-1.999021659
 20
0.496031147
 30
6.160982348
  0
SPLINE
  5
ACD
330
A02
100
AcDbEntity
  8
refine001
100
AcDbSpline
210
0
220
0
230
1
 70
8
 71
1
 72
4
 73
2
 74
0
 40
0.300000000
 40
0.300000000
 40
9.127181428
 40
9.127181428
 10
-1.999021659
 20
0.496031156
 30
1.300000000
 10
-1.999021659
 20
0.496031147
 30
6.160982348
  0
SPLINE
  5
ACE
330
A02
100
AcDbEntity
  8
refine001
100
AcDbSpline
210
0
220
0
230
1
 70
8
 71
1
 72
4
 73
2
 74
0
 40
0.000000000
 40
0.000000000
 40
1.500000000
 40
1.500000000
 10
-1.999021659
 20
0.496031156
 30
1.300000000
 10
-0.499021659
 20
0.496031156
 30
1.300000000
  0
SPLINE
  5
ACF
330
A02
100
AcDbEntity
  8
refine001
100
AcDbSpline
210
0
220
0
230
1
 70
8
 71
1
 72
4
 73
2
 74
0
 40
0.300000000
 40
0.300000000
 40
9.127181428
 40
9.127181428
 10
-0.499021659
 20
0.496031156
 30
1.300000000
 10
-0.499021659
 20
0.496031147
 30
6.160982348
  0
SPLINE
  5
AD0
330
A02
100
AcDbEntity
  8
refine001
100
AcDbSpline
210
0
220
0
230
1
 70
8
 71
1
 72
4
 73
2
 74
0
 40
-0.750000000
 40
-0.750000000
 40
0.750000000
 40
0.750000000
 10
-1.999021659
 20
0.496031147
 30
6.160982348
 10
-0.499021659
 20
0.496031147
 30
6.160982348
  0
SPLINE
  5
AD1
330
A02
100
AcDbEntity
  8
refine001
100
AcDbSpline
210
0
220
0
230
1
 70
8
 71
1
 72
4
 73
2
 74
0
 40
0.300000000
 40
0.300000000
 40
9.127181428
 40
9.127181428
 10
-0.499021659
 20
0.496031156
 30
1.300000000
 10
-0.499021659
 20
0.496031147
 30
6.160982348
  0
SPLINE
  5
AD2
330
A02
100
AcDbEntity
  8
refine001
100
AcDbSpline
210
0
220
0
230
1
 70
8
 71
1
 72
4
 73
2
 74
0
 40
0.000000000
 40
0.000000000
 40
1.500000000
 40
1.500000000
 10
-0.499021659
 20
0.496031156
 30
1.300000000
 10
-0.499021659
 20
1.996031156
 30
1.300000000
  0
SPLINE
  5
AD3
330
A02
100
AcDbEntity
  8
refine001
100
AcDbSpline
210
0
220
0
230
1
 70
8
 71
1
 72
4
 73
2
 74
0
 40
0.300000000
 40
0.300000000
 40
8.563155504
 40
8.563155504
 10
-0.499021659
 20
1.996031156
 30
1.300000000
 10
-0.499021659
 20
1.996031147
 30
5.866430004
  0
SPLINE
  5
AD4
330
A02
100
AcDbEntity
  8
refine001
100
AcDbSpline
210
0
220
0
230
1
 70
8
 71
1
 72
4
 73
2
 74
0
 40
0.000000000
 40
0.000000000
 40
1.528646820
 40
1.528646820
 10
-0.499021659
 20
0.496031147
 30
6.160982348
 10
-0.499021659
 20
1.996031147
 30
5.866430004
  0
SPLINE
  5
AD5
330
A02
100
AcDbEntity
  8
refine001
100
AcDbSpline
210
0
220
0
230
1
 70
8
 71
1
 72
4
 73
2
 74
0
 40
-0.750000000
 40
-0.750000000
 40
0.750000000
 40
0.750000000
 10
-1.999021659
 20
0.496031147
 30
6.160982348
 10
-0.499021659
 20
0.496031147
 30
6.160982348
  0
SPLINE
  5
AD6
330
A02
100
AcDbEntity
  8
refine001
100
AcDbSpline
210
0
220
0
230
1
 70
8
 71
1
 72
4
 73
2
 74
0
 40
0.000000000
 40
0.000000000
 40
1.019097882
 40
1.019097882
 10
-1.999021659
 20
-0.503968854
 30
6.357350578
 10
-1.999021659
 20
0.496031147
 30
6.160982348
  0
SPLINE
  5
AD7
330
A02
100
AcDbEntity
  8
refine001
100
AcDbSpline
210
0
220
0
230
1
 70
8
 71
1
 72
4
 73
2
 74
0
 40
-0.750000000
 40
-0.750000000
 40
0.750000000
 40
0.750000000
 10
-0.499021659
 20
-0.503968854
 30
6.357350578
 10
-1.999021659
 20
-0.503968854
 30
6.357350578
  0
SPLINE
  5
AD8
330
A02
100
AcDbEntity
  8
refine001
100
AcDbSpline
210
0
220
0
230
1
 70
8
 71
1
 72
4
 73
2
 74
0
 40
0.000000000
 40
0.000000000
 40
1.528646820
 40
1.528646820
 10
-0.499021659
 20
-2.003968854
 30
6.651902923
 10
-0.499021659
 20
-0.503968854
 30
6.357350578
  0
SPLINE
  5
AD9
330
A02
100
AcDbEntity
  8
refine001
100
AcDbSpline
210
0
220
0
230
1
 70
8
 71
1
 72
4
 73
2
 74
0
 40
-0.500000000
 40
-0.500000000
 40
0.500000000
 40
0.500000000
 10
0.500978341
 20
-2.003968854
 30
6.651902923
 10
-0.499021659
 20
-2.003968854
 30
6.651902923
  0
SPLINE
  5
ADA
330
A02
100
AcDbEntity
  8
refine001
100
AcDbSpline
210
0
220
0
230
1
 70
8
 71
1
 72
4
 73
2
 74
0
 40
0.000000005
 40
0.000000005
 40
1.528646825
 40
1.528646825
 10
0.500978341
 20
-0.503968854
 30
6.357350578
 10
0.500978341
 20
-2.003968854
 30
6.651902923
  0
SPLINE
  5
ADB
330
A02
100
AcDbEntity
  8
refine001
100
AcDbSpline
210
0
220
0
230
1
 70
8
 71
1
 72
4
 73
2
 74
0
 40
-0.750000000
 40
-0.750000000
 40
0.750000000
 40
0.750000000
 10
2.000978341
 20
-0.503968854
 30
6.357350578
 10
0.500978341
 20
-0.503968854
 30
6.357350578
  0
SPLINE
  5
ADC
330
A02
100
AcDbEntity
  8
refine001
100
AcDbSpline
210
0
220
0
230
1
 70
8
 71
1
 72
4
 73
2
 74
0
 40
0.000000005
 40
0.000000005
 40
1.019097886
 40
1.019097886
 10
2.000978341
 20
0.496031147
 30
6.160982348
 10
2.000978341
 20
-0.503968854
 30
6.357350578
  0
SPLINE
  5
ADD
330
A02
100
AcDbEntity
  8
refine001
100
AcDbSpline
210
0
220
0
230
1
 70
8
 71
1
 72
4
 73
2
 74
0
 40
-0.750000000
 40
-0.750000000
 40
0.750000000
 40
0.750000000
 10
0.500978341
 20
0.496031147
 30
6.160982348
 10
2.000978341
 20
0.496031147
 30
6.160982348
  0
SPLINE
  5
ADE
330
A02
100
AcDbEntity
  8
refine001
100
AcDbSpline
210
0
220
0
230
1
 70
8
 71
1
 72
4
 73
2
 74
0
 40
0.000000004
 40
0.000000004
 40
1.528646824
 40
1.528646824
 10
0.500978341
 20
1.996031147
 30
5.866430004
 10
0.500978341
 20
0.496031147
 30
6.160982348
  0
SPLINE
  5
ADF
330
A02
100
AcDbEntity
  8
refine001
100
AcDbSpline
210
0
220
0
230
1
 70
8
 71
1
 72
4
 73
2
 74
0
 40
8.540047870
 40
8.540047870
 40
9.559952130
 40
9.559952130
 10
-0.499021659
 20
1.996031147
 30
5.866430004
 10
0.500978341
 20
1.996031147
 30
5.866430004
  0
SPLINE
  5
AE0
330
A02
100
AcDbEntity
  8
refine001
100
AcDbSpline
210
0
220
0
230
1
 70
8
 71
1
 72
4
 73
2
 74
0
 40
0.000000000
 40
0.000000000
 40
1.528646820
 40
1.528646820
 10
-0.499021659
 20
0.496031147
 30
6.160982348
 10
-0.499021659
 20
1.996031147
 30
5.866430004
  0
SPLINE
  5
AE1
330
A02
100
AcDbEntity
  8
refine001
100
AcDbSpline
210
0
220
0
230
1
 70
8
 71
1
 72
4
 73
2
 74
0
 40
3.961879854
 40
3.961879854
 40
16.408596541
 40
16.408596541
 10
0.375978341
 20
-5.525404071
 30
4.500000000
 10
0.375978341
 20
-2.727696190
 30
4.500000000
  0
SPLINE
  5
AE2
330
A02
100
AcDbEntity
  8
refine001
100
AcDbSpline
210
0
220
0
230
1
 70
8
 71
1
 72
4
 73
2
 74
0
 40
0.000000000
 40
0.000000000
 40
2.294024939
 40
2.294024939
 10
0.375978341
 20
-2.727696190
 30
4.500000000
 10
0.375978341
 20
-2.727721929
 30
6.794025033
  0
SPLINE
  5
AE3
330
A02
100
AcDbEntity
  8
refine001
100
AcDbSpline
210
0
220
0
230
1
 70
8
 71
1
 72
4
 73
2
 74
0
 40
0.000000000
 40
0.000000000
 40
1.651395831
 40
1.651395831
 10
0.375978341
 20
-4.348170632
 30
7.112229676
 10
0.375978341
 20
-2.727721929
 30
6.794025033
  0
SPLINE
  5
AE4
330
A02
100
AcDbEntity
  8
refine001
100
AcDbSpline
210
0
220
0
230
1
 70
8
 71
1
 72
4
 73
2
 74
0
 40
0.000000000
 40
0.000000000
 40
2.865243873
 40
2.865243873
 10
0.375978341
 20
-5.525404071
 30
4.500000000
 10
0.375978341
 20
-4.348170632
 30
7.112229676
  0
SPLINE
  5
AE5
330
A02
100
AcDbEntity
  8
refine001
100
AcDbSpline
210
0
220
0
230
1
 70
8
 71
1
 72
4
 73
2
 74
0
 40
0.219340189
 40
0.219340189
 40
1.870736026
 40
1.870736026
 10
-0.374021659
 20
-2.727721924
 30
6.794025032
 10
-0.374021659
 20
-4.348170632
 30
7.112229676
  0
SPLINE
  5
AE6
330
A02
100
AcDbEntity
  8
refine001
100
AcDbSpline
210
0
220
0
230
1
 70
8
 71
1
 72
4
 73
2
 74
0
 40
0.142913223
 40
0.142913223
 40
2.436938161
 40
2.436938161
 10
-0.374021659
 20
-2.727721924
 30
6.794025032
 10
-0.374021659
 20
-2.727696186
 30
4.500000000
  0
SPLINE
  5
AE7
330
A02
100
AcDbEntity
  8
refine001
100
AcDbSpline
210
0
220
0
230
1
 70
8
 71
1
 72
4
 73
2
 74
0
 40
19.073437977
 40
19.073437977
 40
31.520154679
 40
31.520154679
 10
-0.374021659
 20
-2.727696186
 30
4.500000000
 10
-0.374021659
 20
-5.525404071
 30
4.500000000
  0
SPLINE
  5
AE8
330
A02
100
AcDbEntity
  8
refine001
100
AcDbSpline
210
0
220
0
230
1
 70
8
 71
1
 72
4
 73
2
 74
0
 40
0.000000000
 40
0.000000000
 40
2.865243873
 40
2.865243873
 10
-0.374021659
 20
-4.348170632
 30
7.112229676
 10
-0.374021659
 20
-5.525404071
 30
4.500000000
  0
SPLINE
  5
AE9
330
A02
100
AcDbEntity
  8
refine001
100
AcDbSpline
210
0
220
0
230
1
 70
8
 71
1
 72
4
 73
2
 74
0
 40
3.961879854
 40
3.961879854
 40
16.408596541
 40
16.408596541
 10
0.375978341
 20
-5.525404071
 30
4.500000000
 10
0.375978341
 20
-2.727696190
 30
4.500000000
  0
SPLINE
  5
AEA
330
A02
100
AcDbEntity
  8
refine001
100
AcDbSpline
210
0
220
0
230
1
 70
8
 71
1
 72
4
 73
2
 74
0
 40
-55.691814593
 40
-55.691814593
 40
-55.008185398
 40
-55.008185398
 10
0.375978341
 20
-5.525404071
 30
4.500000000
 10
-0.374021659
 20
-5.525404071
 30
4.500000000
  0
SPLINE
  5
AEB
330
A02
100
AcDbEntity
  8
refine001
100
AcDbSpline
210
0
220
0
230
1
 70
8
 71
1
 72
4
 73
2
 74
0
 40
19.073437977
 40
19.073437977
 40
31.520154679
 40
31.520154679
 10
-0.374021659
 20
-2.727696186
 30
4.500000000
 10
-0.374021659
 20
-5.525404071
 30
4.500000000
  0
SPLINE
  5
AEC
330
A02
100
AcDbEntity
  8
refine001
100
AcDbSpline
210
0
220
0
230
1
 70
8
 71
2
 72
6
 73
3
 74
0
 40
0.000000000
 40
0.000000000
 40
0.000000000
 40
0.752930714
 40
0.752930714
 40
0.752930714
 10
0.375978341
 20
-2.727696190
 30
4.500000000
 10
0.000978341
 20
-2.779060866
 30
4.500000000
 10
-0.374021659
 20
-2.727696186
 30
4.500000000
  0
SPLINE
  5
AED
330
A02
100
AcDbEntity
  8
refine001
100
AcDbSpline
210
0
220
0
230
1
 70
8
 71
1
 72
4
 73
2
 74
0
 40
-55.691814593
 40
-55.691814593
 40
-55.008185398
 40
-55.008185398
 10
0.375978341
 20
-5.525404071
 30
4.500000000
 10
-0.374021659
 20
-5.525404071
 30
4.500000000
  0
SPLINE
  5
AEE
330
A02
100
AcDbEntity
  8
refine001
100
AcDbSpline
210
0
220
0
230
1
 70
8
 71
1
 72
4
 73
2
 74
0
 40
0.000000000
 40
0.000000000
 40
2.865243873
 40
2.865243873
 10
-0.374021659
 20
-4.348170632
 30
7.112229676
 10
-0.374021659
 20
-5.525404071
 30
4.500000000
  0
SPLINE
  5
AEF
330
A02
100
AcDbEntity
  8
refine001
100
AcDbSpline
210
0
220
0
230
1
 70
8
 71
1
 72
4
 73
2
 74
0
 40
-8.663544370
 40
-8.663544370
 40
-1.500000000
 40
-1.500000000
 10
-0.374021659
 20
-4.348170632
 30
7.112229676
 10
-7.325218546
 20
-4.348170632
 30
7.112229676
  0
SPLINE
  5
AF0
330
A02
100
AcDbEntity
  8
refine001
100
AcDbSpline
210
0
220
0
230
1
 70
8
 71
1
 72
4
 73
2
 74
0
 40
-1.000000000
 40
-1.000000000
 40
0.000000000
 40
0.000000000
 10
-7.325218546
 20
-4.348170632
 30
7.112229676
 10
-9.930271654
 20
-7.553384430
 30
0.000000000
  0
SPLINE
  5
AF1
330
A02
100
AcDbEntity
  8
refine001
100
AcDbSpline
210
0
220
0
230
1
 70
8
 71
1
 72
4
 73
2
 74
0
 40
47.800000000
 40
47.800000000
 40
62.900000000
 40
62.900000000
 10
-9.930271654
 20
-7.553384430
 30
0.000000000
 10
9.932228346
 20
-7.553384430
 30
0.000000000
  0
SPLINE
  5
AF2
330
A02
100
AcDbEntity
  8
refine001
100
AcDbSpline
210
0
220
0
230
1
 70
8
 71
1
 72
4
 73
2
 74
0
 40
0.000000000
 40
0.000000000
 40
1.000000000
 40
1.000000000
 10
9.932228346
 20
-7.553384430
 30
0.000000000
 10
7.327175237
 20
-4.348170632
 30
7.112229676
  0
SPLINE
  5
AF3
330
A02
100
AcDbEntity
  8
refine001
100
AcDbSpline
210
0
220
0
230
1
 70
8
 71
1
 72
4
 73
2
 74
0
 40
-16.600000000
 40
-16.600000000
 40
-9.436455620
 40
-9.436455620
 10
7.327175237
 20
-4.348170632
 30
7.112229676
 10
0.375978341
 20
-4.348170632
 30
7.112229676
  0
SPLINE
  5
AF4
330
A02
100
AcDbEntity
  8
refine001
100
AcDbSpline
210
0
220
0
230
1
 70
8
 71
1
 72
4
 73
2
 74
0
 40
0.000000000
 40
0.000000000
 40
2.865243873
 40
2.865243873
 10
0.375978341
 20
-5.525404071
 30
4.500000000
 10
0.375978341
 20
-4.348170632
 30
7.112229676
  0
SPLINE
  5
AF5
330
A02
100
AcDbEntity
  8
refine001
100
AcDbSpline
210
0
220
0
230
1
 70
8
 71
1
 72
4
 73
2
 74
0
 40
0.267475461
 40
0.267475461
 40
5.013202962
 40
5.013202962
 10
0.375978341
 20
2.720953027
 30
5.724078378
 10
0.375978341
 20
7.377745678
 30
4.809632249
  0
SPLINE
  5
AF6
330
A02
100
AcDbEntity
  8
refine001
100
AcDbSpline
210
0
220
0
230
1
 70
8
 71
1
 72
4
 73
2
 74
0
 40
0.149693465
 40
0.149693465
 40
1.373771937
 40
1.373771937
 10
0.375978341
 20
2.720953027
 30
5.724078378
 10
0.375978341
 20
2.720927291
 30
4.500000000
  0
SPLINE
  5
AF7
330
A02
100
AcDbEntity
  8
refine001
100
AcDbSpline
210
0
220
0
230
1
 70
8
 71
1
 72
4
 73
2
 74
0
 40
1.550199451
 40
1.550199451
 40
15.782489201
 40
15.782489201
 10
0.375978341
 20
2.720927291
 30
4.500000000
 10
0.375978341
 20
7.388617105
 30
4.500000000
  0
SPLINE
  5
AF8
330
A02
100
AcDbEntity
  8
refine001
100
AcDbSpline
210
0
220
0
230
1
 70
8
 71
1
 72
4
 73
2
 74
0
 40
0.000000000
 40
0.000000000
 40
0.309823042
 40
0.309823042
 10
0.375978341
 20
7.377745678
 30
4.809632249
 10
0.375978341
 20
7.388617105
 30
4.500000000
  0
SPLINE
  5
AF9
330
A02
100
AcDbEntity
  8
refine001
100
AcDbSpline
210
0
220
0
230
1
 70
8
 71
1
 72
4
 73
2
 74
0
 40
19.699545333
 40
19.699545333
 40
33.931835080
 40
33.931835080
 10
-0.374021659
 20
7.388617105
 30
4.500000000
 10
-0.374021659
 20
2.720927292
 30
4.500000000
  0
SPLINE
  5
AFA
330
A02
100
AcDbEntity
  8
refine001
100
AcDbSpline
210
0
220
0
230
1
 70
8
 71
1
 72
4
 73
2
 74
0
 40
0.000000000
 40
0.000000000
 40
1.224078471
 40
1.224078471
 10
-0.374021659
 20
2.720927292
 30
4.500000000
 10
-0.374021659
 20
2.720953028
 30
5.724078377
  0
SPLINE
  5
AFB
330
A02
100
AcDbEntity
  8
refine001
100
AcDbSpline
210
0
220
0
230
1
 70
8
 71
1
 72
4
 73
2
 74
0
 40
0.000000000
 40
0.000000000
 40
4.745727500
 40
4.745727500
 10
-0.374021659
 20
7.377745678
 30
4.809632249
 10
-0.374021659
 20
2.720953028
 30
5.724078377
  0
SPLINE
  5
AFC
330
A02
100
AcDbEntity
  8
refine001
100
AcDbSpline
210
0
220
0
230
1
 70
8
 71
1
 72
4
 73
2
 74
0
 40
0.000000000
 40
0.000000000
 40
0.309823042
 40
0.309823042
 10
-0.374021659
 20
7.388617105
 30
4.500000000
 10
-0.374021659
 20
7.377745678
 30
4.809632249
  0
SPLINE
  5
AFD
330
A02
100
AcDbEntity
  8
refine001
100
AcDbSpline
210
0
220
0
230
1
 70
8
 71
1
 72
4
 73
2
 74
0
 40
19.699545333
 40
19.699545333
 40
33.931835080
 40
33.931835080
 10
-0.374021659
 20
7.388617105
 30
4.500000000
 10
-0.374021659
 20
2.720927292
 30
4.500000000
  0
SPLINE
  5
AFE
330
A02
100
AcDbEntity
  8
refine001
100
AcDbSpline
210
0
220
0
230
1
 70
8
 71
1
 72
4
 73
2
 74
0
 40
-71.821256750
 40
-71.821256750
 40
-71.078743243
 40
-71.078743243
 10
-0.374021659
 20
7.388617105
 30
4.500000000
 10
0.375978341
 20
7.388617105
 30
4.500000000
  0
SPLINE
  5
AFF
330
A02
100
AcDbEntity
  8
refine001
100
AcDbSpline
210
0
220
0
230
1
 70
8
 71
1
 72
4
 73
2
 74
0
 40
1.550199451
 40
1.550199451
 40
15.782489201
 40
15.782489201
 10
0.375978341
 20
2.720927291
 30
4.500000000
 10
0.375978341
 20
7.388617105
 30
4.500000000
  0
SPLINE
  5
B00
330
A02
100
AcDbEntity
  8
refine001
100
AcDbSpline
210
0
220
0
230
1
 70
8
 71
2
 72
6
 73
3
 74
0
 40
0.000000000
 40
0.000000000
 40
0.000000000
 40
0.752930700
 40
0.752930700
 40
0.752930700
 10
-0.374021659
 20
2.720927292
 30
4.500000000
 10
0.000978340
 20
2.772291805
 30
4.500000000
 10
0.375978341
 20
2.720927291
 30
4.500000000
  0
SPLINE
  5
B01
330
A02
100
AcDbEntity
  8
refine001
100
AcDbSpline
210
0
220
0
230
1
 70
8
 71
1
 72
4
 73
2
 74
0
 40
1.500000000
 40
1.500000000
 40
6.264181023
 40
6.264181023
 10
-7.382107274
 20
0.372200013
 30
6.185298849
 10
-2.723252124
 20
0.372200013
 30
6.185298849
  0
SPLINE
  5
B02
330
A02
100
AcDbEntity
  8
refine001
100
AcDbSpline
210
0
220
0
230
1
 70
8
 71
3
 72
11
 73
7
 74
0
 40
4.815504436
 40
4.815504436
 40
4.815504436
 40
4.815504436
 40
6.657304959
 40
6.657304959
 40
6.657304959
 40
8.478630485
 40
8.478630485
 40
8.478630485
 40
8.478630485
 10
-0.374021659
 20
2.720953028
 30
5.724078377
 10
-0.967447695
 20
2.639304103
 30
5.740111632
 10
-1.519049005
 20
2.365676799
 30
5.793843342
 10
-1.943565553
 20
1.941160204
 30
5.877204914
 10
-2.367444564
 20
1.519285360
 30
5.960047729
 10
-2.643643189
 20
0.958684308
 30
6.070131967
 10
-2.723252124
 20
0.372200013
 30
6.185298849
  0
SPLINE
  5
B03
330
A02
100
AcDbEntity
  8
refine001
100
AcDbSpline
210
0
220
0
230
1
 70
8
 71
1
 72
4
 73
2
 74
0
 40
0.000000000
 40
0.000000000
 40
4.745727500
 40
4.745727500
 10
-0.374021659
 20
7.377745678
 30
4.809632249
 10
-0.374021659
 20
2.720953028
 30
5.724078377
  0
SPLINE
  5
B04
330
A02
100
AcDbEntity
  8
refine001
100
AcDbSpline
210
0
220
0
230
1
 70
8
 71
1
 72
4
 73
2
 74
0
 40
-46.800000000
 40
-46.800000000
 40
-39.629142203
 40
-39.629142203
 10
-7.466536359
 20
7.377745678
 30
4.809632249
 10
-0.374021659
 20
7.377745678
 30
4.809632249
  0
SPLINE
  5
B05
330
A02
100
AcDbEntity
  8
refine001
100
AcDbSpline
210
0
220
0
230
1
 70
8
 71
1
 72
4
 73
2
 74
0
 40
0.000000000
 40
0.000000000
 40
0.597441213
 40
0.597441213
 10
-7.466536359
 20
7.377745678
 30
4.809632249
 10
-7.382107274
 20
0.372200013
 30
6.185298849
  0
SPLINE
  5
B06
330
A02
100
AcDbEntity
  8
refine001
100
AcDbSpline
210
0
220
0
230
1
 70
8
 71
1
 72
4
 73
2
 74
0
 40
-6.260601557
 40
-6.260601557
 40
-1.500000000
 40
-1.500000000
 10
-2.723413004
 20
-0.377799987
 30
6.332575021
 10
-7.373068461
 20
-0.377799987
 30
6.332575021
  0
SPLINE
  5
B07
330
A02
100
AcDbEntity
  8
refine001
100
AcDbSpline
210
0
220
0
230
1
 70
8
 71
1
 72
4
 73
2
 74
0
 40
0.304130947
 40
0.304130947
 40
2.136705964
 40
2.136705964
 10
-2.723413004
 20
-0.377799987
 30
6.332575021
 10
-2.723413421
 20
-0.377799987
 30
4.500000000
  0
SPLINE
  5
B08
330
A02
100
AcDbEntity
  8
refine001
100
AcDbSpline
210
0
220
0
230
1
 70
8
 71
1
 72
4
 73
2
 74
0
 40
0.691289622
 40
0.691289622
 40
15.309504040
 40
15.309504040
 10
-2.723413421
 20
-0.377799987
 30
4.500000000
 10
-8.087339203
 20
-0.377799987
 30
4.500000000
  0
SPLINE
  5
B09
330
A02
100
AcDbEntity
  8
refine001
100
AcDbSpline
210
0
220
0
230
1
 70
8
 71
2
 72
6
 73
3
 74
0
 40
0.000000000
 40
0.000000000
 40
0.000000000
 40
1.966874155
 40
1.966874155
 40
1.966874155
 10
-7.373068461
 20
-0.377799987
 30
6.332575021
 10
-7.725106732
 20
-0.377799987
 30
5.414289012
 10
-8.087339203
 20
-0.377799987
 30
4.500000000
  0
SPLINE
  5
B0A
330
A02
100
AcDbEntity
  8
refine001
100
AcDbSpline
210
0
220
0
230
1
 70
8
 71
1
 72
4
 73
2
 74
0
 40
18.764635570
 40
18.764635570
 40
33.291183402
 40
33.291183402
 10
-8.053542682
 20
0.372200013
 30
4.500000000
 10
-2.723252524
 20
0.372200013
 30
4.500000000
  0
SPLINE
  5
B0B
330
A02
100
AcDbEntity
  8
refine001
100
AcDbSpline
210
0
220
0
230
1
 70
8
 71
1
 72
4
 73
2
 74
0
 40
0.000000000
 40
0.000000000
 40
1.685298854
 40
1.685298854
 10
-2.723252524
 20
0.372200013
 30
4.500000000
 10
-2.723252124
 20
0.372200013
 30
6.185298849
  0
SPLINE
  5
B0C
330
A02
100
AcDbEntity
  8
refine001
100
AcDbSpline
210
0
220
0
230
1
 70
8
 71
1
 72
4
 73
2
 74
0
 40
1.500000000
 40
1.500000000
 40
6.264181023
 40
6.264181023
 10
-7.382107274
 20
0.372200013
 30
6.185298849
 10
-2.723252124
 20
0.372200013
 30
6.185298849
  0
SPLINE
  5
B0D
330
A02
100
AcDbEntity
  8
refine001
100
AcDbSpline
210
0
220
0
230
1
 70
8
 71
2
 72
6
 73
3
 74
0
 40
0.000000000
 40
0.000000000
 40
0.000000000
 40
1.814142145
 40
1.814142145
 40
1.814142145
 10
-8.053542682
 20
0.372200013
 30
4.500000000
 10
-7.713644022
 20
0.372200013
 30
5.340993018
 10
-7.382107274
 20
0.372200013
 30
6.185298849
  0
SPLINE
  5
B0E
330
A02
100
AcDbEntity
  8
refine001
100
AcDbSpline
210
0
220
0
230
1
 70
8
 71
2
 72
6
 73
3
 74
0
 40
0.000000000
 40
0.000000000
 40
0.000000000
 40
0.752930733
 40
0.752930733
 40
0.752930733
 10
-2.723252524
 20
0.372200013
 30
4.500000000
 10
-2.774697636
 20
-0.002787477
 30
4.500000000
 10
-2.723413421
 20
-0.377799987
 30
4.500000000
  0
SPLINE
  5
B0F
330
A02
100
AcDbEntity
  8
refine001
100
AcDbSpline
210
0
220
0
230
1
 70
8
 71
1
 72
4
 73
2
 74
0
 40
0.691289622
 40
0.691289622
 40
15.309504040
 40
15.309504040
 10
-2.723413421
 20
-0.377799987
 30
4.500000000
 10
-8.087339203
 20
-0.377799987
 30
4.500000000
  0
SPLINE
  5
B10
330
A02
100
AcDbEntity
  8
refine001
100
AcDbSpline
210
0
220
0
230
1
 70
8
 71
1
 72
4
 73
2
 74
0
 40
0.000000000
 40
0.000000000
 40
0.750761389
 40
0.750761389
 10
-8.053542682
 20
0.372200013
 30
4.500000000
 10
-8.087339203
 20
-0.377799987
 30
4.500000000
  0
SPLINE
  5
B11
330
A02
100
AcDbEntity
  8
refine001
100
AcDbSpline
210
0
220
0
230
1
 70
8
 71
1
 72
4
 73
2
 74
0
 40
18.764635570
 40
18.764635570
 40
33.291183402
 40
33.291183402
 10
-8.053542682
 20
0.372200013
 30
4.500000000
 10
-2.723252524
 20
0.372200013
 30
4.500000000
  0
SPLINE
  5
B12
330
A02
100
AcDbEntity
  8
refine001
100
AcDbSpline
210
0
220
0
230
1
 70
8
 71
2
 72
6
 73
3
 74
0
 40
0.000000000
 40
0.000000000
 40
0.000000000
 40
1.814142145
 40
1.814142145
 40
1.814142145
 10
-8.053542682
 20
0.372200013
 30
4.500000000
 10
-7.713644022
 20
0.372200013
 30
5.340993018
 10
-7.382107274
 20
0.372200013
 30
6.185298849
  0
SPLINE
  5
B13
330
A02
100
AcDbEntity
  8
refine001
100
AcDbSpline
210
0
220
0
230
1
 70
8
 71
1
 72
4
 73
2
 74
0
 40
0.000000000
 40
0.000000000
 40
0.597441213
 40
0.597441213
 10
-7.466536359
 20
7.377745678
 30
4.809632249
 10
-7.382107274
 20
0.372200013
 30
6.185298849
  0
SPLINE
  5
B14
330
A02
100
AcDbEntity
  8
refine001
100
AcDbSpline
210
0
220
0
230
1
 70
8
 71
1
 72
4
 73
2
 74
0
 40
-1.000000000
 40
-1.000000000
 40
0.000000000
 40
0.000000000
 10
-9.930271654
 20
7.546615570
 30
0.000000000
 10
-7.466536359
 20
7.377745678
 30
4.809632249
  0
SPLINE
  5
B15
330
A02
100
AcDbEntity
  8
refine001
100
AcDbSpline
210
0
220
0
230
1
 70
8
 71
1
 72
4
 73
2
 74
0
 40
79.000000000
 40
79.000000000
 40
80.000000000
 40
80.000000000
 10
-9.930271654
 20
7.546615570
 30
0.000000000
 10
-9.930271654
 20
-7.553384430
 30
0.000000000
  0
SPLINE
  5
B16
330
A02
100
AcDbEntity
  8
refine001
100
AcDbSpline
210
0
220
0
230
1
 70
8
 71
1
 72
4
 73
2
 74
0
 40
-1.000000000
 40
-1.000000000
 40
0.000000000
 40
0.000000000
 10
-7.325218546
 20
-4.348170632
 30
7.112229676
 10
-9.930271654
 20
-7.553384430
 30
0.000000000
  0
SPLINE
  5
B17
330
A02
100
AcDbEntity
  8
refine001
100
AcDbSpline
210
0
220
0
230
1
 70
8
 71
1
 72
4
 73
2
 74
0
 40
0.661402099
 40
0.661402099
 40
1.000000000
 40
1.000000000
 10
-7.373068461
 20
-0.377799987
 30
6.332575021
 10
-7.325218546
 20
-4.348170632
 30
7.112229676
  0
SPLINE
  5
B18
330
A02
100
AcDbEntity
  8
refine001
100
AcDbSpline
210
0
220
0
230
1
 70
8
 71
2
 72
6
 73
3
 74
0
 40
0.000000000
 40
0.000000000
 40
0.000000000
 40
1.966874155
 40
1.966874155
 40
1.966874155
 10
-7.373068461
 20
-0.377799987
 30
6.332575021
 10
-7.725106732
 20
-0.377799987
 30
5.414289012
 10
-8.087339203
 20
-0.377799987
 30
4.500000000
  0
SPLINE
  5
B19
330
A02
100
AcDbEntity
  8
refine001
100
AcDbSpline
210
0
220
0
230
1
 70
8
 71
1
 72
4
 73
2
 74
0
 40
0.000000000
 40
0.000000000
 40
0.750761389
 40
0.750761389
 10
-8.053542682
 20
0.372200013
 30
4.500000000
 10
-8.087339203
 20
-0.377799987
 30
4.500000000
  0
SPLINE
  5
B1A
330
A02
100
AcDbEntity
  8
refine001
100
AcDbSpline
210
0
220
0
230
1
 70
8
 71
1
 72
4
 73
2
 74
0
 40
-6.260601557
 40
-6.260601557
 40
-1.500000000
 40
-1.500000000
 10
-2.723413004
 20
-0.377799987
 30
6.332575021
 10
-7.373068461
 20
-0.377799987
 30
6.332575021
  0
SPLINE
  5
B1B
330
A02
100
AcDbEntity
  8
refine001
100
AcDbSpline
210
0
220
0
230
1
 70
8
 71
1
 72
4
 73
2
 74
0
 40
0.661402099
 40
0.661402099
 40
1.000000000
 40
1.000000000
 10
-7.373068461
 20
-0.377799987
 30
6.332575021
 10
-7.325218546
 20
-4.348170632
 30
7.112229676
  0
SPLINE
  5
B1C
330
A02
100
AcDbEntity
  8
refine001
100
AcDbSpline
210
0
220
0
230
1
 70
8
 71
1
 72
4
 73
2
 74
0
 40
-8.663544370
 40
-8.663544370
 40
-1.500000000
 40
-1.500000000
 10
-0.374021659
 20
-4.348170632
 30
7.112229676
 10
-7.325218546
 20
-4.348170632
 30
7.112229676
  0
SPLINE
  5
B1D
330
A02
100
AcDbEntity
  8
refine001
100
AcDbSpline
210
0
220
0
230
1
 70
8
 71
1
 72
4
 73
2
 74
0
 40
0.219340189
 40
0.219340189
 40
1.870736026
 40
1.870736026
 10
-0.374021659
 20
-2.727721924
 30
6.794025032
 10
-0.374021659
 20
-4.348170632
 30
7.112229676
  0
SPLINE
  5
B1E
330
A02
100
AcDbEntity
  8
refine001
100
AcDbSpline
210
0
220
0
230
1
 70
8
 71
3
 72
11
 73
7
 74
0
 40
9.249632810
 40
9.249632810
 40
9.249632810
 40
9.249632810
 40
11.072168895
 40
11.072168895
 40
11.072168895
 40
12.913969483
 40
12.913969483
 40
12.913969483
 40
12.913969483
 10
-2.723413004
 20
-0.377799987
 30
6.332575021
 10
-2.644006359
 20
-0.964705579
 30
6.447824633
 10
-2.367728407
 20
-1.525775021
 30
6.558000846
 10
-1.943565558
 20
-1.947928909
 30
6.640898458
 10
-1.519049001
 20
-2.372445554
 30
6.724260040
 10
-0.967447709
 20
-2.646072895
 30
6.777991757
 10
-0.374021659
 20
-2.727721924
 30
6.794025032
  0
SPLINE
  5
B1F
330
A02
100
AcDbEntity
  8
refine001
100
AcDbSpline
210
0
220
0
230
1
 70
8
 71
1
 72
4
 73
2
 74
0
 40
18.764635559
 40
18.764635559
 40
33.291183229
 40
33.291183229
 10
8.055499367
 20
0.372200013
 30
4.500000000
 10
2.725209269
 20
0.372200013
 30
4.500000000
  0
SPLINE
  5
B20
330
A02
100
AcDbEntity
  8
refine001
100
AcDbSpline
210
0
220
0
230
1
 70
8
 71
1
 72
4
 73
2
 74
0
 40
0.000000000
 40
0.000000000
 40
1.685298847
 40
1.685298847
 10
2.725209269
 20
0.372200013
 30
4.500000000
 10
2.725209156
 20
0.372200013
 30
6.185298849
  0
SPLINE
  5
B21
330
A02
100
AcDbEntity
  8
refine001
100
AcDbSpline
210
0
220
0
230
1
 70
8
 71
1
 72
4
 73
2
 74
0
 40
-16.600000000
 40
-16.600000000
 40
-11.835819333
 40
-11.835819333
 10
7.384063958
 20
0.372200013
 30
6.185298849
 10
2.725209156
 20
0.372200013
 30
6.185298849
  0
SPLINE
  5
B22
330
A02
100
AcDbEntity
  8
refine001
100
AcDbSpline
210
0
220
0
230
1
 70
8
 71
2
 72
6
 73
3
 74
0
 40
0.000000000
 40
0.000000000
 40
0.000000000
 40
1.814142146
 40
1.814142146
 40
1.814142146
 10
8.055499367
 20
0.372200013
 30
4.500000000
 10
7.715600707
 20
0.372200013
 30
5.340993018
 10
7.384063958
 20
0.372200013
 30
6.185298849
  0
SPLINE
  5
B23
330
A02
100
AcDbEntity
  8
refine001
100
AcDbSpline
210
0
220
0
230
1
 70
8
 71
1
 72
4
 73
2
 74
0
 40
18.764635559
 40
18.764635559
 40
33.291183229
 40
33.291183229
 10
8.055499367
 20
0.372200013
 30
4.500000000
 10
2.725209269
 20
0.372200013
 30
4.500000000
  0
SPLINE
  5
B24
330
A02
100
AcDbEntity
  8
refine001
100
AcDbSpline
210
0
220
0
230
1
 70
8
 71
1
 72
4
 73
2
 74
0
 40
0.000000000
 40
0.000000000
 40
0.750761389
 40
0.750761389
 10
8.055499367
 20
0.372200013
 30
4.500000000
 10
8.089295889
 20
-0.377799987
 30
4.500000000
  0
SPLINE
  5
B25
330
A02
100
AcDbEntity
  8
refine001
100
AcDbSpline
210
0
220
0
230
1
 70
8
 71
1
 72
4
 73
2
 74
0
 40
0.691289789
 40
0.691289789
 40
15.309504053
 40
15.309504053
 10
2.725370164
 20
-0.377799987
 30
4.500000000
 10
8.089295889
 20
-0.377799987
 30
4.500000000
  0
SPLINE
  5
B26
330
A02
100
AcDbEntity
  8
refine001
100
AcDbSpline
210
0
220
0
230
1
 70
8
 71
2
 72
6
 73
3
 74
0
 40
0.000000000
 40
0.000000000
 40
0.000000000
 40
0.375873950
 40
0.375873950
 40
0.375873950
 10
2.750978341
 20
-0.003384422
 30
4.500000000
 10
2.750962729
 20
-0.191466953
 30
4.500000000
 10
2.725370164
 20
-0.377799987
 30
4.500000000
  0
SPLINE
  5
B27
330
A02
100
AcDbEntity
  8
refine001
100
AcDbSpline
210
0
220
0
230
1
 70
8
 71
2
 72
6
 73
3
 74
0
 40
0.000000000
 40
0.000000000
 40
0.000000000
 40
0.377056740
 40
0.377056740
 40
0.377056740
 10
2.725209269
 20
0.372200013
 30
4.500000000
 10
2.750962537
 20
0.185290770
 30
4.500000000
 10
2.750978341
 20
-0.003384422
 30
4.500000000
  0
SPLINE
  5
B28
330
A02
100
AcDbEntity
  8
refine001
100
AcDbSpline
210
0
220
0
230
1
 70
8
 71
1
 72
4
 73
2
 74
0
 40
0.000000000
 40
0.000000000
 40
0.750761389
 40
0.750761389
 10
8.055499367
 20
0.372200013
 30
4.500000000
 10
8.089295889
 20
-0.377799987
 30
4.500000000
  0
SPLINE
  5
B29
330
A02
100
AcDbEntity
  8
refine001
100
AcDbSpline
210
0
220
0
230
1
 70
8
 71
2
 72
6
 73
3
 74
0
 40
0.000000000
 40
0.000000000
 40
0.000000000
 40
1.966874155
 40
1.966874155
 40
1.966874155
 10
7.375025146
 20
-0.377799987
 30
6.332575021
 10
7.727063417
 20
-0.377799987
 30
5.414289012
 10
8.089295889
 20
-0.377799987
 30
4.500000000
  0
SPLINE
  5
B2A
330
A02
100
AcDbEntity
  8
refine001
100
AcDbSpline
210
0
220
0
230
1
 70
8
 71
1
 72
4
 73
2
 74
0
 40
-1.000000000
 40
-1.000000000
 40
-0.661402099
 40
-0.661402099
 10
7.327175237
 20
-4.348170632
 30
7.112229676
 10
7.375025146
 20
-0.377799987
 30
6.332575021
  0
SPLINE
  5
B2B
330
A02
100
AcDbEntity
  8
refine001
100
AcDbSpline
210
0
220
0
230
1
 70
8
 71
1
 72
4
 73
2
 74
0
 40
0.000000000
 40
0.000000000
 40
1.000000000
 40
1.000000000
 10
9.932228346
 20
-7.553384430
 30
0.000000000
 10
7.327175237
 20
-4.348170632
 30
7.112229676
  0
SPLINE
  5
B2C
330
A02
100
AcDbEntity
  8
refine001
100
AcDbSpline
210
0
220
0
230
1
 70
8
 71
1
 72
4
 73
2
 74
0
 40
62.900000000
 40
62.900000000
 40
63.900000000
 40
63.900000000
 10
9.932228346
 20
-7.553384430
 30
0.000000000
 10
9.932228346
 20
7.546615570
 30
0.000000000
  0
SPLINE
  5
B2D
330
A02
100
AcDbEntity
  8
refine001
100
AcDbSpline
210
0
220
0
230
1
 70
8
 71
1
 72
4
 73
2
 74
0
 40
0.000000000
 40
0.000000000
 40
1.000000000
 40
1.000000000
 10
7.468493033
 20
7.377745678
 30
4.809632249
 10
9.932228346
 20
7.546615570
 30
0.000000000
  0
SPLINE
  5
B2E
330
A02
100
AcDbEntity
  8
refine001
100
AcDbSpline
210
0
220
0
230
1
 70
8
 71
1
 72
4
 73
2
 74
0
 40
-0.597441213
 40
-0.597441213
 40
0.000000000
 40
0.000000000
 10
7.384063958
 20
0.372200013
 30
6.185298849
 10
7.468493033
 20
7.377745678
 30
4.809632249
  0
SPLINE
  5
B2F
330
A02
100
AcDbEntity
  8
refine001
100
AcDbSpline
210
0
220
0
230
1
 70
8
 71
2
 72
6
 73
3
 74
0
 40
0.000000000
 40
0.000000000
 40
0.000000000
 40
1.814142146
 40
1.814142146
 40
1.814142146
 10
8.055499367
 20
0.372200013
 30
4.500000000
 10
7.715600707
 20
0.372200013
 30
5.340993018
 10
7.384063958
 20
0.372200013
 30
6.185298849
  0
SPLINE
  5
B30
330
A02
100
AcDbEntity
  8
refine001
100
AcDbSpline
210
0
220
0
230
1
 70
8
 71
3
 72
11
 73
7
 74
0
 40
13.680241186
 40
13.680241186
 40
13.680241186
 40
13.680241186
 40
15.522041739
 40
15.522041739
 40
15.522041739
 40
17.344577843
 40
17.344577843
 40
17.344577843
 40
17.344577843
 10
0.375978341
 20
-2.727721929
 30
6.794025033
 10
0.969404381
 20
-2.646072904
 30
6.777991758
 10
1.521005656
 20
-2.372445548
 30
6.724260039
 10
1.945522209
 20
-1.947928924
 30
6.640898461
 10
2.369685167
 20
-1.525775023
 30
6.558000847
 10
2.645962828
 20
-0.964705651
 30
6.447824647
 10
2.725370029
 20
-0.377799987
 30
6.332575021
  0
SPLINE
  5
B31
330
A02
100
AcDbEntity
  8
refine001
100
AcDbSpline
210
0
220
0
230
1
 70
8
 71
1
 72
4
 73
2
 74
0
 40
0.000000000
 40
0.000000000
 40
2.294024939
 40
2.294024939
 10
0.375978341
 20
-2.727696190
 30
4.500000000
 10
0.375978341
 20
-2.727721929
 30
6.794025033
  0
SPLINE
  5
B32
330
A02
100
AcDbEntity
  8
refine001
100
AcDbSpline
210
0
220
0
230
1
 70
8
 71
2
 72
6
 73
3
 74
0
 40
0.000000000
 40
0.000000000
 40
0.000000000
 40
0.752930714
 40
0.752930714
 40
0.752930714
 10
0.375978341
 20
-2.727696190
 30
4.500000000
 10
0.000978341
 20
-2.779060866
 30
4.500000000
 10
-0.374021659
 20
-2.727696186
 30
4.500000000
  0
SPLINE
  5
B33
330
A02
100
AcDbEntity
  8
refine001
100
AcDbSpline
210
0
220
0
230
1
 70
8
 71
1
 72
4
 73
2
 74
0
 40
0.142913223
 40
0.142913223
 40
2.436938161
 40
2.436938161
 10
-0.374021659
 20
-2.727721924
 30
6.794025032
 10
-0.374021659
 20
-2.727696186
 30
4.500000000
  0
SPLINE
  5
B34
330
A02
100
AcDbEntity
  8
refine001
100
AcDbSpline
210
0
220
0
230
1
 70
8
 71
3
 72
11
 73
7
 74
0
 40
9.249632810
 40
9.249632810
 40
9.249632810
 40
9.249632810
 40
11.072168895
 40
11.072168895
 40
11.072168895
 40
12.913969483
 40
12.913969483
 40
12.913969483
 40
12.913969483
 10
-2.723413004
 20
-0.377799987
 30
6.332575021
 10
-2.644006359
 20
-0.964705579
 30
6.447824633
 10
-2.367728407
 20
-1.525775021
 30
6.558000846
 10
-1.943565558
 20
-1.947928909
 30
6.640898458
 10
-1.519049001
 20
-2.372445554
 30
6.724260040
 10
-0.967447709
 20
-2.646072895
 30
6.777991757
 10
-0.374021659
 20
-2.727721924
 30
6.794025032
  0
SPLINE
  5
B35
330
A02
100
AcDbEntity
  8
refine001
100
AcDbSpline
210
0
220
0
230
1
 70
8
 71
1
 72
4
 73
2
 74
0
 40
0.304130947
 40
0.304130947
 40
2.136705964
 40
2.136705964
 10
-2.723413004
 20
-0.377799987
 30
6.332575021
 10
-2.723413421
 20
-0.377799987
 30
4.500000000
  0
SPLINE
  5
B36
330
A02
100
AcDbEntity
  8
refine001
100
AcDbSpline
210
0
220
0
230
1
 70
8
 71
2
 72
6
 73
3
 74
0
 40
0.000000000
 40
0.000000000
 40
0.000000000
 40
0.752930733
 40
0.752930733
 40
0.752930733
 10
-2.723252524
 20
0.372200013
 30
4.500000000
 10
-2.774697636
 20
-0.002787477
 30
4.500000000
 10
-2.723413421
 20
-0.377799987
 30
4.500000000
  0
SPLINE
  5
B37
330
A02
100
AcDbEntity
  8
refine001
100
AcDbSpline
210
0
220
0
230
1
 70
8
 71
1
 72
4
 73
2
 74
0
 40
0.000000000
 40
0.000000000
 40
1.685298854
 40
1.685298854
 10
-2.723252524
 20
0.372200013
 30
4.500000000
 10
-2.723252124
 20
0.372200013
 30
6.185298849
  0
SPLINE
  5
B38
330
A02
100
AcDbEntity
  8
refine001
100
AcDbSpline
210
0
220
0
230
1
 70
8
 71
3
 72
11
 73
7
 74
0
 40
4.815504436
 40
4.815504436
 40
4.815504436
 40
4.815504436
 40
6.657304959
 40
6.657304959
 40
6.657304959
 40
8.478630485
 40
8.478630485
 40
8.478630485
 40
8.478630485
 10
-0.374021659
 20
2.720953028
 30
5.724078377
 10
-0.967447695
 20
2.639304103
 30
5.740111632
 10
-1.519049005
 20
2.365676799
 30
5.793843342
 10
-1.943565553
 20
1.941160204
 30
5.877204914
 10
-2.367444564
 20
1.519285360
 30
5.960047729
 10
-2.643643189
 20
0.958684308
 30
6.070131967
 10
-2.723252124
 20
0.372200013
 30
6.185298849
  0
SPLINE
  5
B39
330
A02
100
AcDbEntity
  8
refine001
100
AcDbSpline
210
0
220
0
230
1
 70
8
 71
1
 72
4
 73
2
 74
0
 40
0.000000000
 40
0.000000000
 40
1.224078471
 40
1.224078471
 10
-0.374021659
 20
2.720927292
 30
4.500000000
 10
-0.374021659
 20
2.720953028
 30
5.724078377
  0
SPLINE
  5
B3A
330
A02
100
AcDbEntity
  8
refine001
100
AcDbSpline
210
0
220
0
230
1
 70
8
 71
2
 72
6
 73
3
 74
0
 40
0.000000000
 40
0.000000000
 40
0.000000000
 40
0.752930700
 40
0.752930700
 40
0.752930700
 10
-0.374021659
 20
2.720927292
 30
4.500000000
 10
0.000978340
 20
2.772291805
 30
4.500000000
 10
0.375978341
 20
2.720927291
 30
4.500000000
  0
SPLINE
  5
B3B
330
A02
100
AcDbEntity
  8
refine001
100
AcDbSpline
210
0
220
0
230
1
 70
8
 71
1
 72
4
 73
2
 74
0
 40
0.149693465
 40
0.149693465
 40
1.373771937
 40
1.373771937
 10
0.375978341
 20
2.720953027
 30
5.724078378
 10
0.375978341
 20
2.720927291
 30
4.500000000
  0
SPLINE
  5
B3C
330
A02
100
AcDbEntity
  8
refine001
100
AcDbSpline
210
0
220
0
230
1
 70
8
 71
3
 72
11
 73
7
 74
0
 40
0.386106647
 40
0.386106647
 40
0.386106647
 40
0.386106647
 40
2.207432232
 40
2.207432232
 40
2.207432232
 40
4.049232731
 40
4.049232731
 40
4.049232731
 40
4.049232731
 10
2.725209156
 20
0.372200013
 30
6.185298849
 10
2.645599677
 20
0.958684284
 30
6.070131970
 10
2.369401344
 20
1.519285359
 30
5.960047731
 10
1.945522214
 20
1.941160202
 30
5.877204914
 10
1.521005667
 20
2.365676780
 30
5.793843345
 10
0.969404369
 20
2.639304098
 30
5.740111633
 10
0.375978341
 20
2.720953027
 30
5.724078378
  0
SPLINE
  5
B3D
330
A02
100
AcDbEntity
  8
refine001
100
AcDbSpline
210
0
220
0
230
1
 70
8
 71
1
 72
4
 73
2
 74
0
 40
0.000000000
 40
0.000000000
 40
1.685298847
 40
1.685298847
 10
2.725209269
 20
0.372200013
 30
4.500000000
 10
2.725209156
 20
0.372200013
 30
6.185298849
  0
SPLINE
  5
B3E
330
A02
100
AcDbEntity
  8
refine001
100
AcDbSpline
210
0
220
0
230
1
 70
8
 71
2
 72
6
 73
3
 74
0
 40
0.000000000
 40
0.000000000
 40
0.000000000
 40
0.377056740
 40
0.377056740
 40
0.377056740
 10
2.725209269
 20
0.372200013
 30
4.500000000
 10
2.750962537
 20
0.185290770
 30
4.500000000
 10
2.750978341
 20
-0.003384422
 30
4.500000000
  0
SPLINE
  5
B3F
330
A02
100
AcDbEntity
  8
refine001
100
AcDbSpline
210
0
220
0
230
1
 70
8
 71
1
 72
4
 73
2
 74
0
 40
0.000000000
 40
0.000000000
 40
6.220577863
 40
6.220577863
 10
2.750978341
 20
-0.003384416
 30
1.000000000
 10
2.750978341
 20
-0.003384422
 30
4.500000000
  0
SPLINE
  5
B40
330
A02
100
AcDbEntity
  8
refine001
100
AcDbSpline
210
0
220
0
230
1
 70
9
 71
3
 72
53
 73
49
 74
0
 40
0.000000000
 40
0.000000000
 40
0.000000000
 40
0.000000000
 40
1.079922475
 40
1.079922475
 40
1.079922475
 40
2.159844950
 40
2.159844950
 40
2.159844950
 40
3.239767424
 40
3.239767424
 40
3.239767424
 40
4.319689899
 40
4.319689899
 40
4.319689899
 40
5.399612374
 40
5.399612374
 40
5.399612374
 40
6.479534848
 40
6.479534848
 40
6.479534848
 40
7.559457323
 40
7.559457323
 40
7.559457323
 40
8.639379797
 40
8.639379797
 40
8.639379797
 40
9.719302272
 40
9.719302272
 40
9.719302272
 40
10.799224747
 40
10.799224747
 40
10.799224747
 40
11.879147221
 40
11.879147221
 40
11.879147221
 40
12.959069696
 40
12.959069696
 40
12.959069696
 40
14.038992171
 40
14.038992171
 40
14.038992171
 40
15.118914646
 40
15.118914646
 40
15.118914646
 40
16.198837120
 40
16.198837120
 40
16.198837120
 40
17.278759595
 40
17.278759595
 40
17.278759595
 40
17.278759595
 10
2.750978341
 20
-0.003384416
 30
1.000000000
 10
2.751370036
 20
0.320315609
 30
1.000000000
 10
2.692376906
 20
0.670015006
 30
1.000000000
 10
2.557896169
 20
1.008876035
 30
1.000000000
 10
2.424552803
 20
1.347524710
 30
1.000000000
 10
2.214660952
 20
1.672914378
 30
1.000000000
 10
1.945521989
 20
1.941159232
 30
1.000000000
 10
1.677277135
 20
2.210298195
 30
1.000000000
 10
1.351887467
 20
2.420190046
 30
1.000000000
 10
1.013238792
 20
2.553533412
 30
1.000000000
 10
0.674377763
 20
2.688014149
 30
1.000000000
 10
0.324678366
 20
2.747007279
 30
1.000000000
 10
0.000978341
 20
2.746615584
 30
1.000000000
 10
-0.322721684
 20
2.747007279
 30
1.000000000
 10
-0.672421081
 20
2.688014149
 30
1.000000000
 10
-1.011282110
 20
2.553533412
 30
1.000000000
 10
-1.349930785
 20
2.420190046
 30
1.000000000
 10
-1.675320453
 20
2.210298195
 30
1.000000000
 10
-1.943565307
 20
1.941159232
 30
1.000000000
 10
-2.212704270
 20
1.672914378
 30
1.000000000
 10
-2.422596121
 20
1.347524710
 30
1.000000000
 10
-2.555939487
 20
1.008876035
 30
1.000000000
 10
-2.690420224
 20
0.670015006
 30
1.000000000
 10
-2.749413354
 20
0.320315609
 30
1.000000000
 10
-2.749021659
 20
-0.003384416
 30
1.000000000
 10
-2.749413354
 20
-0.327084441
 30
1.000000000
 10
-2.690420224
 20
-0.676783838
 30
1.000000000
 10
-2.555939487
 20
-1.015644867
 30
1.000000000
 10
-2.422596121
 20
-1.354293542
 30
1.000000000
 10
-2.212704270
 20
-1.679683210
 30
1.000000000
 10
-1.943565307
 20
-1.947928064
 30
1.000000000
 10
-1.675320453
 20
-2.217067027
 30
1.000000000
 10
-1.349930785
 20
-2.426958878
 30
1.000000000
 10
-1.011282110
 20
-2.560302244
 30
1.000000000
 10
-0.672421081
 20
-2.694782981
 30
1.000000000
 10
-0.322721684
 20
-2.753776111
 30
1.000000000
 10
0.000978341
 20
-2.753384416
 30
1.000000000
 10
0.324678366
 20
-2.753776111
 30
1.000000000
 10
0.674377763
 20
-2.694782981
 30
1.000000000
 10
1.013238792
 20
-2.560302244
 30
1.000000000
 10
1.351887467
 20
-2.426958878
 30
1.000000000
 10
1.677277135
 20
-2.217067027
 30
1.000000000
 10
1.945521989
 20
-1.947928064
 30
1.000000000
 10
2.214660952
 20
-1.679683210
 30
1.000000000
 10
2.424552803
 20
-1.354293542
 30
1.000000000
 10
2.557896169
 20
-1.015644867
 30
1.000000000
 10
2.692376906
 20
-0.676783838
 30
1.000000000
 10
2.751370036
 20
-0.327084441
 30
1.000000000
 10
2.750978341
 20
-0.003384416
 30
1.000000000
  0
SPLINE
  5
B41
330
A02
100
AcDbEntity
  8
refine001
100
AcDbSpline
210
0
220
0
230
1
 70
8
 71
1
 72
4
 73
2
 74
0
 40
0.000000000
 40
0.000000000
 40
6.220577863
 40
6.220577863
 10
2.750978341
 20
-0.003384416
 30
1.000000000
 10
2.750978341
 20
-0.003384422
 30
4.500000000
  0
SPLINE
  5
B42
330
A02
100
AcDbEntity
  8
refine001
100
AcDbSpline
210
0
220
0
230
1
 70
8
 71
2
 72
6
 73
3
 74
0
 40
0.000000000
 40
0.000000000
 40
0.000000000
 40
0.375873950
 40
0.375873950
 40
0.375873950
 10
2.750978341
 20
-0.003384422
 30
4.500000000
 10
2.750962729
 20
-0.191466953
 30
4.500000000
 10
2.725370164
 20
-0.377799987
 30
4.500000000
  0
SPLINE
  5
B43
330
A02
100
AcDbEntity
  8
refine001
100
AcDbSpline
210
0
220
0
230
1
 70
8
 71
1
 72
4
 73
2
 74
0
 40
0.304130941
 40
0.304130941
 40
2.136705964
 40
2.136705964
 10
2.725370029
 20
-0.377799987
 30
6.332575021
 10
2.725370164
 20
-0.377799987
 30
4.500000000
  0
SPLINE
  5
B44
330
A02
100
AcDbEntity
  8
refine001
100
AcDbSpline
210
0
220
0
230
1
 70
8
 71
1
 72
4
 73
2
 74
0
 40
-0.597441213
 40
-0.597441213
 40
0.000000000
 40
0.000000000
 10
7.384063958
 20
0.372200013
 30
6.185298849
 10
7.468493033
 20
7.377745678
 30
4.809632249
  0
SPLINE
  5
B45
330
A02
100
AcDbEntity
  8
refine001
100
AcDbSpline
210
0
220
0
230
1
 70
8
 71
1
 72
4
 73
2
 74
0
 40
-38.870857789
 40
-38.870857789
 40
-31.700000000
 40
-31.700000000
 10
0.375978341
 20
7.377745678
 30
4.809632249
 10
7.468493033
 20
7.377745678
 30
4.809632249
  0
SPLINE
  5
B46
330
A02
100
AcDbEntity
  8
refine001
100
AcDbSpline
210
0
220
0
230
1
 70
8
 71
1
 72
4
 73
2
 74
0
 40
0.267475461
 40
0.267475461
 40
5.013202962
 40
5.013202962
 10
0.375978341
 20
2.720953027
 30
5.724078378
 10
0.375978341
 20
7.377745678
 30
4.809632249
  0
SPLINE
  5
B47
330
A02
100
AcDbEntity
  8
refine001
100
AcDbSpline
210
0
220
0
230
1
 70
8
 71
3
 72
11
 73
7
 74
0
 40
0.386106647
 40
0.386106647
 40
0.386106647
 40
0.386106647
 40
2.207432232
 40
2.207432232
 40
2.207432232
 40
4.049232731
 40
4.049232731
 40
4.049232731
 40
4.049232731
 10
2.725209156
 20
0.372200013
 30
6.185298849
 10
2.645599677
 20
0.958684284
 30
6.070131970
 10
2.369401344
 20
1.519285359
 30
5.960047731
 10
1.945522214
 20
1.941160202
 30
5.877204914
 10
1.521005667
 20
2.365676780
 30
5.793843345
 10
0.969404369
 20
2.639304098
 30
5.740111633
 10
0.375978341
 20
2.720953027
 30
5.724078378
  0
SPLINE
  5
B48
330
A02
100
AcDbEntity
  8
refine001
100
AcDbSpline
210
0
220
0
230
1
 70
8
 71
1
 72
4
 73
2
 74
0
 40
-16.600000000
 40
-16.600000000
 40
-11.835819333
 40
-11.835819333
 10
7.384063958
 20
0.372200013
 30
6.185298849
 10
2.725209156
 20
0.372200013
 30
6.185298849
  0
SPLINE
  5
B49
330
A02
100
AcDbEntity
  8
refine001
100
AcDbSpline
210
0
220
0
230
1
 70
8
 71
3
 72
11
 73
7
 74
0
 40
13.680241186
 40
13.680241186
 40
13.680241186
 40
13.680241186
 40
15.522041739
 40
15.522041739
 40
15.522041739
 40
17.344577843
 40
17.344577843
 40
17.344577843
 40
17.344577843
 10
0.375978341
 20
-2.727721929
 30
6.794025033
 10
0.969404381
 20
-2.646072904
 30
6.777991758
 10
1.521005656
 20
-2.372445548
 30
6.724260039
 10
1.945522209
 20
-1.947928924
 30
6.640898461
 10
2.369685167
 20
-1.525775023
 30
6.558000847
 10
2.645962828
 20
-0.964705651
 30
6.447824647
 10
2.725370029
 20
-0.377799987
 30
6.332575021
  0
SPLINE
  5
B4A
330
A02
100
AcDbEntity
  8
refine001
100
AcDbSpline
210
0
220
0
230
1
 70
8
 71
1
 72
4
 73
2
 74
0
 40
0.000000000
 40
0.000000000
 40
1.651395831
 40
1.651395831
 10
0.375978341
 20
-4.348170632
 30
7.112229676
 10
0.375978341
 20
-2.727721929
 30
6.794025033
  0
SPLINE
  5
B4B
330
A02
100
AcDbEntity
  8
refine001
100
AcDbSpline
210
0
220
0
230
1
 70
8
 71
1
 72
4
 73
2
 74
0
 40
-16.600000000
 40
-16.600000000
 40
-9.436455620
 40
-9.436455620
 10
7.327175237
 20
-4.348170632
 30
7.112229676
 10
0.375978341
 20
-4.348170632
 30
7.112229676
  0
SPLINE
  5
B4C
330
A02
100
AcDbEntity
  8
refine001
100
AcDbSpline
210
0
220
0
230
1
 70
8
 71
1
 72
4
 73
2
 74
0
 40
-1.000000000
 40
-1.000000000
 40
-0.661402099
 40
-0.661402099
 10
7.327175237
 20
-4.348170632
 30
7.112229676
 10
7.375025146
 20
-0.377799987
 30
6.332575021
  0
SPLINE
  5
B4D
330
A02
100
AcDbEntity
  8
refine001
100
AcDbSpline
210
0
220
0
230
1
 70
8
 71
1
 72
4
 73
2
 74
0
 40
11.839398790
 40
11.839398790
 40
16.600000000
 40
16.600000000
 10
2.725370029
 20
-0.377799987
 30
6.332575021
 10
7.375025146
 20
-0.377799987
 30
6.332575021
  0
ENDSEC
  0
SECTION
  2
OBJECTS
  0
DICTIONARY
  5
F000
330
0
100
AcDbDictionary
  3
ACAD_GROUP
350
F001
  0
DICTIONARY
  5
F001
330
F000
100
AcDbDictionary
  0
ENDSEC
  0
EOF