<?xml version="1.0" encoding="UTF-8" standalone="no"?>
<!-- Created with Inkscape (http://www.inkscape.org/) -->

<svg
   width="181.17833mm"
   height="204.77132mm"
   viewBox="0 0 181.17833 204.77132"
   version="1.1"
   id="svg1"
   xml:space="preserve"
   inkscape:version="1.4 (e7c3feb100, 2024-10-09)"
   sodipodi:docname="cat.svg"
   xmlns:inkscape="http://www.inkscape.org/namespaces/inkscape"
   xmlns:sodipodi="http://sodipodi.sourceforge.net/DTD/sodipodi-0.dtd"
   xmlns="http://www.w3.org/2000/svg"
   xmlns:svg="http://www.w3.org/2000/svg"><sodipodi:namedview
     id="namedview1"
     pagecolor="#505050"
     bordercolor="#eeeeee"
     borderopacity="1"
     inkscape:showpageshadow="0"
     inkscape:pageopacity="0"
     inkscape:pagecheckerboard="0"
     inkscape:deskcolor="#505050"
     inkscape:document-units="mm"
     inkscape:zoom="0.77682379"
     inkscape:cx="158.33707"
     inkscape:cy="347.56917"
     inkscape:window-width="1920"
     inkscape:window-height="1080"
     inkscape:window-x="439"
     inkscape:window-y="599"
     inkscape:window-maximized="1"
     inkscape:current-layer="layer1" /><defs
     id="defs1" /><g
     inkscape:label="Layer 1"
     inkscape:groupmode="layer"
     id="layer1"
     transform="translate(-17.991668,-48.947922)"><path
       style="fill:#000000"
       d="m 126.57621,253.23553 c -2.83978,-0.81299 -5.70723,-2.92692 -7.93785,-5.8519 l -1.00751,-1.32114 h -3.87955 -3.87954 l -0.14553,1.08499 c -0.36078,2.68984 -2.88134,4.84512 -6.51078,5.56725 -4.589848,0.91322 -19.33429,-0.38898 -29.032353,-2.56407 -3.473249,-0.77899 -4.745288,-1.22018 -6.31747,-2.19113 -1.598977,-0.98751 -5.163939,-4.70227 -6.53698,-6.81167 l -1.218465,-1.87192 -2.339985,-0.34592 c -5.194434,-0.76789 -10.49218,-2.39083 -14.378527,-4.40479 -2.159922,-1.1193 -5.279689,-3.23076 -5.287782,-3.57878 -0.0021,-0.0919 1.395099,0.27776 3.104969,0.82145 4.856884,1.54435 4.961846,1.53127 2.182813,-0.27206 -6.953611,-4.51223 -12.170189,-12.49675 -14.315609,-21.91156 -0.764135,-3.35328 -0.944728,-9.02182 -0.388771,-12.2029 0.241397,-1.38123 0.534513,-2.60693 0.651368,-2.72379 0.116856,-0.11685 0.286637,1.13231 0.377292,2.77591 0.09066,1.6436 0.375944,4.05993 0.633976,5.36962 l 0.469149,2.38125 0.165193,-3.83646 c 0.262146,-6.08811 0.932153,-8.90128 4.064488,-17.06562 2.992677,-7.80033 4.115579,-11.62783 4.530877,-15.44387 0.15231,-1.39952 0.233144,-1.60155 0.476382,-1.19062 0.322273,0.54445 0.408465,6.77341 0.11485,8.30011 -0.268006,1.39355 2.205295,-3.88137 3.314745,-7.06951 2.864706,-8.23207 2.234229,-14.83554 -1.768737,-18.52534 -2.830591,-2.60915 -6.61198,-3.54936 -10.354494,-2.57456 -2.22252,0.57889 -3.959055,1.60024 -5.945771,3.49702 -0.952628,0.90951 -1.762795,1.65365 -1.80037,1.65365 -0.03757,0 -0.06832,-0.77688 -0.06832,-1.72641 0,-1.93243 0.665688,-4.13653 1.739324,-5.7589 l 0.686757,-1.03776 -0.860925,0.49122 c -1.413264,0.80637 -4.128806,3.47643 -5.262895,5.17474 -1.283324,1.92179 -1.479854,1.68289 -1.235093,-1.50136 0.272165,-3.54076 1.650351,-7.28015 3.790746,-10.2853 l 0.913313,-1.2823 -0.842331,0.48855 c -0.463282,0.26871 -1.661965,1.24385 -2.663739,2.16698 -1.001774,0.92313 -1.821407,1.60512 -1.821407,1.51554 0,-0.0896 0.353316,-0.9421 0.785148,-1.89448 2.490693,-5.49311 7.5063,-10.22125 13.295277,-12.53328 1.840966,-0.73526 3.566439,-1.19041 6.689365,-1.76456 l 1.058334,-0.19458 -1.322917,-0.19337 c -1.717929,-0.25111 -5.187289,-0.25371 -6.930431,-0.005 -0.7558,0.10776 -1.312673,0.0964 -1.237497,-0.0252 0.281942,-0.45619 3.33053,-1.81653 5.575915,-2.48809 2.840028,-0.84939 8.504464,-1.15328 12.034494,-0.64563 5.192183,0.74668 10.99024,3.50315 14.717954,6.99709 l 0.877103,0.8221 -0.265313,-0.70149 c -0.49841,-1.3178 -2.092236,-4.32372 -3.030074,-5.71466 -0.515117,-0.76398 -0.832893,-1.38906 -0.706169,-1.38906 0.126724,0 1.185359,0.71958 2.352521,1.59906 5.902407,4.4476 10.358267,12.00348 12.241563,20.75823 0.533323,2.47923 0.395715,8.22461 -0.273431,11.41618 -1.460358,6.96535 -5.30067,14.74657 -10.329281,20.92913 -0.73975,0.90951 -1.253944,1.65365 -1.142654,1.65365 0.11129,0 1.956275,-1.6767 4.099968,-3.726 2.143692,-2.0493 3.897622,-3.64808 3.897622,-3.55284 0,0.8487 -3.59017,5.71885 -8.193958,11.1153 -8.257052,9.67871 -10.801866,13.72315 -12.356548,19.63807 -0.877501,3.33853 -0.985578,8.66527 -0.235008,11.58276 0.980718,3.81207 2.884401,7.30357 5.222722,9.57885 l 1.143001,1.11219 0.02993,-4.15489 c 0.03248,-4.50854 0.510251,-8.33284 1.590434,-12.73052 3.255327,-13.25321 10.510299,-23.85127 21.238363,-31.02498 4.467019,-2.98703 7.621013,-4.46176 16.424237,-7.67957 2.405306,-0.8792 5.206722,-2.01497 6.225372,-2.52393 2.07177,-1.03516 5.15937,-3.14015 5.15937,-3.51743 0,-0.13521 -0.45445,-0.47768 -1.00988,-0.76105 -0.55544,-0.28336 -1.16416,-0.70109 -1.35272,-0.92828 -0.28789,-0.34689 -0.26386,-0.43897 0.14999,-0.57462 3.07379,-1.00749 5.69926,-3.21018 6.84194,-5.74016 1.01326,-2.24344 1.00032,-2.29286 -0.74328,-2.83754 l -1.5379,-0.48042 -1.80613,1.89472 c -2.31033,2.42363 -4.64259,5.22729 -6.67211,8.02067 -2.578542,3.54902 -2.229742,2.58616 0.58976,-1.62804 1.14769,-1.71541 3.88327,-5.29108 5.80158,-7.58325 l 0.81068,-0.96867 -1.39586,-0.46275 c -0.76772,-0.25451 -2.80151,-1.04013 -4.51953,-1.74583 l -3.123668,-1.28308 -1.193094,0.82087 c -0.656202,0.45148 -2.405708,1.76772 -3.887791,2.92498 l -2.694696,2.1041 2.248959,-2.13688 c 1.236927,-1.17528 2.751292,-2.52015 3.365256,-2.9886 0.613964,-0.46845 1.119979,-0.93022 1.124479,-1.02615 0.0045,-0.0959 -1.030452,-0.73601 -2.299892,-1.42239 -1.269439,-0.68637 -3.098576,-1.76874 -4.064748,-2.40525 -0.966171,-0.63652 -1.845993,-1.15731 -1.955158,-1.15731 -0.204732,0 -4.528452,2.39393 -5.684704,3.14747 -0.366283,0.23871 -0.56385,0.28262 -0.451532,0.10035 0.109832,-0.17822 1.385625,-1.11356 2.835096,-2.07851 l 2.635401,-1.75445 -0.998312,-0.72318 c -1.392879,-1.00899 -4.265706,-3.69794 -4.581757,-4.28848 -0.214036,-0.39993 -0.1383,-0.54761 0.408655,-0.79682 0.869946,-0.39637 0.847254,-0.53336 -0.188513,-1.13805 -1.20584,-0.70398 -2.833863,-2.07453 -2.839232,-2.3902 -0.0025,-0.14552 0.567685,-0.58594 1.267022,-0.97871 2.847629,-1.59932 4.997624,-4.72486 6.279843,-9.12928 l 0.677565,-2.32743 -1.535047,-1.30155 C 78.345437,110.44681 71.47203,98.730088 69.032893,87.04792 68.289166,83.485863 68.188849,78.151099 68.838231,76.695953 c 0.602009,-1.34899 2.107087,-1.686245 6.552201,-1.468205 8.08138,0.396406 17.635783,2.995611 27.368578,7.445421 l 2.08505,0.953281 2.14828,-1.418588 c 1.18156,-0.780223 3.75563,-2.322022 5.72016,-3.42622 4.13288,-2.322957 4.86563,-2.960437 8.13753,-7.079555 1.32929,-1.67349 2.92941,-3.466358 3.55583,-3.984152 1.61944,-1.338638 3.66644,-2.704653 3.82115,-2.549951 0.0723,0.07232 -0.17966,0.745498 -0.55995,1.495956 -0.66255,1.307494 -1.81761,5.298706 -1.59723,5.519094 0.0583,0.05827 0.46241,-0.147872 0.89808,-0.458095 2.06036,-1.467107 6.22985,-2.933269 8.34166,-2.933269 h 1.05465 l -0.81333,0.859896 c -1.08185,1.143793 -2.73006,3.352401 -2.73006,3.658287 0,0.134374 1.12415,0.244317 2.49811,0.244317 h 2.49811 l 1.44357,-2.447395 c 1.92124,-3.257241 5.10812,-7.778466 7.32001,-10.384896 5.01656,-5.911394 11.94793,-11.773957 13.92048,-11.773957 2.44819,0 6.36829,10.489339 7.81158,20.902082 0.54143,3.906203 0.46163,13.9895 -0.13968,17.651112 l -0.48721,2.966739 0.78858,1.002011 c 0.43371,0.551106 1.93358,2.76076 3.33304,4.910342 2.78992,4.285342 4.11211,5.744482 6.28016,6.930622 1.16242,0.63597 1.75616,0.78537 3.152,0.79314 0.94588,0.005 2.04721,-0.0926 2.44739,-0.21755 0.72553,-0.22647 0.72761,-0.22342 0.72761,1.06682 0,0.71167 -0.16115,1.9152 -0.35812,2.67452 -0.19696,0.75932 -0.3354,1.38058 -0.30765,1.38058 0.0278,0 1.64743,-0.29371 3.59927,-0.65268 4.02962,-0.7411 9.69086,-1.47623 11.08151,-1.43897 0.51367,0.0138 -0.64641,0.31008 -2.57796,0.65848 -3.24018,0.58444 -8.05759,1.62256 -10.44486,2.25079 -0.61932,0.16298 -0.99219,0.41869 -0.99219,0.68042 0,0.36104 -1.41316,4.78792 -2.00694,6.28695 -0.16495,0.41645 -0.11486,0.47567 0.27562,0.32583 0.63884,-0.24514 13.38264,-0.1801 15.22507,0.0777 1.11153,0.15554 0.48666,0.21341 -2.64584,0.24507 -3.77657,0.0382 -8.20597,0.30161 -11.96207,0.71149 l -1.51102,0.16488 -1.61373,3.04612 c -0.88755,1.67537 -1.57681,3.07739 -1.53168,3.11561 0.0451,0.0382 1.27267,0.21378 2.72788,0.39015 4.82812,0.58515 10.65004,1.83112 15.69808,3.3596 1.21239,0.3671 2.15623,0.71555 2.09744,0.77434 -0.0588,0.0588 -1.88418,-0.30422 -4.05641,-0.8067 -6.7417,-1.55947 -17.23571,-2.85366 -17.61684,-2.17262 -0.56147,1.0033 -3.55968,4.9886 -5.57631,7.41219 -4.03537,4.84972 -9.28599,9.26221 -15.21615,12.78727 l -3.0451,1.8101 0.16908,2.20987 c 0.33248,4.34543 1.4696,8.32329 4.21659,14.75043 1.45353,3.40083 2.35532,6.27206 2.6715,8.50585 0.0875,0.61846 0.0685,1.11603 -0.0424,1.10571 -0.11086,-0.0103 -1.08419,-1.02277 -2.16296,-2.24989 -1.07877,-1.22711 -2.0047,-2.18781 -2.05762,-2.13489 -0.0529,0.0529 0.0851,1.2142 0.30669,2.58061 0.46078,2.84126 0.52773,8.28612 0.13301,10.81877 -0.33956,2.17874 -1.61734,5.96007 -1.85887,5.50094 -0.0988,-0.18786 -0.25502,-1.19478 -0.34709,-2.23759 -0.2659,-3.01145 -0.4546,-3.06588 -1.12225,-0.32371 -0.76259,3.13215 -1.49234,4.96949 -3.53012,8.88808 -1.40572,2.70317 -1.74383,3.65282 -2.52424,7.08999 -1.79575,7.90894 -2.37226,13.18157 -2.1773,19.91298 0.14165,4.89105 0.57935,8.41557 1.37683,11.08675 0.3928,1.31568 0.44955,1.37283 1.5289,1.53957 3.31952,0.5128 5.13395,1.72513 6.31347,4.21838 1.47128,3.10998 0.83895,6.56528 -1.48834,8.13292 -1.81896,1.22523 -3.83051,1.66447 -7.72768,1.68742 l -3.49435,0.0206 -1.10415,1.25438 c -1.2416,1.41053 -3.38304,2.60088 -5.48008,3.04618 -2.12486,0.4512 -6.77514,0.34288 -8.67899,-0.20216 z m 5.96083,-1.78476 c 0.78575,-0.99892 0.73367,-2.77664 -0.12424,-4.24055 -0.74976,-1.27937 -1.42306,-1.59249 -0.78939,-0.36711 0.22202,0.42933 0.40367,1.44728 0.40367,2.26209 0,0.81482 -0.18165,1.83276 -0.40367,2.2621 -0.34847,0.67387 -0.35109,0.78061 -0.0192,0.78061 0.21145,0 0.63123,-0.31371 0.93283,-0.69714 z m -29.55311,-1.44832 c -0.0392,-0.49348 -0.28839,-1.1949 -0.55375,-1.55871 -0.65613,-0.89953 -2.623108,-2.38125 -3.161126,-2.38125 -0.26382,0 -0.04909,0.26409 0.540491,0.66472 1.017245,0.69123 2.131365,2.36608 2.430375,3.65356 0.24178,1.04107 0.83289,0.7405 0.74401,-0.37832 z m 34.86207,0.4277 c 1.28721,-1.37016 0.91402,-5.00604 -0.6662,-6.49058 -0.77468,-0.72777 -0.80607,-0.64083 -0.20253,0.56092 0.63622,1.26684 0.76097,3.8992 0.25513,5.38375 -0.46285,1.35839 -0.29226,1.51017 0.6136,0.54591 z m -30.82003,-2.76824 c -0.20748,-1.22804 -1.10042,-2.49877 -2.35492,-3.35122 -1.30618,-0.88757 -1.39039,-0.78323 -0.27117,0.33599 1.07535,1.07535 1.94796,2.77843 1.95681,3.81911 0.003,0.37593 0.0885,0.76621 0.18959,0.86729 0.35648,0.35648 0.64968,-0.665 0.47969,-1.67117 z m 39.76486,-0.594 c 0.70101,-0.70101 0.13606,-3.60745 -0.86227,-4.43599 -0.24859,-0.20631 -0.23055,0.0443 0.0686,0.95298 0.31593,0.95964 0.3476,1.51744 0.1429,2.5167 -0.27097,1.32282 -0.0435,1.66058 0.65076,0.96631 z m -6.00556,-2.44358 c -0.45564,-2.03602 -1.59674,-3.48896 -3.38208,-4.30632 -1.25937,-0.57655 -1.73501,-0.65408 -3.36956,-0.54918 -2.12356,0.13628 -4.27265,0.9764 -6.00252,2.34647 -1.72867,1.36914 -1.75455,1.9192 -0.0366,0.77884 2.12546,-1.4109 3.79504,-1.94119 6.14928,-1.95315 1.52025,-0.008 2.2319,0.12024 3.04271,0.54711 1.96695,1.03555 3.28562,2.97739 3.32519,4.89663 0.0169,0.81939 0.0342,0.83465 0.30613,0.27058 0.21084,-0.43731 0.20212,-0.98257 -0.0325,-2.03098 z m 11.00836,0.15193 c 0.17884,-1.33329 -0.44321,-3.12723 -1.39412,-4.02057 l -0.66425,-0.62403 0.56518,1.27768 c 0.45907,1.0378 0.54745,1.66799 0.47077,3.35665 -0.0915,2.01538 -0.0796,2.06414 0.39028,1.59427 0.26658,-0.26658 0.55105,-0.97938 0.63214,-1.584 z m -33.67151,-1.91019 c -2.20395,-4.07853 -5.93288,-12.08422 -8.24702,-17.70566 -2.94722,-7.15928 -4.98609,-14.07429 -5.88987,-19.97604 -0.4056,-2.64858 -0.49011,-2.93257 -0.50968,-1.71285 -0.0769,4.7943 2.02523,14.21629 4.8686,21.82118 1.08654,2.90608 4.47727,9.85539 6.20933,12.72603 1.48419,2.45984 4.62356,7.22367 4.70604,7.14118 0.0365,-0.0365 -0.47535,-1.0687 -1.1374,-2.29384 z m -10.56753,0.64533 c -1.61389,-3.86349 -6.62177,-5.22966 -12.868679,-3.51063 -2.062776,0.56764 -7.558391,3.05452 -7.306542,3.30637 0.0817,0.0817 0.53959,-0.0537 1.017542,-0.30084 1.411901,-0.73012 4.393858,-1.67112 6.654748,-2.10001 5.436771,-1.03134 10.221231,0.0815 12.016941,2.79496 0.84429,1.27581 1.06261,1.19053 0.48599,-0.18985 z m 46.23898,-1.74844 c -0.26319,-2.06148 -1.30299,-3.56849 -3.09663,-4.48805 -1.49945,-0.76873 -4.7693,-0.57794 -6.63132,0.38694 -2.14921,1.11369 -2.51409,1.55276 -0.66146,0.79594 1.38012,-0.56379 2.16398,-0.70523 3.96875,-0.71611 2.93892,-0.0177 4.35582,0.72052 5.39838,2.81268 0.37787,0.75828 0.68704,1.66001 0.68704,2.00382 0,0.34382 0.10773,0.55855 0.2394,0.47717 0.13167,-0.0814 0.1748,-0.65395 0.0958,-1.27239 z m -60.082336,-3.73648 c 5.321011,-4.33447 8.004386,-12.51197 6.088536,-18.55461 -0.322967,-1.01864 -0.771875,-2.14974 -0.997573,-2.51354 l -0.41036,-0.66146 0.157888,0.66146 c 1.210893,5.07292 0.152693,11.93388 -2.54345,16.49075 -1.321825,2.23407 -3.975907,5.08206 -5.986516,6.42389 -2.270241,1.51511 -2.256097,1.5866 0.08312,0.42019 1.170905,-0.58385 2.794665,-1.60386 3.608355,-2.26668 z m 12.783556,-1.11368 c 1.01865,-0.50166 2.30509,-1.29735 2.85876,-1.76819 0.90802,-0.77218 0.9707,-0.90484 0.63966,-1.35376 -0.34841,-0.47245 -0.45152,-0.42958 -2.03399,0.84558 -0.91684,0.7388 -2.48461,1.77292 -3.48393,2.29805 -0.99933,0.52513 -1.81696,1.02108 -1.81696,1.1021 0,0.34257 2.11984,-0.27837 3.83646,-1.12378 z m 26.20377,0.74917 c -0.0984,-0.25466 -0.46528,-1.59411 -0.81532,-2.97656 -2.66462,-10.52358 -2.79362,-23.20171 -0.35907,-35.2882 1.09147,-5.41864 -0.0509,-1.95207 -1.47114,4.46425 -2.77734,12.54737 -2.09463,24.04878 1.95924,33.00676 0.53297,1.17773 1.07831,1.80846 0.68629,0.79375 z m 11.88087,-4.96798 c -0.59232,-1.96813 -1.1746,-7.93465 -1.17494,-12.03939 -3.2e-4,-3.83007 0.44362,-8.43605 1.18817,-12.32747 0.21547,-1.12616 0.34143,-2.0979 0.27992,-2.15941 -0.17794,-0.17794 -1.40445,4.06036 -2.01246,6.95415 -0.70535,3.35708 -0.94488,8.53344 -0.53649,11.59389 0.449,3.36482 2.04073,9.1759 2.5134,9.1759 0.0566,0 -0.0594,-0.53895 -0.2576,-1.19767 z M 59.562257,216.87134 c 2.00149,-12.71477 7.819732,-24.47826 16.142982,-32.63834 4.987855,-4.89007 8.331958,-7.13057 17.560386,-11.76523 6.169167,-3.09825 10.935245,-5.85912 11.392905,-6.59963 0.0913,-0.14763 -0.82749,0.26661 -2.04163,0.92054 -1.21414,0.65393 -4.588775,2.1537 -7.499192,3.33283 -9.485961,3.84316 -13.376439,6.01331 -18.464295,10.29956 -10.779972,9.08157 -17.43253,23.8403 -18.01972,39.97684 -0.112256,3.08491 -0.09424,3.31938 0.132139,1.71979 0.144163,-1.01864 0.502555,-3.37951 0.796425,-5.24636 z m 41.781283,0.298 c -0.62631,-4.28337 -1.997269,-7.50615 -4.568603,-10.73963 -3.104539,-3.90398 -8.082731,-6.6163 -12.945021,-7.05295 l -1.67679,-0.15058 1.795388,0.53335 c 5.356324,1.59119 9.482735,4.61005 12.599172,9.21749 1.468278,2.17075 3.807394,7.02976 4.429014,9.20032 0.61755,2.15634 0.76877,1.74081 0.36684,-1.008 z m 34.40528,-5.76726 c 4.86755,-5.3165 7.65276,-8.72383 9.98812,-12.21914 4.84562,-7.2524 6.92764,-13.05968 6.92764,-19.32298 0,-1.77667 0.0827,-2.34139 0.33073,-2.25961 0.32837,0.10825 1.65553,2.5148 2.22584,4.03611 0.24479,0.65301 0.30239,0.1135 0.32486,-3.04271 0.0274,-3.85153 -0.25697,-6.16627 -1.26768,-10.31875 -0.26565,-1.09141 -0.37641,-2.02534 -0.24615,-2.0754 0.3202,-0.12305 1.39062,0.60129 2.77677,1.879 0.63101,0.58165 1.1473,0.98063 1.1473,0.88662 0,-0.094 -0.70284,-1.75747 -1.56186,-3.69659 -1.79111,-4.04319 -2.98285,-7.59384 -3.56652,-10.62601 -0.62539,-3.24895 -0.6851,-3.34308 -0.55144,-0.86925 0.0683,1.26467 0.29739,3.11014 0.50902,4.10104 0.4058,1.90006 1.7186,5.94868 2.25224,6.94579 0.44101,0.82403 0.25863,0.87963 -0.9179,0.2798 -0.56223,-0.28664 -1.0613,-0.48211 -1.10903,-0.43437 -0.0477,0.0477 0.15774,1.50445 0.45663,3.23714 0.29888,1.7327 0.61278,4.5791 0.69756,6.32535 l 0.15414,3.175 -0.98016,-1.12448 c -0.53909,-0.61846 -1.08995,-1.12448 -1.22413,-1.12448 -0.13418,0 -0.24397,0.99644 -0.24397,2.21431 0,3.02882 -0.61239,6.29422 -1.91609,10.21698 -1.14493,3.44502 -4.71244,10.93494 -5.86204,12.30726 l -0.66493,0.79375 0.22859,-0.92605 c 0.74709,-3.02651 0.56767,-3.05307 -0.89363,-0.13229 -1.37988,2.75804 -2.79051,4.77435 -8.22211,11.75245 -4.41188,5.66806 -3.96876,5.67594 1.2082,0.0215 z M 68.770254,163.18177 c 2.169796,-4.72336 3.1589,-8.62692 3.368832,-13.29531 0.24601,-5.47067 -0.815081,-10.17165 -3.50538,-15.52999 -1.132567,-2.25576 -3.14631,-5.50439 -3.412035,-5.50439 -0.06088,0 0.05039,0.45658 0.247282,1.01462 0.658302,1.86583 1.176852,6.13803 0.743028,6.12163 -0.109141,-0.004 -0.575299,-0.63074 -1.035907,-1.39247 -1.140191,-1.88559 -3.794031,-4.73284 -5.893247,-6.32274 -3.59419,-2.72217 -8.677726,-4.67493 -13.598379,-5.22362 -2.999007,-0.3344 -5.732362,-0.36835 -5.732362,-0.0712 0,0.11641 0.695393,0.35528 1.545316,0.53083 1.617772,0.33415 6.411396,2.61259 6.581138,3.12806 0.07143,0.21691 -1.009225,0.26243 -3.947908,0.16629 -3.132092,-0.10246 -4.580555,-0.0314 -6.411172,0.31452 -4.564813,0.86259 -9.047727,3.10095 -12.260524,6.12178 l -1.778724,1.67245 1.455208,-0.54469 c 1.626063,-0.60864 4.189366,-1.03816 4.377632,-0.73354 0.06743,0.10911 -0.469391,0.63295 -1.192944,1.16409 -3.376908,2.47888 -6.336781,6.78407 -7.553911,10.98732 -0.190253,0.65702 -0.185836,0.65613 0.658306,-0.1323 0.467414,-0.43656 1.150625,-1.38906 1.518246,-2.11666 2.133068,-4.22182 5.928578,-7.96441 10.348887,-10.20458 l 1.40934,-0.71425 -1.695596,-0.29527 c -0.932579,-0.1624 -2.072797,-0.29528 -2.53382,-0.29528 -0.461023,0 -0.838223,-0.10179 -0.838223,-0.22621 0,-0.34551 4.425438,-2.32198 6.217708,-2.77692 2.169347,-0.55066 5.375009,-0.96562 7.459668,-0.96562 1.91445,0 6.876304,0.67439 7.941453,1.07936 1.316439,0.50051 1.070035,0.0378 -1.747745,-3.28201 -0.386057,-0.45484 -0.364194,-0.47204 0.376724,-0.29653 2.027913,0.48039 5.150669,1.90459 7.23922,3.3016 3.716608,2.486 7.987193,7.3373 9.486155,10.77608 l 0.431195,0.98921 0.241106,-1.19062 c 0.401926,-1.98479 0.454429,-2.06165 0.870794,-1.27481 0.801395,1.51448 1.994451,5.60939 2.391614,8.2087 0.780509,5.10821 -0.336358,12.70464 -2.646905,18.00308 -0.237971,0.54571 -0.363852,0.99219 -0.279737,0.99219 0.08412,0 0.604166,-0.98226 1.155667,-2.18281 z m 39.612716,0.52917 c 1.38845,-1.45599 2.38583,-2.91775 2.06705,-3.02947 -0.9818,-0.34409 -0.96,-0.567 0.15367,-1.57102 1.13997,-1.02773 2.37118,-3.21283 2.36478,-4.19691 -0.003,-0.38983 -0.1173,-0.2981 -0.43588,0.34838 -0.62507,1.26842 -2.6554,3.44036 -3.99614,4.27486 l -1.15627,0.71968 0.81407,0.3372 c 0.97692,0.40465 1.00379,0.66153 0.19513,1.86523 -1.32893,1.97811 -1.55,2.37653 -1.31865,2.37653 0.13196,0 0.72247,-0.50602 1.31224,-1.12448 z m 20.44706,-12.21019 c -0.0606,-0.058 -1.69894,-0.29811 -3.64069,-0.53352 -3.79374,-0.45995 -7.17834,-1.12378 -11.10354,-2.17778 -1.978,-0.53114 -2.54044,-0.59728 -2.85549,-0.33581 -0.21577,0.17908 -0.29798,0.41683 -0.18267,0.52833 0.34882,0.33731 6.33729,1.50025 9.99923,1.94181 4.80908,0.57989 8.03619,0.81911 7.78316,0.57697 z m -15.66894,-5.47483 c 4.55643,-3.89504 10.3004,-7.89242 14.96713,-10.41604 2.84967,-1.541 3.64652,-2.18111 1.6499,-1.32533 -3.83529,1.64384 -8.97296,4.82749 -12.96784,8.03574 -2.08666,1.67579 -7.17595,6.37554 -6.90396,6.37554 0.0723,0 1.53696,-1.20146 3.25477,-2.66991 z m 37.22875,1.17651 c 8.54005,-3.7744 16.66201,-10.43897 23.00803,-18.87951 0.92998,-1.23693 1.63904,-2.33826 1.57568,-2.4474 -0.3738,-0.64389 -1.23564,0.0363 -3.06688,2.4203 -5.98038,7.78572 -14.53145,14.88905 -23.21084,19.28114 -2.75149,1.39236 -1.85564,1.1943 1.69401,-0.37453 z m -40.60859,0.85705 c 0.25343,-0.30537 0.0584,-0.45286 -1.09208,-0.82578 -0.77035,-0.24971 -2.55652,-0.9227 -3.96928,-1.49553 -2.08453,-0.84522 -2.67046,-0.98703 -3.10885,-0.75241 -0.68095,0.36443 -0.67582,0.44262 0.0551,0.84058 0.84886,0.46218 6.86086,2.57388 7.37593,2.59078 0.23684,0.008 0.56947,-0.15317 0.73917,-0.35764 z M 26.476255,147.7482 c 0.950269,-1.145 5.281224,-2.7455 7.504583,-2.7733 1.167345,-0.0146 1.255366,-0.0511 0.679582,-0.28166 -0.363802,-0.14569 -1.584472,-0.22744 -2.712601,-0.18167 -1.128128,0.0458 -2.050417,0.0237 -2.049531,-0.0491 8.86e-4,-0.0728 0.23754,-0.51924 0.525899,-0.99219 0.288359,-0.47294 0.460595,-0.85989 0.382747,-0.85989 -0.929037,0 -3.68221,2.67306 -4.594008,4.46033 -0.554995,1.08788 -0.402624,1.47988 0.263329,0.67745 z m 72.680341,-4.21605 c -0.770277,-0.31338 -2.597722,-1.18476 -4.060989,-1.93638 -2.643158,-1.3577 -3.28519,-1.5794 -3.28519,-1.13442 0,0.4022 0.68706,0.83263 4.292258,2.68902 3.269775,1.68368 3.541462,1.77779 3.981815,1.37927 0.44529,-0.40298 0.39165,-0.46064 -0.927894,-0.99749 z m 11.268364,-4.19989 c 7.34181,-3.57182 15.01996,-6.2874 22.49324,-7.95532 0.41735,-0.0931 0.69985,-0.22833 0.62778,-0.3004 -0.20628,-0.20629 -5.30458,0.88918 -8.79494,1.88976 -7.54115,2.16182 -14.59921,5.41188 -21.35553,9.8337 -3.717059,2.4327 -3.396749,2.45621 0.61865,0.0454 1.90398,-1.14313 4.78884,-2.72404 6.4108,-3.51313 z m 37.60593,2.03097 c 1.05697,-0.53325 1.95383,-1.3689 2.40987,-2.2454 0.59343,-1.14055 0.44356,-1.13941 -0.70118,0.005 -1.343,1.343 -3.10477,2.2092 -4.85333,2.3862 -1.12468,0.11385 -1.23948,0.17019 -0.68834,0.33781 0.87469,0.26602 2.83773,0.0182 3.83298,-0.48394 z m -50.677919,-4.02818 c 8.471369,-3.48223 18.128709,-5.92124 27.265779,-6.88613 7.04759,-0.74423 7.22866,-0.78443 2.92607,-0.64967 -9.02784,0.28276 -17.56267,2.10994 -26.9489,5.76936 -3.630349,1.41537 -8.41255,3.65644 -8.917795,4.17911 -0.145521,0.15055 0.356326,-0.0366 1.115214,-0.41593 0.758888,-0.37931 2.810723,-1.27784 4.559632,-1.99674 z m -6.530233,2.2061 c 0.08737,-0.0874 -0.723323,-0.74888 -1.801532,-1.47003 -1.07821,-0.72115 -2.026049,-1.41744 -2.106309,-1.5473 -0.08026,-0.12986 0.6392,-0.62921 1.5988,-1.10965 0.9596,-0.48045 1.736005,-0.99261 1.725345,-1.13813 -0.01066,-0.14552 -0.524665,-0.39839 -1.142233,-0.56193 -1.295305,-0.34301 -3.264614,-1.13757 -4.033267,-1.6273 -0.519345,-0.33088 -0.51689,-0.34532 0.132292,-0.77791 0.363802,-0.24242 1.356973,-1.13934 2.207047,-1.99315 3.184912,-3.19891 4.708547,-8.70452 4.631435,-16.73554 -0.02701,-2.81291 -0.20735,-2.20428 -0.879884,2.96952 -0.454528,3.49668 -1.07818,6.19864 -1.989669,8.6202 -0.879049,2.33537 -2.977866,5.28929 -4.572233,6.43504 -0.759589,0.54586 -1.438823,1.03776 -1.50941,1.0931 -0.266639,0.20905 1.252955,1.11782 3.037835,1.81672 1.019152,0.39907 1.959145,0.81594 2.088874,0.92637 0.129729,0.11043 -0.429447,0.52709 -1.242613,0.92591 -0.813165,0.39881 -1.411105,0.83413 -1.328754,0.96738 0.255119,0.41279 4.395773,3.36555 4.71951,3.36555 0.168255,0 0.377399,-0.0715 0.464766,-0.15885 z m 48.960882,-2.64362 c 1.69244,-0.57667 3.61735,-2.38547 4.67273,-4.39087 1.02758,-1.95256 0.97597,-1.93646 -0.58298,0.18188 -2.988,4.06018 -7.44015,5.02394 -10.92393,2.36472 -1.05989,-0.80903 -1.15392,-0.8405 -0.7726,-0.25853 0.47028,0.71774 1.86006,1.67802 3.14515,2.17316 1.15812,0.44622 3.03228,0.41667 4.46163,-0.0704 z M 132.29166,133.35 c 0.21829,-0.14106 0.27782,-0.25648 0.1323,-0.25648 -0.14552,0 -0.44318,0.11542 -0.66146,0.25648 -0.21828,0.14106 -0.27781,0.25648 -0.13229,0.25648 0.14552,0 0.44317,-0.11542 0.66145,-0.25648 z m 21.31628,-1.18679 c 1.21512,-0.71211 2.50326,-2.82994 2.4881,-4.09068 -0.006,-0.50688 -0.15481,-0.31836 -0.59532,0.75469 -0.371,0.90375 -0.95796,1.72886 -1.59428,2.24115 -1.35756,1.09295 -3.96217,1.30164 -5.84587,0.46839 -1.66789,-0.73778 -1.24113,-0.14916 0.46924,0.64722 1.83085,0.85249 3.60039,0.84525 5.07813,-0.0208 z m -30.04752,-6.21151 c 1.0914,-0.30942 3.20476,-1.15475 4.69635,-1.87851 3.13247,-1.51995 3.07153,-1.38319 2.18436,-4.90222 -1.15734,-4.59067 -3.86572,-8.51289 -7.1453,-10.34768 -2.41841,-1.35301 -2.84147,-1.34208 -1.36888,0.0354 0.80595,0.75387 1.59001,1.84346 2.06222,2.86581 0.66082,1.43072 0.76187,1.96534 0.76187,4.03075 0,2.01223 -0.10665,2.60863 -0.68821,3.84853 -0.9102,1.94056 -2.01188,3.15397 -3.72534,4.10315 -1.24833,0.69152 -1.6613,0.77957 -3.65624,0.77957 -1.97556,0 -2.39904,-0.0882 -3.48352,-0.72574 -2.74975,-1.61645 -4.24326,-4.40654 -4.2926,-8.01916 -0.0268,-1.96469 0.0495,-2.28935 0.98183,-4.17584 0.76248,-1.54283 1.33726,-2.30349 2.33886,-3.0952 0.73037,-0.57733 1.24754,-1.04968 1.14926,-1.04968 -0.0983,0 -0.94783,0.38278 -1.88788,0.85063 -2.1125,1.05135 -3.80973,2.64581 -4.77965,4.49022 -0.6585,1.2522 -0.73952,1.681 -0.74065,3.91956 -10e-4,2.21481 0.0862,2.69164 0.73461,4.01205 1.33711,2.72279 3.84899,4.70526 7.06932,5.57937 2.31347,0.62796 6.98249,0.47487 9.78959,-0.32097 z m 22.46266,-0.15209 c 1.13739,-1.29542 2.19075,-3.46537 2.09291,-4.31146 -0.0786,-0.68014 -0.13946,-0.70505 -1.66912,-0.68372 -1.87011,0.0261 -4.58955,0.87282 -6.31257,1.96553 -1.59882,1.01394 -1.62947,1.66455 -0.10357,2.19854 0.61846,0.21644 1.95791,0.69329 2.97656,1.05967 1.01865,0.36639 1.92905,0.6754 2.02311,0.6867 0.0941,0.0113 0.54077,-0.40057 0.99268,-0.91526 z m 18.68004,-0.38904 c 1.89177,-0.13597 5.34458,-0.26819 7.67292,-0.29383 3.26783,-0.036 3.87127,-0.0915 2.64583,-0.24359 -3.9253,-0.48703 -11.60318,-0.1517 -15.47812,0.67601 l -1.71979,0.36735 1.71979,-0.12936 c 0.94588,-0.0712 3.2676,-0.24062 5.15937,-0.37658 z m -4.23333,-2.40713 c 4.91948,-1.67843 11.07059,-3.33354 15.61041,-4.20037 3.87661,-0.74019 5.0275,-1.09751 2.91042,-0.90361 -4.38917,0.402 -13.00047,2.47236 -18.16236,4.36665 -3.09696,1.13651 -5.78243,2.31271 -5.78243,2.53264 0,0.0777 0.20836,0.0508 0.46302,-0.0597 0.25466,-0.11053 2.48708,-0.89153 4.96094,-1.73556 z m 17.22882,-1.24895 c 1.46306,-2.53454 1.6683,-3.07802 1.09357,-2.89582 -0.4101,0.13001 -3.60981,4.70365 -3.62613,5.18317 -0.007,0.20821 0.21417,0.31501 0.54819,0.26458 0.39151,-0.0591 0.98872,-0.82712 1.98437,-2.55193 z m -14.58299,-3.29822 c 4.77993,-2.62215 9.34741,-4.68177 15.34583,-6.91992 4.44574,-1.6588 3.29999,-1.49429 -2.08722,0.2997 -5.14355,1.71284 -12.013,4.99527 -16.72785,7.99308 -3.45212,2.19492 -4.60713,3.29707 -1.54796,1.4771 1.15873,-0.68936 3.41647,-1.97184 5.0172,-2.84996 z m -40.59614,1.39067 c 0.97305,-0.52076 0.44324,-2.37194 -0.67886,-2.37194 -0.60182,0 -1.19062,0.64563 -1.19062,1.30552 0,0.29233 0.94454,1.34031 1.20802,1.34031 0.0823,0 0.37998,-0.12325 0.66146,-0.27389 z m 34.51073,-3.31183 c 4.07506,-1.09161 7.15837,-3.45617 8.67095,-6.64967 0.77594,-1.63825 0.85403,-2.03301 0.85385,-4.31669 -2.3e-4,-2.90686 -0.46436,-4.22046 -2.15281,-6.092973 -2.1385,-2.371633 -5.52074,-3.213097 -8.84533,-2.200624 l -1.43708,0.437651 1.62675,0.489935 c 2.18328,0.657551 4.01945,2.311991 5.17818,4.665721 0.77558,1.57542 0.86798,2.00373 0.86798,4.02321 0,2.02107 -0.0921,2.44719 -0.871,4.02935 -1.53689,3.12186 -4.06393,4.63397 -7.30899,4.37349 -0.92147,-0.074 -2.12359,-0.38474 -2.77629,-0.71772 l -1.15114,-0.58727 0.1847,0.7359 c 0.10158,0.40475 0.35646,1.14699 0.56639,1.64943 l 0.3817,0.91353 2.31232,-0.16401 c 1.27177,-0.0902 3.02669,-0.35537 3.89982,-0.58926 z m 23.8587,-0.84605 c 0.70273,-1.57558 1.67359,-4.23312 1.67359,-4.58115 0,-0.38571 -2.69214,0.66757 -2.95324,1.15542 -0.37911,0.70839 -0.18264,0.76983 1.05988,0.33144 0.60478,-0.21338 1.09961,-0.33107 1.09961,-0.26153 0,0.0695 -0.50495,1.10605 -1.1221,2.30336 -0.61715,1.19732 -1.16285,2.26624 -1.21267,2.37538 -0.0498,0.10914 0.10449,0.19844 0.3429,0.19844 0.27266,0 0.68523,-0.56444 1.11203,-1.52136 z m -91.161092,-2.89019 c 0.499213,-3.28659 1.898328,-9.2631 2.389408,-10.20668 0.157394,-0.30242 0.142926,-0.46302 -0.04171,-0.46302 -0.531767,0 -2.890373,1.32103 -3.827205,2.14358 -0.514695,0.45191 -0.935808,0.66832 -0.935808,0.4809 0,-0.81885 1.204992,-2.7073 2.430641,-3.80927 l 1.330756,-1.196461 -2.343719,0.0086 c -1.556587,0.0057 -2.810234,0.169802 -3.732783,0.488511 -0.763984,0.26392 -1.389062,0.39696 -1.389062,0.29564 0,-0.10133 0.362083,-0.684067 0.804628,-1.294983 0.88869,-1.226801 2.75897,-2.530067 4.288601,-2.988422 0.545703,-0.163521 0.992187,-0.384701 0.992187,-0.491512 0,-0.404392 -3.925704,-1.145583 -6.149756,-1.161103 -2.499081,-0.01744 -2.683006,-0.179953 -1.279778,-1.130796 1.406942,-0.95336 3.727023,-1.700166 5.768258,-1.856733 1.050829,-0.0806 1.858154,-0.231403 1.794056,-0.335116 -0.372388,-0.602536 -6.617598,-2.382039 -8.359824,-2.382039 -1.796379,0 -0.903266,-0.485664 1.524475,-0.828992 1.775001,-0.251017 2.56774,-0.229401 4.68106,0.127642 1.399297,0.236409 3.230248,0.664486 4.06878,0.951281 l 1.524604,0.521444 -1.852083,-1.711537 c -4.77551,-4.41312 -12.523935,-8.928968 -17.381224,-10.129927 -2.855889,-0.706114 -3.389006,-0.23511 -3.387721,2.993023 0.0034,8.489491 5.356266,21.06102 12.733459,29.90519 1.96445,2.35508 5.497313,5.80136 5.719424,5.57925 0.06317,-0.0632 0.346826,-1.642 0.630338,-3.50851 z m 25.042472,2.67675 c 0.4593,-0.3217 0.58804,-0.67214 0.58804,-1.60064 0,-2.20209 -1.29276,-3.60275 -2.40021,-2.60053 -0.91481,0.82789 -0.4798,3.99801 0.60871,4.43597 0.52723,0.21213 0.58012,0.20181 1.20346,-0.2348 z m 45.41602,-5.56014 c 0.52555,-0.52555 0.52405,-0.8994 -0.007,-1.65708 -0.57222,-0.81695 -1.47425,-0.66067 -1.81588,0.31461 -0.22752,0.6495 -0.17783,0.82554 0.35471,1.25677 0.75223,0.60912 0.9338,0.61972 1.46782,0.0857 z m 21.83568,-1.54216 c 0.26072,-0.60823 0.55116,-1.45832 0.64542,-1.88908 l 0.17137,-0.7832 h -1.92408 c -1.57553,0 -2.19966,-0.13532 -3.44537,-0.74703 -1.97886,-0.97172 -4.15699,-2.98171 -5.52733,-5.100644 -0.60217,-0.931121 -1.14383,-1.692947 -1.2037,-1.692947 -0.0599,0 0.3756,0.931166 0.9677,2.069261 2.24926,4.32336 5.0106,6.4558 8.32678,6.43035 1.92957,-0.0148 1.99793,0.0692 1.33909,1.64604 -0.21828,0.52242 -0.39687,1.07977 -0.39687,1.23855 0,0.56612 0.58073,-0.0836 1.04699,-1.1713 z m -29.44011,-1.42494 c 1.47068,-0.93514 0.4692,-4.55463 -1.26022,-4.55463 -1.2039,0 -1.44152,2.65524 -0.35335,3.94845 0.69746,0.82888 1.05317,0.96251 1.61357,0.60618 z m -29.15376,-8.128308 c -1.54127,-1.282794 -4.92357,-2.762653 -7.05168,-3.085324 -3.39387,-0.514589 -6.91963,0.394039 -9.5197,2.453334 -1.28916,1.021034 -1.16989,1.251134 0.26823,0.517462 3.78044,-1.928636 10.82,-1.833793 15.37711,0.207174 1.61079,0.721414 1.87266,0.695215 0.92604,-0.09265 z m 25.64731,-9.813768 c 2.20362,-2.212614 4.43889,-3.557944 6.5634,-3.950275 1.40413,-0.259299 0.96299,-0.653943 -0.73098,-0.653943 -3.33188,0 -6.7231,2.370949 -8.46013,5.91485 -0.50961,1.039697 -0.99518,2.307077 -1.07906,2.8164 -0.14555,0.883842 -0.11319,0.859728 0.71016,-0.529167 0.47447,-0.800364 1.82294,-2.419404 2.99661,-3.597865 z m 17.58295,-3.59098 c 0.40548,-3.532466 0.35907,-11.162971 -0.0882,-14.506987 -0.83452,-6.238647 -2.44583,-12.254178 -4.36652,-16.301619 -0.69832,-1.471568 -1.40494,-2.759175 -1.57026,-2.861349 -0.63468,-0.392249 -1.44811,0.23668 -2.98231,2.305856 -1.81119,2.442747 -4.04831,6.875525 -5.23594,10.374821 -0.83754,2.467753 -2.22347,8.036055 -1.90056,7.635907 0.10101,-0.125166 0.64565,-0.919536 1.21032,-1.765266 1.44765,-2.168221 4.42192,-5.087788 5.99538,-5.885121 l 1.33301,-0.675486 -1.0552,1.403316 c -0.93242,1.24003 -3.48139,5.354813 -3.48139,5.619976 0,0.05521 0.80851,-0.314438 1.79668,-0.821436 1.25127,-0.641984 2.29696,-0.967178 3.44472,-1.071253 l 1.64806,-0.149441 -2.0835,2.087735 c -1.14592,1.148254 -2.26707,2.444922 -2.49144,2.881485 l -0.40794,0.79375 h 2.69539 c 2.17703,0 2.83932,0.09418 3.44373,0.489688 l 0.74833,0.489688 -1.81732,0.881162 c -0.99953,0.484638 -2.21174,1.289667 -2.69379,1.788951 l -0.87645,0.907791 1.09917,0.175765 c 1.1498,0.18386 3.01274,1.020559 3.29723,1.480882 0.10423,0.168645 -0.40524,0.278164 -1.37111,0.294738 -3.0174,0.05178 -3.03319,0.136862 -0.42294,2.279061 1.27906,1.049708 3.0351,2.626167 3.90232,3.503243 0.86721,0.877075 1.65778,1.506504 1.75681,1.398731 0.099,-0.107773 0.31223,-1.347337 0.47377,-2.754588 z m -49.45219,-5.254146 c 1.6728,-1.147948 3.4908,-2.988629 4.79284,-4.852638 l 0.89993,-1.288339 0.31604,2.045351 c 0.17382,1.124943 0.38543,2.114748 0.47025,2.199566 0.0848,0.08482 0.8951,-0.572347 1.80063,-1.460369 1.57974,-1.549199 3.46622,-2.985995 3.92055,-2.985995 0.11876,0 0.0426,0.491219 -0.16921,1.091598 -0.21183,0.600379 -0.38514,1.389168 -0.38514,1.752864 0,0.603385 0.0744,0.646383 0.85019,0.491228 3.87991,-0.775982 10.52123,-0.776344 14.99506,-8.16e-4 1.22057,0.211582 2.264,0.339905 2.31874,0.285163 0.0547,-0.05474 -1.18203,-0.408623 -2.74837,-0.786401 -3.76537,-0.908144 -8.06486,-1.34875 -11.28158,-1.156119 l -2.61284,0.156468 0.1569,-0.966876 c 0.0863,-0.531782 0.51794,-1.547652 0.9592,-2.25749 0.44125,-0.709837 0.80228,-1.344239 0.80228,-1.409782 0,-0.455456 -5.02889,2.650161 -6.77757,4.185526 -0.76846,0.67472 -0.98435,0.755878 -1.1893,0.447102 -0.26764,-0.403218 -0.0621,-3.501195 0.3208,-4.836487 0.12578,-0.438564 0.18182,-0.844257 0.12454,-0.90154 -0.0573,-0.05728 -1.16939,1.30405 -2.47136,3.025184 -3.07071,4.059333 -4.27779,5.150102 -8.2696,7.472747 -3.18374,1.852466 -7.61972,4.743402 -8.98959,5.858533 -0.99453,0.809591 10.48198,-4.952409 12.16661,-6.108478 z m -14.55552,5.044993 c 0.21407,-0.13538 0.32691,-0.308451 0.25076,-0.384601 -0.26083,-0.26083 -6.212182,-2.744724 -8.586239,-3.583608 -3.609817,-1.275545 -13.435373,-3.741625 -14.770878,-3.707287 -0.165882,0.0043 2.853552,1.066607 6.709854,2.360759 3.856302,1.294153 8.916458,3.070671 11.244791,3.947818 4.597512,1.732009 4.581242,1.727693 5.151712,1.366919 z m 41.54642,-15.819274 c 3.00712,-4.489373 7.55811,-10.73284 9.45937,-12.977245 2.17139,-2.563294 0.96443,-1.709345 -1.8703,1.323274 -4.30018,4.600371 -8.00859,9.562498 -10.88465,14.564473 l -0.72263,1.256771 0.62046,-0.0105 c 0.5022,-0.0085 1.14976,-0.800718 3.39775,-4.156772 z"
       id="path1" /></g></svg>
