<?xml version="1.0" encoding="UTF-8" standalone="no"?>
<!-- Created with Inkscape (http://www.inkscape.org/) -->

<svg
   width="181.17833mm"
   height="204.77132mm"
   viewBox="0 0 181.17833 204.77132"
   version="1.1"
   id="svg1"
   xml:space="preserve"
   inkscape:version="1.4 (e7c3feb100, 2024-10-09)"
   sodipodi:docname="cat_cropped.svg"
   xmlns:inkscape="http://www.inkscape.org/namespaces/inkscape"
   xmlns:sodipodi="http://sodipodi.sourceforge.net/DTD/sodipodi-0.dtd"
   xmlns="http://www.w3.org/2000/svg"
   xmlns:svg="http://www.w3.org/2000/svg"><sodipodi:namedview
     id="namedview1"
     pagecolor="#505050"
     bordercolor="#eeeeee"
     borderopacity="1"
     inkscape:showpageshadow="0"
     inkscape:pageopacity="0"
     inkscape:pagecheckerboard="0"
     inkscape:deskcolor="#505050"
     inkscape:document-units="mm"
     inkscape:zoom="0.54929737"
     inkscape:cx="44.602435"
     inkscape:cy="744.58758"
     inkscape:window-width="1920"
     inkscape:window-height="1080"
     inkscape:window-x="439"
     inkscape:window-y="599"
     inkscape:window-maximized="1"
     inkscape:current-layer="layer1" /><defs
     id="defs1" /><g
     inkscape:label="Layer 1"
     inkscape:groupmode="layer"
     id="layer1"
     transform="translate(-17.991668,-48.947922)"><path
       id="path1"
       style="fill:#000000"
       d="M 160.50132 48.947922 C 158.52877 48.947922 151.59728 54.810486 146.58072 60.72188 C 144.36883 63.32831 141.18199 67.849535 139.26075 71.106776 L 137.81691 73.554172 L 135.31887 73.554172 C 133.94491 73.554172 132.82083 73.444116 132.82083 73.309742 C 132.82083 73.003856 134.46905 70.795361 135.5509 69.651568 L 136.36429 68.791672 L 135.30957 68.791672 C 133.19776 68.791672 129.02832 70.257719 126.96796 71.724826 C 126.53229 72.035049 126.12813 72.241466 126.06983 72.183196 C 125.84945 71.962808 127.00459 67.971647 127.66714 66.664153 C 128.04743 65.913695 128.2991 65.240441 128.2268 65.168121 C 128.07209 65.013419 126.02528 66.379198 124.40584 67.717836 C 123.77942 68.23563 122.17928 70.028599 120.84999 71.702089 C 117.57809 75.821207 116.84538 76.458803 112.7125 78.78176 C 110.74797 79.885958 108.174 81.427684 106.99244 82.207907 L 104.84425 83.626425 L 102.7591 82.672995 C 93.026309 78.223185 83.471612 75.624378 75.390232 75.227972 C 70.945118 75.009932 69.440186 75.347109 68.838177 76.696099 C 68.188795 78.151245 68.28927 83.485865 69.032997 87.047922 C 71.472134 98.73009 78.345185 110.44694 87.1275 117.89358 L 88.662807 119.1948 L 87.985328 121.5223 C 86.703109 125.92672 84.553237 129.05214 81.705608 130.65146 C 81.006271 131.04423 80.436002 131.48469 80.438502 131.63021 C 80.443871 131.94588 82.071766 133.31679 83.277605 134.02077 C 84.313373 134.62546 84.33617 134.76231 83.466224 135.15868 C 82.919269 135.40789 82.843428 135.5556 83.057464 135.95553 C 83.373515 136.54607 86.246217 139.23517 87.639096 140.24416 L 88.637485 140.96711 L 86.001987 142.72153 C 84.552516 143.68648 83.27685 144.62173 83.167018 144.79995 C 83.0547 144.98222 83.252387 144.93841 83.61867 144.6997 C 84.774922 143.94616 89.098346 141.55209 89.303078 141.55209 C 89.412243 141.55209 90.292343 142.07312 91.258514 142.70964 C 92.224686 143.34615 94.053943 144.42829 95.323382 145.11466 C 96.592822 145.80104 97.627483 146.44141 97.622983 146.53731 C 97.618483 146.63324 97.112468 147.09516 96.498504 147.56361 C 95.88454 148.03206 94.370262 149.37678 93.133335 150.55206 L 90.884376 152.68888 L 93.579302 150.58461 C 95.061385 149.42735 96.810718 148.11121 97.46692 147.65973 L 98.660129 146.8391 L 101.78345 148.12223 C 103.50147 148.82793 105.53535 149.61335 106.30307 149.86786 L 107.69885 150.33036 L 106.88857 151.2993 C 104.97026 153.59147 102.23454 157.16689 101.08685 158.8823 C 98.267352 163.0965 97.918684 164.05964 100.49723 160.51062 C 102.52675 157.71724 104.85884 154.91355 107.16917 152.48992 L 108.97526 150.59495 L 110.51315 151.07554 C 112.25675 151.62022 112.26952 151.66965 111.25626 153.91309 C 110.11358 156.44307 107.48809 158.64582 104.4143 159.65331 C 104.00045 159.78896 103.97655 159.88106 104.26444 160.22795 C 104.453 160.45514 105.06189 160.8727 105.61733 161.15606 C 106.17276 161.43943 106.62708 161.78204 106.62708 161.91725 C 106.62708 162.29453 103.53948 164.39971 101.46771 165.43487 C 100.44906 165.94383 97.647556 167.07955 95.24225 167.95875 C 86.439026 171.17656 83.284948 172.65135 78.817929 175.63838 C 72.742065 179.70123 67.824247 184.8969 64.072059 191.01677 L 64.072059 197.24326 C 67.140431 190.62233 71.40216 184.84477 76.653204 180.42103 C 81.74106 176.13478 85.631749 173.96456 95.11771 170.1214 C 98.028127 168.94227 101.40285 167.44272 102.61699 166.78879 C 103.83113 166.13486 104.75003 165.72029 104.65873 165.86792 C 104.20107 166.60843 99.434793 169.36926 93.265626 172.46751 C 84.037198 177.10217 80.693313 179.34313 75.705458 184.2332 C 70.894409 188.94994 66.955864 194.89362 64.072059 201.50605 L 64.072059 233.55112 L 41.774196 233.55112 C 42.333394 233.88694 42.885496 234.26292 43.391668 234.52523 C 47.278015 236.53919 52.575685 238.16223 57.770119 238.93012 L 60.110027 239.27584 L 61.328558 241.14808 C 62.701599 243.25748 66.266649 246.97204 67.865626 247.95955 C 69.437808 248.9305 70.709821 249.37164 74.18307 250.15063 C 83.881133 252.32572 98.625559 253.62803 103.21541 252.71481 C 106.84485 251.99268 109.36534 249.83755 109.72612 247.14771 L 109.87185 246.06251 L 113.7512 246.06251 L 117.63106 246.06251 L 118.63824 247.38387 C 120.86886 250.30885 123.73647 252.42272 126.57625 253.23571 C 128.4801 253.78075 133.13045 253.88897 135.25531 253.43777 C 137.35235 252.99247 139.49348 251.80197 140.73508 250.39144 L 141.83941 249.13725 L 145.33377 249.11658 C 149.23094 249.09363 151.2425 248.65458 153.06146 247.42935 C 155.38875 245.86171 156.02102 242.40597 154.54974 239.29599 C 153.37022 236.80274 151.55595 235.59045 148.23643 235.07765 C 147.15708 234.91091 147.10013 234.85389 146.70733 233.53821 C 145.90985 230.86703 145.47232 227.34259 145.33067 222.45154 C 145.13571 215.72013 145.71204 210.44749 147.50779 202.53855 C 148.2882 199.10138 148.62647 198.15171 150.03219 195.44854 C 152.06997 191.52995 152.79961 189.69286 153.5622 186.56071 C 154.22985 183.81854 154.41872 183.87276 154.68462 186.88421 C 154.77669 187.92702 154.93257 188.93393 155.03137 189.12179 C 155.2729 189.58092 156.55112 185.79958 156.89068 183.62084 C 157.2854 181.08819 157.21814 175.64312 156.75736 172.80186 C 156.53577 171.43545 156.39802 170.27456 156.45092 170.22166 C 156.50384 170.16874 157.42939 171.1293 158.50816 172.35641 C 159.58693 173.58353 160.56047 174.5961 160.67133 174.6064 C 160.78223 174.61672 160.80121 174.11899 160.71371 173.50053 C 160.39753 171.26674 159.49556 168.39542 158.04203 164.99459 C 155.29504 158.56745 154.15823 154.58949 153.82575 150.24406 L 153.65677 148.03438 L 156.70155 146.22415 C 162.63171 142.69909 167.8823 138.28654 171.91767 133.43682 C 173.9343 131.01323 176.93261 127.02817 177.49408 126.02487 C 177.87521 125.34383 188.36939 126.63788 195.11109 128.19735 C 197.28332 128.69983 199.10837 129.06282 199.16717 129.00402 C 199.22596 128.94523 198.28253 128.597 197.07014 128.2299 C 192.0221 126.70142 186.2 125.45557 181.37188 124.87042 C 179.91667 124.69405 178.68898 124.51846 178.64388 124.48026 C 178.59875 124.44204 179.28802 123.03954 180.17557 121.36417 L 181.78942 118.31836 L 183.30044 118.15352 C 187.05654 117.74364 191.48593 117.48013 195.2625 117.44193 C 198.395 117.41027 199.01986 117.35253 197.90833 117.19699 C 196.0659 116.93919 183.32226 116.87381 182.68342 117.11895 C 182.29294 117.26879 182.24252 117.20984 182.40747 116.79339 C 183.00125 115.29436 184.41458 110.86748 184.41458 110.50644 C 184.41458 110.24471 184.78745 109.98884 185.40677 109.82586 C 187.79404 109.19763 192.61143 108.15979 195.85161 107.57535 C 197.78316 107.22695 198.94342 106.93028 198.42975 106.91648 C 197.0391 106.87922 191.37788 107.61457 187.34826 108.35567 C 185.39642 108.71464 183.77679 109.00834 183.74899 109.00834 C 183.72124 109.00834 183.85951 108.38686 184.05647 107.62754 C 184.25344 106.86822 184.41458 105.66496 184.41458 104.95329 C 184.41458 103.66305 184.41251 103.6597 183.68698 103.88617 C 183.2868 104.01112 182.18546 104.10873 181.23958 104.10373 C 179.84374 104.09596 179.24974 103.94698 178.08732 103.31101 C 175.91927 102.12487 174.59752 100.66551 171.8076 96.380169 C 170.40814 94.230587 168.90818 92.02098 168.47447 91.469874 L 167.68589 90.467868 L 168.1732 87.501124 C 168.77451 83.839512 168.85416 73.756208 168.31273 69.850005 C 166.86944 59.437262 162.94951 48.947922 160.50132 48.947922 z M 160.11529 51.649049 C 160.30478 51.612916 160.47494 51.647105 160.63361 51.745167 C 160.79893 51.847341 161.50522 53.134923 162.20354 54.606491 C 164.12423 58.653932 165.73568 64.669692 166.5702 70.908339 C 167.01747 74.252355 167.06404 81.882998 166.65856 85.415464 C 166.49702 86.822715 166.28369 88.062044 166.18469 88.169817 C 166.08566 88.27759 165.2949 87.648011 164.42769 86.770936 C 163.56047 85.89386 161.80466 84.317499 160.5256 83.267791 C 157.91535 81.125592 157.93092 81.04064 160.94832 80.98886 C 161.91419 80.972286 162.42404 80.86295 162.31981 80.694305 C 162.03532 80.233982 160.17214 79.397118 159.02234 79.213258 L 157.92318 79.037558 L 158.79961 78.129603 C 159.28166 77.630319 160.49397 76.825203 161.4935 76.340565 L 163.31096 75.459482 L 162.56217 74.970106 C 161.95776 74.574598 161.29548 74.480214 159.11845 74.480214 L 156.42353 74.480214 L 156.83126 73.686464 C 157.05563 73.249901 158.17666 71.95324 159.32258 70.804986 L 161.40617 68.717258 L 159.75821 68.866603 C 158.61045 68.970678 157.56473 69.295871 156.31346 69.937855 C 155.32529 70.444853 154.51667 70.814721 154.51667 70.759511 C 154.51667 70.494348 157.06569 66.379212 157.99811 65.139182 L 159.05334 63.736167 L 157.72009 64.411578 C 156.14663 65.208911 153.17276 68.128269 151.72511 70.29649 C 151.16044 71.14222 150.61586 71.936591 150.51485 72.061757 C 150.19194 72.461905 151.57745 66.8938 152.41499 64.426047 C 153.60262 60.926751 155.83965 56.493717 157.65084 54.05097 C 158.80149 52.499088 159.54684 51.757448 160.11529 51.649049 z M 154.76627 54.902081 C 154.80984 54.967532 154.47053 55.448247 153.65626 56.409482 C 151.755 58.653887 147.204 64.897611 144.19688 69.386984 C 141.94889 72.743038 141.30136 73.535337 140.79916 73.543837 L 140.17904 73.554172 L 140.90148 72.297401 C 143.77754 67.295426 147.48591 62.333286 151.78609 57.732915 C 153.55779 55.837529 154.69364 54.792995 154.76627 54.902081 z M 124.77016 69.913051 C 124.82744 69.970334 124.7714 70.37624 124.64562 70.814804 C 124.26272 72.150096 124.05707 75.247984 124.32471 75.651202 C 124.52966 75.959978 124.74584 75.87892 125.5143 75.2042 C 127.26298 73.668835 132.29167 70.562953 132.29167 71.018409 C 132.29167 71.083952 131.93038 71.718306 131.48913 72.428143 C 131.04787 73.137981 130.61632 74.154104 130.53002 74.685886 L 130.37344 75.652752 L 132.9862 75.496172 C 136.20292 75.303541 140.50231 75.74403 144.26768 76.652174 C 145.83402 77.029952 147.07053 77.383949 147.01583 77.438689 C 146.96109 77.493431 145.91768 77.365018 144.69711 77.153436 C 140.22328 76.377908 133.58207 76.378487 129.70216 77.154469 C 128.92637 77.309624 128.85208 77.266411 128.85208 76.663026 C 128.85208 76.29933 129.02524 75.510541 129.23707 74.910162 C 129.44888 74.309783 129.52533 73.818755 129.40657 73.818755 C 128.95224 73.818755 127.06562 75.255421 125.48588 76.80462 C 124.58035 77.692642 123.77027 78.349816 123.68547 78.264996 C 123.60065 78.180178 123.38904 77.19059 123.21522 76.065647 L 122.89896 74.020293 L 121.99927 75.308587 C 120.69723 77.172596 118.87908 79.013056 117.20628 80.161004 C 115.52165 81.317073 104.04505 87.079266 105.03958 86.269675 C 106.40945 85.154544 110.84548 82.263584 114.02922 80.411118 C 118.02103 78.088473 119.22829 76.997522 122.299 72.938189 C 123.60097 71.217055 124.71286 69.855771 124.77016 69.913051 z M 79.5445 77.530673 C 80.880005 77.496335 90.705358 79.962396 94.315175 81.237941 C 96.689232 82.076825 102.64038 84.560871 102.90121 84.821701 C 102.97736 84.897851 102.86465 85.070794 102.65058 85.206174 C 102.08011 85.566948 102.09647 85.571341 97.49896 83.839332 C 95.170627 82.962185 90.11047 81.185406 86.254168 79.891253 C 82.397866 78.597101 79.378618 77.534973 79.5445 77.530673 z M 72.297914 77.54566 C 72.749483 77.550361 73.318203 77.653352 74.032175 77.82988 C 78.889464 79.030839 86.638033 83.546891 91.413543 87.960011 L 93.265626 89.671534 L 91.741172 89.150119 C 90.90264 88.863324 89.071466 88.435165 87.672169 88.198756 C 85.558849 87.841713 84.766319 87.820098 82.991318 88.071115 C 80.563577 88.414443 79.670484 88.900005 81.466863 88.900005 C 83.209089 88.900005 89.454172 90.679236 89.82656 91.281772 C 89.890658 91.385485 89.083183 91.536552 88.032354 91.617152 C 85.991119 91.773719 83.671173 92.520526 82.264231 93.473886 C 80.861003 94.424729 81.044658 94.587127 83.543739 94.604567 C 85.767791 94.620087 89.693751 95.361344 89.693751 95.765736 C 89.693751 95.872547 89.247267 96.093658 88.701564 96.257179 C 87.171933 96.715534 85.301627 98.018826 84.412937 99.245627 C 83.970392 99.856543 83.608335 100.43931 83.608335 100.54064 C 83.608335 100.64196 84.233413 100.50897 84.997397 100.24505 C 85.919946 99.92634 87.173399 99.762407 88.729986 99.756707 L 91.074029 99.747922 L 89.743361 100.94423 C 88.517712 102.0462 87.312501 103.93497 87.312501 104.75382 C 87.312501 104.94124 87.733667 104.72462 88.248362 104.27271 C 89.185194 103.45016 91.543751 102.12917 92.075518 102.12917 C 92.260154 102.12917 92.27477 102.28977 92.117376 102.59219 C 91.626296 103.53577 90.227071 109.51221 89.727858 112.7988 C 89.444346 114.66531 89.160575 116.24392 89.097405 116.30712 C 88.875294 116.52923 85.342308 113.08321 83.377858 110.72813 C 76.000665 101.88396 70.648185 89.31247 70.644785 80.822979 C 70.643821 78.401879 70.943207 77.531556 72.297914 77.54566 z M 154.90786 84.402089 C 156.60183 84.402089 157.04321 84.796497 155.63908 85.055796 C 153.51457 85.448127 151.27928 86.793845 149.07566 89.006459 C 147.90199 90.18492 146.55341 91.803808 146.07894 92.604172 C 145.25559 93.993067 145.22336 94.017181 145.36891 93.133339 C 145.45279 92.624016 145.9383 91.35667 146.44791 90.316973 C 148.18494 86.773072 151.57598 84.402089 154.90786 84.402089 z M 113.82303 95.611224 C 114.67146 95.566227 115.52789 95.606083 116.37636 95.73473 C 118.50447 96.057401 121.88686 97.537536 123.42813 98.82033 L 123.42813 98.819813 C 124.37475 99.607678 124.11287 99.634245 122.50208 98.912831 C 117.94497 96.871864 110.90517 96.776972 107.12473 98.705608 C 105.68661 99.43928 105.56737 99.209361 106.85653 98.188327 C 108.80658 96.643856 111.27774 95.746212 113.82303 95.611224 z M 158.041 96.858176 C 160.49506 96.778871 162.79849 97.696862 164.40237 99.475587 C 166.09082 101.3481 166.55498 102.6619 166.55521 105.56876 C 166.55539 107.85244 166.47694 108.24704 165.701 109.88529 C 164.18842 113.07879 161.10527 115.4434 157.03021 116.53501 C 156.15708 116.7689 154.40196 117.03392 153.13019 117.12412 L 150.81819 117.28845 L 150.4363 116.37481 C 150.22637 115.87237 149.9715 115.13005 149.86992 114.7253 L 149.68544 113.98943 L 150.83627 114.57699 C 151.48897 114.90997 152.69138 115.22026 153.61285 115.29426 C 156.85791 115.55474 159.38456 114.04274 160.92145 110.92088 C 161.70035 109.33872 161.79271 108.91274 161.79271 106.89167 C 161.79271 104.87219 161.70013 104.44408 160.92455 102.86866 C 159.76582 100.51493 157.92985 98.860348 155.74657 98.202797 L 154.11979 97.712904 L 155.55691 97.275205 C 156.38806 97.022086 157.22298 96.884611 158.041 96.858176 z M 170.73842 98.160422 C 170.79829 98.160422 171.33979 98.922221 171.94196 99.853342 C 173.3123 101.97228 175.49041 103.98209 177.46927 104.95381 C 178.71498 105.56552 179.33901 105.70105 180.91454 105.70105 L 182.83897 105.70105 L 182.6674 106.48446 C 182.57314 106.91522 182.28269 107.76501 182.02197 108.37324 C 181.55571 109.46094 180.975 110.11086 180.975 109.54474 C 180.975 109.38596 181.1536 108.82848 181.37188 108.30606 C 182.03072 106.72922 181.96251 106.64536 180.03294 106.66016 C 176.71676 106.68561 173.95506 104.55291 171.7058 100.22955 C 171.1137 99.091451 170.67852 98.160422 170.73842 98.160422 z M 151.32151 102.39376 C 153.05093 102.39376 154.05258 106.01338 152.5819 106.94852 C 152.0215 107.30485 151.66602 107.17123 150.96856 106.34235 C 149.88039 105.04914 150.11761 102.39376 151.32151 102.39376 z M 113.37499 107.42084 C 113.47327 107.42084 112.95608 107.89306 112.22571 108.47039 C 111.22411 109.2621 110.64931 110.02298 109.88683 111.56581 C 108.9545 113.4523 108.87818 113.77709 108.90498 115.74178 C 108.95432 119.3544 110.44799 122.14448 113.19774 123.76093 C 114.28222 124.39847 114.70569 124.48646 116.68125 124.48646 C 118.67619 124.48646 119.08903 124.3987 120.33736 123.70718 C 122.05082 122.758 123.15251 121.54412 124.06271 119.60356 C 124.64427 118.36366 124.75104 117.76744 124.75104 115.75521 C 124.75104 113.6898 124.65015 113.15517 123.98933 111.72445 C 123.51712 110.7021 122.73288 109.61235 121.92693 108.85848 C 120.45434 107.481 120.87742 107.47033 123.29583 108.82334 C 126.57541 110.65813 129.28379 114.58036 130.44113 119.17103 C 131.3283 122.69006 131.38924 122.5531 128.25677 124.07305 C 126.76518 124.79681 124.65182 125.64207 123.56042 125.95149 C 120.75332 126.74733 116.0843 126.90088 113.77083 126.27292 C 110.5505 125.39881 108.03861 123.4162 106.7015 120.69341 C 106.05309 119.373 105.96566 118.89607 105.96666 116.68126 C 105.96779 114.4427 106.0492 114.0138 106.7077 112.7616 C 107.67762 110.91719 109.37475 109.32278 111.48725 108.27143 C 112.4273 107.80358 113.27669 107.42084 113.37499 107.42084 z M 159.18512 107.74382 C 159.52486 107.68496 159.89326 107.85004 160.17937 108.25851 C 160.71042 109.01619 160.71164 109.38971 160.18609 109.91526 C 159.65207 110.44928 159.47019 110.43911 158.71796 109.82999 C 158.18542 109.39876 158.13594 109.22272 158.36346 108.57322 C 158.53428 108.08558 158.84538 107.80268 159.18512 107.74382 z M 181.10523 110.3912 C 181.50935 110.33317 180.68433 110.70695 178.46146 111.53635 C 172.46304 113.7745 167.89556 115.83419 163.11563 118.45634 C 161.5149 119.33446 159.25709 120.61694 158.09836 121.3063 C 155.03919 123.12627 156.19447 122.0243 159.64659 119.82938 C 164.36144 116.83157 171.2307 113.54891 176.37425 111.83607 C 179.06785 110.93908 180.7011 110.44923 181.10523 110.3912 z M 91.921522 110.91933 C 91.992645 110.95156 92.024048 111.52537 92.034177 112.58021 C 92.111289 120.61123 90.587847 126.11672 87.402935 129.31563 C 86.552861 130.16944 85.559637 131.06637 85.195835 131.30879 C 84.546653 131.74138 84.544198 131.75615 85.063543 132.08703 C 85.832196 132.57676 87.801584 133.37131 89.096889 133.71432 C 89.714457 133.87786 90.228278 134.13053 90.238938 134.27605 C 90.249598 134.42157 89.473062 134.93351 88.513462 135.41396 C 87.553862 135.8944 86.83485 136.39411 86.91511 136.52397 C 86.99537 136.65383 87.943231 137.35001 89.021441 138.07116 C 90.09965 138.79231 90.910251 139.45396 90.822881 139.54136 C 90.735514 139.62871 90.526048 139.70001 90.357793 139.70001 C 90.034056 139.70001 85.893821 136.74711 85.638702 136.33432 C 85.556351 136.20107 86.154138 135.76575 86.967303 135.36694 C 87.780469 134.96812 88.339333 134.55184 88.209604 134.44141 C 88.079875 134.33098 87.139995 133.91392 86.120843 133.51485 C 84.335963 132.81595 82.816663 131.90696 83.083302 131.69791 C 83.153889 131.64257 83.833182 131.15081 84.592771 130.60495 C 86.187138 129.4592 88.285536 126.50506 89.164585 124.16969 C 90.076074 121.74813 90.700116 119.04622 91.154644 115.54954 C 91.574978 112.31592 91.802985 110.86563 91.921522 110.91933 z M 113.80029 110.94827 C 114.63108 111.02262 115.35833 112.22366 115.35833 113.87523 C 115.35833 114.80373 115.22956 115.15394 114.77026 115.47564 C 114.14692 115.91225 114.09394 115.92239 113.56671 115.71026 C 112.4782 115.2723 112.04315 112.10224 112.95796 111.27435 C 113.23483 111.0238 113.52336 110.92349 113.80029 110.94827 z M 182.44623 111.02682 C 182.52035 111.03398 182.5625 111.05974 182.5625 111.10795 C 182.5625 111.45598 181.59143 114.11349 180.8887 115.68907 C 180.4619 116.64599 180.04928 117.21042 179.77662 117.21042 C 179.53821 117.21042 179.38421 117.12112 179.43401 117.01198 C 179.48383 116.90284 180.02971 115.83374 180.64686 114.63642 C 181.26401 113.43911 181.76875 112.4027 181.76875 112.3332 C 181.76875 112.26366 181.27386 112.3813 180.66908 112.59468 C 179.42656 113.03307 179.23008 112.97183 179.60919 112.26344 C 179.83766 111.83657 181.92737 110.9767 182.44623 111.02682 z M 121.84063 117.47501 C 122.96273 117.47501 123.4927 119.32619 122.51965 119.84695 C 122.23817 119.99759 121.9405 120.12084 121.8582 120.12084 C 121.59472 120.12084 120.65 119.07268 120.65 118.78035 C 120.65 118.12046 121.23881 117.47501 121.84063 117.47501 z M 179.97403 117.85483 C 180.36177 117.90822 178.98767 118.24795 176.08021 118.80309 C 171.54039 119.66992 165.38927 121.32492 160.46979 123.00335 C 157.99593 123.84738 155.76352 124.62863 155.50886 124.73916 C 155.2542 124.84966 155.04583 124.87629 155.04583 124.79859 C 155.04583 124.57866 157.73147 123.40244 160.82843 122.26593 C 165.99032 120.37164 174.60146 118.30127 178.99063 117.89927 C 179.5199 117.85079 179.84478 117.83703 179.97403 117.85483 z M 178.79219 118.8589 C 179.36692 118.6767 179.16178 119.21979 177.69872 121.75433 C 176.70307 123.47914 176.10585 124.24753 175.71434 124.30663 C 175.38032 124.35706 175.15905 124.25026 175.16605 124.04205 C 175.18237 123.56253 178.38209 118.98891 178.79219 118.8589 z M 146.44688 120.80452 C 147.97654 120.78319 148.03743 120.80806 148.11603 121.4882 C 148.21387 122.33429 147.16052 124.50414 146.02313 125.79956 C 145.57122 126.31425 145.12453 126.72605 145.03043 126.71475 C 144.93637 126.70345 144.02594 126.39436 143.00729 126.02797 C 141.98864 125.66159 140.64919 125.18504 140.03073 124.9686 C 138.50483 124.43461 138.53526 123.78371 140.13408 122.76977 C 141.8571 121.67706 144.57677 120.83062 146.44688 120.80452 z M 44.969349 121.19726 C 41.753869 121.10838 38.034807 121.43872 35.904786 122.07576 C 33.659401 122.74732 30.610841 124.10727 30.328899 124.56346 C 30.253723 124.68506 30.81075 124.69654 31.56655 124.58878 C 33.309692 124.34007 36.778947 124.34284 38.496876 124.59395 L 39.819793 124.78722 L 38.76146 124.98204 C 35.638534 125.55619 33.912912 126.01101 32.071946 126.74627 C 26.282969 129.0583 21.267326 133.78677 18.776633 139.27988 C 18.344801 140.23226 17.991668 141.08473 17.991668 141.17433 C 17.991668 141.26391 18.811488 140.58179 19.813262 139.65866 C 20.815036 138.73553 22.013384 137.76058 22.476666 137.49187 L 23.318991 137.00301 L 22.405869 138.28562 C 20.265474 141.29077 18.887051 145.03002 18.614886 148.57078 C 18.370125 151.75503 18.566629 151.99377 19.849953 150.07198 C 20.984042 148.37367 23.699933 145.70347 25.113197 144.8971 L 25.974126 144.40618 L 25.287347 145.44384 C 24.213711 147.06621 23.547918 149.27023 23.547918 151.20266 C 23.547918 152.15219 23.578561 152.92917 23.616131 152.92917 C 23.653706 152.92917 24.46391 152.18504 25.416538 151.27553 C 27.403254 149.37875 29.139908 148.35747 31.362428 147.77858 C 35.104942 146.80378 38.886244 147.74395 41.716835 150.3531 C 44.902237 153.2893 45.914355 158.09086 44.766778 164.06958 L 64.072059 164.06958 L 64.072059 175.43064 C 68.825009 169.36765 72.447719 161.92184 73.853375 155.2174 C 74.522521 152.02583 74.660066 146.28028 74.126743 143.80105 C 72.243447 135.0463 67.788037 127.49074 61.88563 123.04314 C 60.718468 122.16366 59.659526 121.44376 59.532802 121.44376 C 59.406078 121.44376 59.724101 122.06884 60.239218 122.83282 C 61.177056 124.22376 62.770598 127.22991 63.269008 128.54771 L 63.534625 129.24896 L 62.657159 128.42731 C 58.929445 124.93337 53.131377 122.17648 47.939194 121.4298 C 47.056687 121.30289 46.041176 121.22689 44.969349 121.19726 z M 41.69358 122.77701 C 42.751795 122.79015 44.185048 122.88214 45.684551 123.04934 C 50.605204 123.59803 55.688498 125.55114 59.282688 128.27331 C 61.381904 129.86321 64.035677 132.71033 65.175868 134.59592 C 65.636476 135.35765 66.10284 135.98409 66.21198 135.98809 C 66.645805 136.00449 66.127175 131.73233 65.468873 129.8665 C 65.271981 129.30846 65.16098 128.85209 65.22186 128.85209 C 65.487585 128.85209 67.500971 132.1009 68.633538 134.35666 C 71.323837 139.715 72.385277 144.41579 72.139267 149.88646 C 71.929335 154.55485 70.940277 158.45842 68.770481 163.18178 C 68.21898 164.38233 67.698599 165.36459 67.614479 165.36459 C 67.530364 165.36459 67.656594 164.91811 67.894565 164.3724 C 70.205112 159.07396 71.321941 151.47758 70.541432 146.36937 C 70.144269 143.77006 68.951242 139.67504 68.149847 138.16056 C 67.733482 137.37372 67.680508 137.45063 67.278582 139.43542 L 67.03777 140.62605 L 66.606272 139.63696 C 65.10731 136.19818 60.837154 131.34687 57.120546 128.86087 C 55.031995 127.46386 51.909107 126.03966 49.881194 125.55927 C 49.140276 125.38376 49.118416 125.40105 49.504473 125.85589 C 52.322253 129.1757 52.568609 129.63837 51.25217 129.13786 C 50.187021 128.73289 45.224986 128.05834 43.310536 128.05834 C 41.225877 128.05834 38.02039 128.47351 35.851043 129.02417 C 34.058773 129.47911 29.633335 131.45524 29.633335 131.80075 C 29.633335 131.92517 30.010503 132.02709 30.471526 132.02709 C 30.932549 132.02709 32.072643 132.15976 33.005222 132.32216 L 34.700726 132.61775 L 33.291509 133.33192 C 28.8712 135.57209 25.075855 139.31464 22.942787 143.53646 C 22.575166 144.26406 21.891947 145.21657 21.424533 145.65313 C 20.580391 146.44156 20.575923 146.44244 20.766176 145.78542 C 21.983306 141.58217 24.943329 137.27686 28.320237 134.79798 C 29.04379 134.26684 29.580359 133.74334 29.512929 133.63423 C 29.324663 133.32961 26.761481 133.75887 25.135418 134.36751 L 23.68021 134.91218 L 25.458912 133.23993 C 28.671709 130.2191 33.15485 127.98042 37.719663 127.11783 C 39.55028 126.77191 40.998549 126.70117 44.130641 126.80363 C 47.069324 126.89977 48.15015 126.85415 48.07872 126.63724 C 47.908978 126.12177 43.114982 123.84341 41.49721 123.50926 C 40.647287 123.33371 39.952085 123.09496 39.952085 122.97855 C 39.952085 122.82997 40.635366 122.76386 41.69358 122.77701 z M 171.49238 124.657 C 172.82472 124.68111 174.04055 124.75125 175.02188 124.873 C 176.24732 125.02509 175.64387 125.08092 172.37604 125.11692 C 170.0477 125.14256 166.5949 125.27447 164.70313 125.41044 C 162.81136 125.5464 160.48963 125.71596 159.54375 125.78716 L 157.82396 125.91635 L 159.54375 125.54893 C 162.44996 124.92815 167.49535 124.58464 171.49238 124.657 z M 174.594 125.6466 C 174.75597 125.63613 174.87985 125.71455 174.9733 125.87553 C 175.03666 125.98467 174.32767 127.08599 173.39769 128.32292 C 167.05167 136.76346 158.92984 143.42799 150.38979 147.20239 C 146.84014 148.77122 145.94434 148.9694 148.69583 147.57704 C 157.37522 143.18495 165.92644 136.08177 171.90682 128.29605 C 173.28025 126.50805 174.10807 125.67801 174.594 125.6466 z M 156.06231 127.82579 C 156.08399 127.86263 156.0944 127.94557 156.0959 128.07229 C 156.11106 129.33303 154.82332 131.45089 153.6082 132.163 C 152.13046 133.02905 150.3608 133.03668 148.52995 132.18419 C 146.81958 131.38781 146.39284 130.7989 148.06073 131.53668 C 149.94443 132.36993 152.54881 132.16144 153.90637 131.06849 C 154.54269 130.5562 155.12959 129.73103 155.50059 128.82728 C 155.83097 128.0225 155.99728 127.71528 156.06231 127.82579 z M 130.3383 129.79467 C 129.94991 129.8809 128.14255 130.07678 124.61875 130.44889 C 115.48168 131.41378 105.82408 133.85306 97.352715 137.33529 C 95.603806 138.05419 93.552192 138.95224 92.793304 139.33155 C 92.034416 139.71088 91.532605 139.8981 91.678126 139.74755 C 92.183371 139.22488 96.965579 136.98384 100.59593 135.56847 C 109.98216 131.90905 118.51683 130.08208 127.54467 129.79932 C 129.69597 129.73194 130.72669 129.70843 130.3383 129.79467 z M 145.13481 131.07107 C 145.21414 131.04633 144.97009 131.53037 144.4563 132.50665 C 143.40092 134.51205 141.47616 136.32092 139.78372 136.89759 C 138.35437 137.38466 136.48009 137.41409 135.32197 136.96787 C 134.03688 136.47273 132.64723 135.51262 132.17695 134.79488 C 131.79563 134.21291 131.88962 134.24423 132.94951 135.05326 C 136.43329 137.71248 140.88539 136.74873 143.87339 132.68855 C 144.65287 131.62938 145.05549 131.09582 145.13481 131.07107 z M 133.54586 131.07676 C 133.61793 131.14883 133.33534 131.2839 132.91799 131.377 C 125.44471 133.04492 117.7666 135.76025 110.42479 139.33207 C 108.80283 140.12116 105.9183 141.70242 104.01432 142.84555 C 99.998925 145.25636 99.678698 145.23277 103.39576 142.80007 C 110.15208 138.37825 117.20989 135.12787 124.75104 132.96605 C 128.2414 131.96547 133.33958 130.87047 133.54586 131.07676 z M 132.42396 133.09369 C 132.56948 133.09369 132.50996 133.20895 132.29167 133.35001 C 132.07339 133.49107 131.77573 133.60632 131.63021 133.60632 C 131.48469 133.60632 131.54422 133.49107 131.7625 133.35001 C 131.98078 133.20895 132.27844 133.09369 132.42396 133.09369 z M 130.7636 133.9138 C 131.24823 133.80503 130.26535 134.45407 128.1281 135.60982 C 123.46137 138.13344 117.71748 142.13068 113.16105 146.02572 C 111.44324 147.49417 109.97877 148.69584 109.90647 148.69584 C 109.63448 148.69584 114.72378 143.99631 116.81044 142.32052 C 120.80532 139.11227 125.94284 135.92816 129.77813 134.28432 C 130.27728 134.07037 130.60205 133.95005 130.7636 133.9138 z M 150.74222 138.2634 C 150.8486 138.26263 150.73766 138.54734 150.44095 139.11761 C 149.98491 139.99411 149.08773 140.83022 148.03076 141.36347 L 148.03076 141.36295 C 147.03551 141.86509 145.07261 142.11266 144.19792 141.84664 C 143.64678 141.67902 143.76157 141.62305 144.88625 141.5092 C 146.63481 141.3322 148.3967 140.46578 149.7397 139.12278 C 150.31207 138.55057 150.63584 138.26417 150.74222 138.2634 z M 91.952011 140.26018 C 92.256481 140.19845 93.11312 140.57774 95.095489 141.59601 C 96.558756 142.34763 98.386463 143.21895 99.15674 143.53233 C 100.47628 144.06918 100.52962 144.1267 100.08433 144.52968 C 99.643979 144.9282 99.372437 144.83412 96.102662 143.15044 C 92.497464 141.29405 91.810418 140.8634 91.810418 140.4612 C 91.810418 140.34995 91.850522 140.28075 91.952011 140.26018 z M 30.806906 142.61042 C 30.884754 142.61042 30.712343 142.99738 30.423984 143.47032 C 30.135625 143.94327 29.899321 144.38971 29.898435 144.46251 C 29.897549 144.53531 30.819794 144.5574 31.947922 144.5116 C 33.076051 144.46583 34.296616 144.54729 34.660418 144.69298 C 35.236202 144.92354 35.148218 144.96054 33.980873 144.97514 C 31.757514 145.00294 27.42669 146.60309 26.476421 147.74809 C 25.810468 148.55052 25.657877 148.15849 26.212872 147.07061 C 27.12467 145.28334 29.877869 142.61042 30.806906 142.61042 z M 101.98861 144.88574 C 102.43606 144.86626 103.15631 145.10448 104.71971 145.7384 C 106.13247 146.31123 107.91862 146.9842 108.68897 147.23391 C 109.83945 147.60683 110.03484 147.75433 109.78141 148.0597 C 109.61171 148.26417 109.27876 148.4253 109.04192 148.4173 C 108.52685 148.4004 102.51501 146.28843 101.66615 145.82625 C 100.93523 145.42829 100.9299 145.35042 101.61085 144.98599 C 101.72045 144.92733 101.83946 144.89223 101.98861 144.88574 z M 111.53118 148.32118 C 111.91499 148.25438 112.60204 148.39102 114.08554 148.78937 C 118.01074 149.84337 121.39552 150.50707 125.18926 150.96702 C 127.13101 151.20243 128.76926 151.44284 128.82986 151.50084 C 129.08289 151.74298 125.85596 151.5035 121.04688 150.92361 C 117.38494 150.48205 111.39631 149.31944 111.04749 148.98213 C 110.93218 148.87063 111.01465 148.63256 111.23042 148.45348 C 111.30918 148.38811 111.40324 148.34345 111.53118 148.32118 z M 152.26771 152.06204 C 152.3441 152.18246 152.51519 153.01829 152.82788 154.64276 C 153.41155 157.67493 154.60348 161.22528 156.39459 165.26847 C 157.25361 167.20759 157.95625 168.8714 157.95625 168.9654 C 157.95625 169.05941 157.44004 168.66028 156.80903 168.07863 C 155.42288 166.80092 154.35214 166.07663 154.03194 166.19968 C 153.90168 166.24974 154.01279 167.1836 154.27844 168.27501 C 155.28915 172.42749 155.57346 174.74223 155.54606 178.59376 C 155.52359 181.74997 155.46581 182.28947 155.22102 181.63646 C 154.65071 180.11515 153.32368 177.70878 152.99531 177.60053 C 152.74728 177.51875 152.66458 178.08316 152.66458 179.85983 C 152.66458 186.12313 150.58246 191.9308 145.73684 199.1832 C 143.40148 202.67851 140.61637 206.08559 135.74882 211.40209 C 130.57186 217.05653 130.12875 217.04844 134.54063 211.38038 C 139.97223 204.40228 141.38298 202.38617 142.76286 199.62813 C 144.22416 196.70735 144.40344 196.73391 143.65635 199.76042 L 143.42794 200.68646 L 144.0925 199.89271 C 145.2421 198.52039 148.80974 191.03047 149.95467 187.58545 C 151.25837 183.66269 151.87083 180.39733 151.87083 177.36851 C 151.87083 176.15064 151.98057 175.15417 152.11475 175.15417 C 152.24893 175.15417 152.79987 175.66019 153.33896 176.27865 L 154.31926 177.40313 L 154.16475 174.22813 C 154.07997 172.48188 153.76652 169.63564 153.46764 167.90294 C 153.16875 166.17025 152.96312 164.71311 153.01082 164.66541 C 153.05855 164.61767 153.55756 164.81337 154.11979 165.10001 C 155.29632 165.69984 155.47858 165.64447 155.03757 164.82044 C 154.50393 163.82333 153.19131 159.77467 152.78551 157.87461 C 152.57388 156.88371 152.34479 155.03823 152.27649 153.77356 C 152.20966 152.53665 152.19132 151.94162 152.26771 152.06204 z M 112.86908 154.69909 C 112.93785 154.64408 112.9668 154.71863 112.9683 154.91355 C 112.9747 155.89763 111.74356 158.08298 110.60359 159.11071 C 109.48992 160.11473 109.46831 160.33758 110.45011 160.68167 C 110.76889 160.79339 109.7715 162.25495 108.38305 163.71094 C 107.79328 164.3294 107.20295 164.83542 107.07099 164.83542 C 106.83964 164.83542 107.06032 164.43693 108.38925 162.45882 C 109.19791 161.25512 109.17135 160.99847 108.19443 160.59382 L 107.38001 160.25637 L 108.53653 159.53704 C 109.87727 158.70254 111.9076 156.53027 112.53267 155.26185 C 112.69196 154.93861 112.80031 154.7541 112.86908 154.69909 z M 70.379168 170.52138 C 70.379168 170.42614 68.625423 172.02483 66.481731 174.07413 C 65.221898 175.27849 64.834283 175.58139 64.072059 176.26367 L 64.072059 179.3565 C 67.701528 174.94542 70.379168 171.24585 70.379168 170.52138 z M 131.91288 196.73683 C 132.0287 196.58286 131.93357 197.36515 131.52427 199.39714 C 129.08972 211.48363 129.2188 224.16184 131.88342 234.68542 C 132.23346 236.06787 132.59996 237.40732 132.69836 237.66198 C 133.09038 238.67669 132.54507 238.04596 132.0121 236.86823 C 127.95823 227.91025 127.2757 216.40883 130.05304 203.86146 C 130.94069 199.85126 131.71985 196.99345 131.91288 196.73683 z M 82.153126 199.22609 L 83.830027 199.37698 C 88.692317 199.81363 93.670434 202.5258 96.774973 206.42978 C 99.346307 209.66326 100.71738 212.88581 101.34369 217.16918 C 101.74562 219.91799 101.59433 220.33373 100.97678 218.17739 C 100.35516 216.00683 98.015875 211.14766 96.547597 208.97691 C 93.43116 204.36947 89.30469 201.35058 83.948366 199.75939 L 82.153126 199.22609 z M 103.53838 202.77936 C 103.60357 202.79756 103.73189 203.52902 103.98539 205.18438 C 104.88917 211.08613 106.92773 218.00114 109.87495 225.16042 C 112.18909 230.78186 115.91804 238.78779 118.12199 242.86632 C 118.78404 244.09146 119.29589 245.12322 119.25939 245.15972 C 119.17691 245.24221 116.03792 240.47839 114.55373 238.01855 C 112.82167 235.14791 109.43083 228.19879 108.34429 225.29271 C 105.50092 217.68782 103.39844 208.26561 103.47534 203.47131 C 103.48268 203.01391 103.49927 202.76844 103.53838 202.77936 z M 144.87281 206.16778 C 144.93432 206.22929 144.8082 207.20118 144.59273 208.32734 C 143.84818 212.21876 143.40436 216.82468 143.40468 220.65475 C 143.40502 224.75949 143.98697 230.72568 144.57929 232.69381 C 144.77749 233.35253 144.89376 233.89167 144.83716 233.89167 C 144.36449 233.89167 142.77261 228.08082 142.32361 224.716 C 141.91522 221.65555 142.15467 216.47896 142.86002 213.12188 C 143.46803 210.22809 144.69487 205.98984 144.87281 206.16778 z M 98.391928 216.29688 L 98.802239 216.95834 C 99.027937 217.32214 99.476627 218.45324 99.799594 219.47188 C 101.71544 225.51452 99.032088 233.69183 93.711077 238.0263 C 92.897387 238.68912 91.273934 239.7095 90.103029 240.29335 C 87.763812 241.45976 87.749589 241.38833 90.01983 239.87322 C 92.030439 238.53139 94.684203 235.68339 96.006028 233.44932 C 98.702171 228.89245 99.760435 222.03126 98.549542 216.95834 L 98.391928 216.29688 z M 109.75092 233.54441 C 109.83431 233.5869 109.90618 233.67279 109.99329 233.7909 C 110.32433 234.23982 110.26155 234.37265 109.35353 235.14483 C 108.79986 235.61567 107.51344 236.41102 106.49479 236.91268 C 104.77817 237.75809 102.65833 238.37921 102.65833 238.03664 C 102.65833 237.95562 103.47595 237.45951 104.47528 236.93438 C 105.4746 236.40925 107.04246 235.37513 107.9593 234.63633 C 109.14616 233.67996 109.50076 233.41692 109.75092 233.54441 z M 147.5171 236.81811 C 148.75474 236.74589 149.94702 236.89056 150.69675 237.27493 C 152.49039 238.19449 153.53052 239.70155 153.79371 241.76303 C 153.87271 242.38147 153.82927 242.9539 153.6976 243.0353 C 153.56593 243.11668 153.45833 242.90215 153.45833 242.55833 C 153.45833 242.21452 153.14891 241.31259 152.77104 240.55431 C 151.72848 238.46215 150.31184 237.72387 147.37292 237.74157 C 145.56815 237.75245 144.78429 237.89401 143.40417 238.4578 C 141.55154 239.21462 141.91642 238.77567 144.06563 237.66198 C 144.99664 237.17954 146.27945 236.89032 147.5171 236.81811 z M 99.105063 239.28101 C 103.2246 239.12113 106.34426 240.61362 107.55468 243.51124 C 108.1313 244.89162 107.91269 244.97722 107.0684 243.70141 C 105.27269 240.98795 100.48833 239.87489 95.051564 240.90623 C 92.790674 241.33512 89.808574 242.27624 88.396673 243.00636 C 87.918721 243.2535 87.460864 243.38882 87.379164 243.30712 C 87.127315 243.05527 92.622919 240.5685 94.685695 240.00086 C 96.247422 239.5711 97.731886 239.3343 99.105063 239.28101 z M 134.03368 239.76883 C 135.66823 239.66393 136.14361 239.7416 137.40298 240.31815 C 139.18832 241.13551 140.32957 242.58833 140.78521 244.62435 C 141.01983 245.67276 141.0286 246.21792 140.81776 246.65523 C 140.54583 247.2193 140.52874 247.20436 140.51184 246.38497 C 140.47227 244.46573 139.15341 242.52366 137.18646 241.48811 C 136.37565 241.06124 135.664 240.93285 134.14375 240.94085 C 131.78951 240.95281 130.11972 241.48332 127.99426 242.89422 C 126.27631 244.03458 126.30228 243.4846 128.03095 242.11546 C 129.76082 240.74539 131.91012 239.90511 134.03368 239.76883 z M 149.73505 240.1316 L 150.39961 240.75585 C 151.35052 241.64919 151.97268 243.44299 151.79384 244.77628 C 151.71275 245.3809 151.4279 246.09358 151.16132 246.36016 C 150.69144 246.83003 150.67966 246.78132 150.77116 244.76594 C 150.84784 243.07728 150.75946 242.44736 150.30039 241.40956 L 149.73505 240.1316 z M 145.79214 242.56608 C 145.82073 242.5574 145.86641 242.58013 145.92856 242.63171 C 146.92689 243.46025 147.49205 246.36712 146.79104 247.06813 C 146.09678 247.7624 145.86895 247.4246 146.13992 246.10178 C 146.34462 245.10252 146.31322 244.54478 145.99729 243.58514 C 145.77293 242.90363 145.70636 242.59212 145.79214 242.56608 z M 136.56169 243.49625 C 136.59093 243.41527 136.7924 243.57575 137.17974 243.93964 C 138.75996 245.42418 139.13306 249.06004 137.84585 250.4302 C 136.93999 251.39446 136.7696 251.24288 137.23245 249.88449 C 137.73829 248.39994 137.61339 245.76717 136.97717 244.50033 C 136.6754 243.89945 136.53245 243.57724 136.56169 243.49625 z M 103.62572 243.72621 C 103.67014 243.67117 104.01804 243.86689 104.67113 244.31067 C 105.92563 245.16312 106.81855 246.43385 107.02603 247.66189 C 107.19602 248.66806 106.90295 249.68959 106.54647 249.33311 C 106.44538 249.23203 106.35982 248.84191 106.35682 248.46598 C 106.34797 247.4253 105.47518 245.72192 104.39983 244.64657 C 103.84022 244.08696 103.58129 243.78126 103.62572 243.72621 z M 99.268877 246.06251 C 99.806895 246.06251 101.77379 247.54423 102.42992 248.44376 C 102.69528 248.80757 102.9447 249.50884 102.9839 250.00232 C 103.07278 251.12114 102.48154 251.42166 102.23976 250.38059 C 101.94075 249.09311 100.82666 247.41829 99.809413 246.72706 C 99.219832 246.32643 99.005057 246.06251 99.268877 246.06251 z M 131.39715 246.08369 C 131.5056 245.98871 131.94399 246.41063 132.41259 247.21024 C 133.2705 248.67415 133.32288 250.45189 132.53713 251.45081 C 132.23553 251.83424 131.81582 252.14792 131.60437 252.14792 C 131.27248 252.14792 131.27502 252.04096 131.62349 251.36709 C 131.84551 250.93775 132.02708 249.92003 132.02708 249.10521 C 132.02708 248.2904 131.84551 247.27267 131.62349 246.84334 C 131.38587 246.38382 131.33208 246.14068 131.39715 246.08369 z " /></g></svg>
