<?xml version="1.0" encoding="UTF-8" standalone="no"?>
<!-- Created with Inkscape (http://www.inkscape.org/) -->

<svg
   width="181.17833mm"
   height="204.77132mm"
   viewBox="0 0 181.17833 204.77132"
   version="1.1"
   id="svg1"
   xml:space="preserve"
   sodipodi:docname="cateyes.svg"
   inkscape:version="1.4 (e7c3feb100, 2024-10-09)"
   xmlns:inkscape="http://www.inkscape.org/namespaces/inkscape"
   xmlns:sodipodi="http://sodipodi.sourceforge.net/DTD/sodipodi-0.dtd"
   xmlns="http://www.w3.org/2000/svg"
   xmlns:svg="http://www.w3.org/2000/svg"><sodipodi:namedview
     id="namedview1"
     pagecolor="#505050"
     bordercolor="#eeeeee"
     borderopacity="1"
     inkscape:showpageshadow="0"
     inkscape:pageopacity="0"
     inkscape:pagecheckerboard="0"
     inkscape:deskcolor="#505050"
     inkscape:document-units="mm"
     inkscape:zoom="0.54929737"
     inkscape:cx="68.269032"
     inkscape:cy="446.02434"
     inkscape:window-width="1920"
     inkscape:window-height="1080"
     inkscape:window-x="439"
     inkscape:window-y="599"
     inkscape:window-maximized="1"
     inkscape:current-layer="layer1" /><defs
     id="defs1" /><g
     inkscape:label="Layer 1"
     inkscape:groupmode="layer"
     id="layer1"
     transform="translate(-17.991668,-48.947922)"><path
       style="fill:#ffcc00"
       d="m 114.85283,127.14602 c -3.80508,-0.82401 -7.17455,-3.41322 -8.66028,-6.65486 -1.02318,-2.23243 -1.0093,-5.1175 0.0356,-7.40643 1.00613,-2.20391 3.20691,-4.28913 5.85315,-5.54583 1.81139,-0.86023 2.05579,-0.91582 2.42095,-0.55066 0.36515,0.36516 0.25607,0.51703 -1.08051,1.50442 -2.58251,1.90782 -3.74147,4.50077 -3.54313,7.92708 0.27158,4.69134 2.95686,7.55081 7.09085,7.55081 3.9241,0 6.71185,-2.5089 7.37027,-6.63304 0.51182,-3.20591 -0.57819,-6.39358 -2.92932,-8.56658 -1.14704,-1.06014 -1.2619,-1.25732 -0.90496,-1.55356 0.6194,-0.51406 3.61002,1.06743 5.69747,3.01293 2.8552,2.66102 4.56886,5.82454 5.44019,10.04291 0.42281,2.04696 0.42109,2.07946 -0.14165,2.67847 -1.40061,1.49088 -6.38839,3.54119 -10.26718,4.22048 -2.6834,0.46995 -4.11777,0.46407 -6.38149,-0.0261 z m 35.77782,-9.75697 c -0.85541,-1.08747 -1.50472,-3.25248 -1.11596,-3.72091 0.27107,-0.32662 0.45748,-0.30674 1.33863,0.14279 3.76463,1.92057 7.72386,0.82646 9.64013,-2.664 0.74032,-1.34847 0.79361,-1.63281 0.79167,-4.22392 -0.002,-2.36952 -0.0922,-2.95996 -0.61481,-4.01438 -1.14635,-2.31292 -3.65619,-4.187702 -5.60624,-4.187702 -0.9775,0 -1.29365,-0.618362 -0.66903,-1.308559 0.66356,-0.733219 3.57159,-1.443892 5.14554,-1.257481 2.4864,0.294478 5.11,2.031626 6.61834,4.382162 2.6719,4.16379 1.75562,9.21536 -2.379,13.11575 -2.73198,2.57721 -5.78228,3.79044 -10.71817,4.26307 -1.81374,0.17367 -1.89373,0.15634 -2.4311,-0.52682 z"
       id="path2" /></g></svg>
